<svg xmlns="http://www.w3.org/2000/svg" viewBox="0 0 823.55 450.41"><defs><style>.cls-1{isolation:isolate;}.cls-2{fill:#f4f4f4;mix-blend-mode:multiply;}.cls-3{fill:#93c01f;}</style></defs><title>Ativo 4</title><g class="cls-1"><g id="Camada_2" data-name="Camada 2"><g id="Layer_2" data-name="Layer 2"><path class="cls-2" d="M823.55,0C690.89,197.53,272.25,248.57,0,186.83V450.41C81.58,411.84,518.47,343,819.84,407.5,819.84,242.5,823.55,97.1,823.55,0Z"/><path class="cls-2" d="M823.55,182.17C690.89,363.6,272.25,401.29,0,344.58V446.5c81.58-35.43,513-97.29,819.84-14.27C819.84,280.67,823.55,271.36,823.55,182.17Z"/><path class="cls-3" d="M823.55,13.34C690.89,210.87,272.25,251.9,0,190.16V445.41c81.58-38.57,518.47-99.05,819.84-34.57C819.84,245.84,823.55,110.44,823.55,13.34Z"/></g></g></g></svg>