<?xml version="1.0" encoding="UTF-8"?>
<!DOCTYPE svg PUBLIC "-//W3C//DTD SVG 1.1//EN" "http://www.w3.org/Graphics/SVG/1.1/DTD/svg11.dtd">
<!-- Creator: CorelDRAW 2019 (64 Bit) -->
<svg xmlns="http://www.w3.org/2000/svg" xml:space="preserve" width="718.092mm" height="65.4734mm" version="1.1" style="shape-rendering:geometricPrecision; text-rendering:geometricPrecision; image-rendering:optimizeQuality; fill-rule:evenodd; clip-rule:evenodd"
viewBox="0 0 69179.06 6307.53"
 xmlns:xlink="http://www.w3.org/1999/xlink">
 <defs>
  <style type="text/css">
   <![CDATA[
    .fil1 {fill:#93C01F}
    .fil2 {fill:#E6E6E6}
    .fil0 {fill:white}
   ]]>
  </style>
 </defs>
 <g id="Camada_x0020_1">
  <metadata id="CorelCorpID_0Corel-Layer"/>
  <g id="_1882303708544">
   <polygon class="fil0" points="69179.06,0 69179.06,6307.53 -0,6307.53 -0,0 "/>
   <path class="fil1" d="M-0 0l0 5873.94c99.03,-19.51 318.57,-130.52 426.93,-175.09 1972.27,-811.3 5061.47,-1502.71 7098.83,-1911.55 8108.62,-1627.19 17663.18,-2579.13 25929.26,-2976.9 6255.15,-301.01 12565.92,-333.1 18813.22,12.49 5124.04,283.43 10085.02,805.23 15104.02,1737.02 338.05,62.76 665.08,127.08 1003.38,194.14 265.7,52.67 536.35,118.44 803.41,169.71l0 -2923.74 -69179.06 0z"/>
   <path class="fil2" d="M69179.06 2926.2c-271.17,-51.61 -546.19,-118.66 -816.09,-172.16 -338.23,-67.06 -665.21,-131.38 -1003.19,-194.14 -5018.07,-931.79 -9978.13,-1453.59 -15101.23,-1737.02 -6246.14,-345.58 -12555.74,-313.49 -18809.73,-12.49 -8264.55,397.77 -17817.33,1349.71 -25924.44,2976.9 -2036.98,408.85 -5125.63,1100.25 -7097.52,1911.55 -108.34,44.58 -327.85,155.58 -426.85,175.09l0 433.59c79.03,-18.35 140.1,-59.85 210.66,-88.74l638.77 -259.46c2670.92,-990.77 5887.31,-1668.03 8711.34,-2231.35 1230.27,-245.41 2910.8,-559.25 4153.82,-730.9 356.08,-49.18 706.47,-93.43 1074.51,-146.79 372.6,-54.02 708.03,-85.81 1083.69,-137.64 910.31,-125.57 2362.96,-302.68 3260.92,-380.09l1655.2 -165.39c164.51,-17.47 364.42,-30.03 543.81,-55.36l4495.14 -367.68c176.84,-26.49 383.8,-23.54 566.6,-32.64l1429.94 -91.2c131.37,-0.92 159.05,-24.9 298.28,-24.38l1154.43 -67.1c95.49,-7.87 202.44,4.08 298.58,-1.09l876.39 -45.55c133.96,0.71 168.81,-17.85 275.99,-23.62 94.91,-5.11 204.09,1.03 300.57,0.91 133.33,-0.18 157.08,-21 275.08,-24.53 106.24,-3.16 217.64,2.99 324.4,1.68l1174.75 -46.87c224.45,0.27 355.47,-23.53 576.25,-23.02l1198.8 -22.88c214.86,0.79 350.39,-23.19 576.22,-23.05 199.78,0.12 399.58,-0.02 599.35,0 231.64,0.03 387.93,-24.21 599.2,-23.13 545.23,2.8 4428.33,-26.79 4844.42,19.78 395.46,44.27 820.18,-41.43 1205.06,16.64l1489.43 31.9c133.32,0.18 157.07,20.99 275.08,24.52l1163.07 35.51c173.24,26.14 678.05,29.2 890.21,31.76 191.71,2.31 582.55,46.38 875.82,46.12l853.01 45.88c131.32,1.12 159.03,24.98 298.18,24.46 383.35,-1.45 764.5,58.22 1153.83,67.71 161.1,3.93 390.98,43.18 552.21,47l1709.79 133.93c554.35,58.36 1140.92,80.74 1672.7,147.95 1282.77,162.12 2509.46,245.63 3826.12,437.12 343.04,49.88 694.16,89.68 1057.73,140.54l3171.08 492.63c1394.39,231.14 2735.73,507.5 4075.05,786.46 1131.07,235.59 2321.21,533.51 3441.54,820.5 73.85,18.92 173.65,51.54 272.02,77.99l0 -1799.84z"/>
  </g>
 </g>
</svg>
