<?xml version="1.0" encoding="utf-8"?>
<!-- Generator: Adobe Illustrator 19.0.0, SVG Export Plug-In . SVG Version: 6.00 Build 0)  -->
<svg version="1.1" id="Layer_1" xmlns="http://www.w3.org/2000/svg" xmlns:xlink="http://www.w3.org/1999/xlink" x="0px" y="0px"
	 viewBox="218 358.4 2035.5 185.6" style="enable-background:new 218 358.4 2035.5 185.6;" xml:space="preserve">
<style type="text/css">
	.st0{fill:#FFFFFF;}
	.st1{fill:#F4F4F4;}
	.st2{fill:#93C01F;}
	.st3{fill:#EDEDED;}
</style>
<polygon class="st0" points="2253.5,358.4 2253.5,536.3 218,536.3 218,358.4 "/>
<path class="st1" d="M2253.5,448.6c-8-1.5-16.1-3.3-24-4.9c-10-1.9-19.6-3.7-29.5-5.5c-147.7-26.3-293.6-41-444.3-49
	c-183.8-9.7-369.4-8.8-553.5-0.4c-243.2,11.2-524.3,38.1-762.8,84c-59.9,11.5-150.8,31-208.8,53.9c-3.2,1.3-9.6,4.4-12.6,4.9V544
	c2.3-0.5,4.1-1.7,6.2-2.5l18.8-7.3c78.6-27.9,173.2-47.1,256.3-62.9c36.2-6.9,85.6-15.8,122.2-20.6c10.5-1.4,20.8-2.6,31.6-4.1
	c11-1.5,20.8-2.4,31.9-3.9c26.8-3.5,69.5-8.5,95.9-10.7l48.7-4.7c4.8-0.5,10.7-0.8,16-1.6L978,415.3c5.2-0.7,11.3-0.7,16.7-0.9
	l42.1-2.6c3.9,0,4.7-0.7,8.8-0.7l34-1.9c2.8-0.2,6,0.1,8.8,0l25.8-1.3c3.9,0,5-0.5,8.1-0.7c2.8-0.1,6,0,8.8,0c3.9,0,4.6-0.6,8.1-0.7
	c3.1-0.1,6.4,0.1,9.5,0l34.6-1.3c6.6,0,10.5-0.7,17-0.6l35.3-0.6c6.3,0,10.3-0.7,17-0.7c5.9,0,11.8,0,17.6,0
	c6.8,0,11.4-0.7,17.6-0.7c16,0.1,130.3-0.8,142.5,0.6c11.6,1.2,24.1-1.2,35.5,0.5l43.8,0.9c3.9,0,4.6,0.6,8.1,0.7l34.2,1
	c5.1,0.7,20,0.8,26.2,0.9c5.6,0.1,17.1,1.3,25.8,1.3l25.1,1.3c3.9,0,4.7,0.7,8.8,0.7c11.3,0,22.5,1.6,34,1.9
	c4.7,0.1,11.5,1.2,16.2,1.3l50.3,3.8c16.3,1.6,33.6,2.3,49.2,4.2c37.7,4.6,73.8,6.9,112.6,12.3c10.1,1.4,20.4,2.5,31.1,4l93.3,13.9
	c41,6.5,80.5,14.3,119.9,22.2c33.3,6.6,68.3,15,101.3,23.1c2.2,0.5,5.1,1.5,8,2.2L2253.5,448.6L2253.5,448.6z"/>
<path class="st2" d="M218,358.4v165.7c2.9-0.6,9.4-3.7,12.6-4.9c58-22.9,148.9-42.4,208.9-53.9c238.6-45.9,519.7-72.8,762.9-84
	c184.1-8.5,369.7-9.4,553.6,0.4c150.8,8,296.7,22.7,444.4,49c9.9,1.8,19.6,3.6,29.5,5.5c7.8,1.5,15.8,3.3,23.6,4.8v-82.5L218,358.4
	L218,358.4z"/>
<path class="st3" d="M2253.5,440.9c-8-1.5-16.1-3.3-24-4.9c-10-1.9-19.6-3.7-29.5-5.5c-147.7-26.3-293.6-41-444.3-49
	c-183.8-9.7-369.4-8.8-553.5-0.4c-243.2,11.2-524.3,38.1-762.8,84c-59.9,11.5-150.8,31-208.8,53.9c-3.2,1.3-9.6,4.4-12.6,4.9v12.2
	c2.3-0.5,4.1-1.7,6.2-2.5l18.8-7.3c78.6-27.9,173.2-47.1,256.3-62.9c36.2-6.9,85.6-15.8,122.2-20.6c10.5-1.4,20.8-2.6,31.6-4.1
	c11-1.5,20.8-2.4,31.9-3.9c26.8-3.5,69.5-8.5,95.9-10.7l48.7-4.7c4.8-0.5,10.7-0.8,16-1.6L978,407.6c5.2-0.7,11.3-0.7,16.7-0.9
	l42.1-2.6c3.9,0,4.7-0.7,8.8-0.7l34-1.9c2.8-0.2,6,0.1,8.8,0l25.8-1.3c3.9,0,5-0.5,8.1-0.7c2.8-0.1,6,0,8.8,0c3.9,0,4.6-0.6,8.1-0.7
	c3.1-0.1,6.4,0.1,9.5,0l34.6-1.3c6.6,0,10.5-0.7,17-0.6l35.3-0.6c6.3,0,10.3-0.7,17-0.7c5.9,0,11.8,0,17.6,0
	c6.8,0,11.4-0.7,17.6-0.7c16,0.1,130.3-0.8,142.5,0.6c11.6,1.2,24.1-1.2,35.5,0.5l43.8,0.9c3.9,0,4.6,0.6,8.1,0.7l34.2,1
	c5.1,0.7,20,0.8,26.2,0.9c5.6,0.1,17.1,1.3,25.8,1.3l25.1,1.3c3.9,0,4.7,0.7,8.8,0.7c11.3,0,22.5,1.6,34,1.9
	c4.7,0.1,11.5,1.2,16.2,1.3l50.3,3.8c16.3,1.6,33.6,2.3,49.2,4.2c37.7,4.6,73.8,6.9,112.6,12.3c10.1,1.4,20.4,2.5,31.1,4l93.3,13.9
	c41,6.5,80.5,14.3,119.9,22.2c33.3,6.6,68.3,15,101.3,23.1c2.2,0.5,5.1,1.5,8,2.2L2253.5,440.9L2253.5,440.9z"/>
</svg>
