<?xml version="1.0" encoding="UTF-8"?>
<!DOCTYPE svg PUBLIC "-//W3C//DTD SVG 1.1//EN" "http://www.w3.org/Graphics/SVG/1.1/DTD/svg11.dtd">
<!-- Creator: CorelDRAW 2019 (64 Bit) -->
<svg xmlns="http://www.w3.org/2000/svg" xml:space="preserve" width="648.267mm" height="120.544mm" version="1.1" style="shape-rendering:geometricPrecision; text-rendering:geometricPrecision; image-rendering:optimizeQuality; fill-rule:evenodd; clip-rule:evenodd"
viewBox="0 0 55323.13 10287.19"
 xmlns:xlink="http://www.w3.org/1999/xlink">
 <defs>
  <style type="text/css">
   <![CDATA[
    .fil1 {fill:#93C01F}
    .fil2 {fill:#E6E7E7}
    .fil0 {fill:white}
   ]]>
  </style>
 </defs>
 <g id="Camada_x0020_1">
  <metadata id="CorelCorpID_0Corel-Layer"/>
  <g id="_1882309756960">
   <polygon class="fil0" points="55323.13,10287.19 -0,10287.19 -0,0 55323.13,0 "/>
   <path class="fil1" d="M-0 8068.87l0 2218.32 55323.13 0 0 -9247.53c-454.42,318.98 -926.34,629.54 -1426.53,937.28 -5330.09,3279.38 -11504.19,5295.08 -18055.32,6538.25 -5844.37,1109.05 -11985.85,1598.91 -18128.23,1524.16 -5259.35,-64 -10556.15,-555.1 -15699.6,-1549.94 -337.43,-65.26 -678.44,-134.32 -1013.8,-205.29 -308.68,-65.33 -695.61,-175.69 -999.63,-215.27z"/>
   <path class="fil2" d="M-0 8068.87c304.02,39.58 690.95,149.94 999.63,215.27 335.36,70.97 676.37,140.03 1013.8,205.29 5143.45,994.83 10440.25,1485.93 15699.6,1549.94 6142.39,74.75 12283.86,-415.11 18128.23,-1524.16 6551.13,-1243.17 12725.23,-3258.87 18055.32,-6538.25 500.19,-307.74 972.12,-618.31 1426.53,-937.28l0 -963.22c-36.15,26.63 -72.92,53.75 -110.41,81.47l-2057.09 1342.81c-131.54,79.4 -252.47,151.06 -381.83,228.94l-788.72 453.17c-859.52,476.96 -1569.51,815.37 -2449.66,1255.65 -1337.6,669.12 -3949.24,1700.36 -5285.86,2145.17 -773.09,257.28 -1555.39,530.04 -2340.46,754.14 -1422.13,405.95 -2428.23,687.49 -3917.92,1049.72 -1974.71,480.16 -4171.38,898.06 -6218.1,1213.07 -1522.86,234.38 -2851.14,389.36 -4385.46,561.9l-1111.72 109.85c-469.08,67.29 -1269.01,75.8 -1716.38,136.35 -174.68,23.64 -398.7,14.58 -590.44,40.71l-2041.42 116.7c-118.96,-0.76 -201.56,2.45 -290.73,14.67l-1196.73 45.2c-178.37,14.76 -424.95,1.35 -610.21,0.6 -130.3,-0.54 -166.15,20.19 -283.75,21.64l-3400.91 -0.8c-222.45,0.27 -378.58,-20.38 -610.79,-20.37 -813.88,0.03 -1604.25,-57.08 -2403.12,-80.76l-1151.24 -70.33c-200.09,-30.24 -373.99,-13.06 -575.67,-35.13l-1146.26 -95.67c-514.51,-54.33 -1217.96,-85.18 -1718.88,-154.2 -374.45,-51.6 -723.63,-70.93 -1099.43,-122.14 -1125.26,-153.34 -2134.82,-265.96 -3268.99,-456.8 -720.64,-121.25 -1413.53,-230.19 -2113.03,-370.81l-2057.91 -425.94 0 253.62z"/>
  </g>
 </g>
</svg>
