<?xml version="1.0" encoding="utf-8"?>
<!-- Generator: Adobe Illustrator 19.0.0, SVG Export Plug-In . SVG Version: 6.00 Build 0)  -->
<svg version="1.1" id="Layer_1" xmlns="http://www.w3.org/2000/svg" xmlns:xlink="http://www.w3.org/1999/xlink" x="0px" y="0px"
	 viewBox="119 280.3 1837.6 341.7" style="enable-background:new 119 280.3 1837.6 341.7;" xml:space="preserve">
<style type="text/css">
	.st0{fill:#FFFFFF;}
	.st1{fill:#F4F4F4;}
	.st2{fill:#EDEDED;}
	.st3{fill:#93C01F;}
</style>
<polygon class="st0" points="1956.6,622 119,622 119,284.3 1956.6,284.3 "/>
<path class="st1" d="M119,542.7c10.1,1.3,23,4.9,33.2,7.1c11.1,2.3,22.5,4.6,33.7,6.7c170.8,32.7,346.8,48.8,521.5,50.9
	c204,2.5,408-13.6,602.1-50c217.6-40.8,422.7-107,599.7-214.7c16.6-10.1,32.3-20.3,47.4-30.8v-31.6c-1.2,0.9-2.4,1.8-3.7,2.7
	l-68.3,44.1c-4.4,2.6-8.4,5-12.7,7.5l-26.2,14.9c-28.5,15.7-52.1,26.8-81.4,41.2c-44.4,22-131.2,55.8-175.6,70.4
	c-25.7,8.4-51.7,17.4-77.7,24.8c-47.2,13.3-80.7,22.6-130.1,34.5c-65.6,15.8-138.6,29.5-206.5,39.8c-50.6,7.7-94.7,12.8-145.7,18.4
	l-36.9,3.6c-15.6,2.2-42.2,2.5-57,4.5c-5.8,0.8-13.2,0.5-19.6,1.3l-67.8,3.8c-4,0-6.7,0.1-9.7,0.5l-39.8,1.5c-5.9,0.5-14.1,0-20.3,0
	c-4.3,0-5.5,0.7-9.4,0.7l-113,0c-7.4,0-12.6-0.7-20.3-0.7c-27,0-53.3-1.9-79.8-2.7l-38.2-2.3c-6.6-1-12.4-0.4-19.1-1.2l-38.1-3.1
	c-17.1-1.8-40.5-2.8-57.1-5.1c-12.4-1.7-24-2.3-36.5-4c-37.4-5-70.9-8.7-108.6-15c-23.9-4-47-7.6-70.2-12.2l-68.4-14L119,542.7
	L119,542.7z"/>
<path class="st2" d="M119,554.1c10.1,1.3,23,4.9,33.2,7.1c11.1,2.3,22.5,4.6,33.7,6.7c170.8,32.7,346.8,48.8,521.5,50.9
	c204,2.5,408-13.6,602.1-50c217.6-40.8,422.7-107,599.7-214.7c16.6-10.1,32.3-20.3,47.4-30.8v-31.6c-1.2,0.9-2.4,1.8-3.7,2.7
	l-68.3,44.1c-4.4,2.6-8.4,5-12.7,7.5l-26.2,14.9c-28.5,15.7-52.1,26.8-81.4,41.2c-44.4,22-131.2,55.8-175.6,70.4
	c-25.7,8.4-51.7,17.4-77.7,24.8c-47.2,13.3-80.7,22.6-130.1,34.5c-65.6,15.8-138.6,29.5-206.5,39.8c-50.6,7.7-94.7,12.8-145.7,18.4
	l-36.9,3.6c-15.6,2.2-42.2,2.5-57,4.5c-5.8,0.8-13.2,0.5-19.6,1.3l-67.8,3.8c-4,0-6.7,0.1-9.7,0.5l-39.8,1.5c-5.9,0.5-14.1,0-20.3,0
	c-4.3,0-5.5,0.7-9.4,0.7l-113,0c-7.4,0-12.6-0.7-20.3-0.7c-27,0-53.3-1.9-79.8-2.7l-38.2-2.3c-6.6-1-12.4-0.4-19.1-1.2l-38.1-3.1
	c-17.1-1.8-40.5-2.8-57.1-5.1c-12.4-1.7-24-2.3-36.5-4c-37.4-5-70.9-8.7-108.6-15c-23.9-4-47-7.6-70.2-12.2l-68.4-14L119,554.1
	L119,554.1z"/>
<path class="st3" d="M119,549.2V622h1837.6V318.4c-15.1,10.5-30.8,20.7-47.4,30.8c-177,107.7-382.1,173.8-599.7,214.7
	c-194.1,36.4-398.1,52.5-602.1,50c-174.7-2.1-350.6-18.2-521.5-50.9c-11.2-2.1-22.5-4.4-33.7-6.7C142,554.1,129.1,550.5,119,549.2
	L119,549.2z"/>
</svg>
