<?xml version="1.0" encoding="UTF-8"?>
<!DOCTYPE svg PUBLIC "-//W3C//DTD SVG 1.1//EN" "http://www.w3.org/Graphics/SVG/1.1/DTD/svg11.dtd">
<!-- Creator: CorelDRAW 2019 (64 Bit) -->
<svg xmlns="http://www.w3.org/2000/svg" xml:space="preserve" width="38.6634mm" height="19.2254mm" version="1.1" style="shape-rendering:geometricPrecision; text-rendering:geometricPrecision; image-rendering:optimizeQuality; fill-rule:evenodd; clip-rule:evenodd"
viewBox="0 0 11892.65 5913.63"
 xmlns:xlink="http://www.w3.org/1999/xlink">
 <defs>
  <style type="text/css">
   <![CDATA[
    .fil1 {fill:#21BF7F;fill-rule:nonzero}
    .fil0 {fill:white;fill-rule:nonzero}
   ]]>
  </style>
 </defs>
 <g id="Camada_x0020_1">
  <metadata id="CorelCorpID_0Corel-Layer"/>
  <g id="_2845306078832">
   <path class="fil0" d="M11124.37 5913.63l-10751.6 0c-270.84,0 -451.09,-279.97 -338.88,-526.51l381.42 -837.61c60.44,-132.91 192.83,-218.12 338.78,-218.12l10765.9 0c272.99,0 453.12,284.31 336.6,531.18l-395.51 837.7c-61.52,130.24 -192.62,213.35 -336.72,213.35z"/>
   <path class="fil0" d="M1253.76 497.26c-66.41,181.97 -125.68,343.86 -186.56,510.42l373.39 0c-61.52,-167.98 -120.67,-329.43 -186.83,-510.42zm47.25 2017.33c-66.41,181.97 -125.65,343.86 -186.53,510.51l373.39 0c-61.55,-168.07 -120.67,-329.53 -186.86,-510.51zm-720.08 1047.11c72.16,-177.21 145.49,-353.98 216.15,-531.83 110.8,-278.74 197.17,-495.44 304.49,-775.6 18.46,-48.42 44.05,-125.13 117.29,-125.13 74.35,0 148.88,1.2 226.57,1.2 194.15,480.28 387.29,958.13 584.34,1445.66 -108.49,0 -208.43,1.85 -308.15,-1.81 -16.52,-0.68 -39.4,-22.58 -47,-40.05 -26.58,-61.64 -44.6,-126.98 -72.93,-187.72 -9.1,-19.75 -39.59,-41.34 -60.75,-41.77 -161.15,-3.48 -322.51,-3.26 -483.75,-0.12 -19.19,0.34 -47,21.04 -55.24,39.28 -27.56,61.09 -44.91,126.85 -72.9,187.72 -9.14,19.75 -38.42,41.56 -59.49,42.66 -96.03,4.55 -192.37,1.94 -288.62,1.94l0 -14.43zm3732.54 -1523.98l295.81 0 0 274.77 -295.81 0 0 -274.77zm298.31 1533.27l-297.97 0 0 -1108.63 297.97 0 0 1108.63zm2040.03 -266.32l0 265.08c-3.48,0.65 -6.86,1.94 -10.3,1.94 -75.42,0 -150.75,1.2 -226.14,-0.65 -73.79,-1.85 -144.32,-18.89 -207.6,-58.47 -97.23,-60.78 -145.95,-152.35 -158.66,-263.05 -6.61,-58.04 -4.98,-117.07 -5.29,-175.67 -0.68,-115.01 -0.22,-229.8 -0.22,-344.81l0 -23.78 -199.35 0c0,-22.45 -0.77,-43.28 0.43,-63.92 0.22,-5.11 5.88,-10.4 10,-14.76 139.31,-147.98 278.77,-296 418.51,-443.49 4.8,-5.08 13.47,-8.12 20.64,-8.77 14.43,-1.41 29.19,-0.43 45.77,-0.43l0 286.89 304.4 0 0 243.4 -299.94 0 0 21.47c0,133.59 -0.34,266.93 0.22,400.4 0.12,22.15 1.29,44.82 6.61,65.98 17.81,70.62 72.5,109.81 154.97,112.18 41.34,1.32 82.8,0.46 124.15,0.46 6.71,0.09 13.35,0 21.81,0zm-1822.5 -95.82l291.35 0c1.97,11.84 3.17,23.44 5.88,34.64 10.18,41.56 34.6,72.59 73.36,89.94 63.58,28.76 129.13,31.47 193.91,4.77 18.21,-7.38 35.8,-20.27 48.94,-34.94 37.65,-41.43 28.33,-98.83 -18.89,-128.7 -37.34,-23.53 -80.1,-30.91 -122.18,-40.23 -77.48,-17.16 -155.52,-32.57 -232.11,-52.84 -49.06,-13.04 -93.45,-38.76 -131.53,-73.27 -71.18,-64.13 -94.19,-147.43 -88.65,-239.43 9.1,-150.84 94.06,-247.43 230.05,-299.5 139.77,-53.71 282.99,-54.69 423.4,-1.51 138.02,52.29 219.38,152.44 236.54,301.32 1.2,10.3 0.22,20.95 0.22,32.67l-283.29 0c-1.32,-7.91 -2.83,-15.72 -4.03,-23.65 -7.26,-45.59 -33.4,-76.41 -76.07,-91.91 -54.47,-19.87 -110.03,-20.95 -165.27,-3.14 -25.16,8.12 -46.54,22.55 -60.32,46.45 -24.21,41.99 -14.33,90.06 28.98,111.1 35.5,17.35 74.78,28.21 113.29,37.43 74.87,17.9 150.84,30.91 225.59,49.15 49.92,12.12 96.58,33.93 137.56,65.73 86.06,66.62 111.44,158.75 104.31,261.61 -11.29,160.63 -101.78,262.29 -249.24,314.05 -145.06,51 -292.34,52.63 -436.2,-4.55 -135.34,-53.74 -218.55,-152.47 -241.03,-298.64 -2.71,-18.12 -3.01,-36.45 -4.55,-56.54zm-1668.18 0l291.35 0c1.85,11.29 2.95,22.92 5.66,33.96 10.74,44.51 37.77,76.28 79.54,93.66 59.89,24.85 121.53,27.35 182.19,4.34 19.53,-7.38 38.51,-20.61 52.94,-35.71 39.83,-41.65 30.73,-100.89 -18.21,-131.19 -37.43,-23.22 -79.97,-31.56 -122.42,-39.59 -84.1,-15.75 -169.27,-27.13 -249.46,-59.03 -79.42,-31.59 -146.69,-77.91 -179.05,-160.9 -53.92,-138.91 -20.39,-314.92 135.77,-409.96 102.43,-62.41 215.07,-79.42 332.57,-71.82 94.74,5.97 183.73,30.57 260.75,88.22 92.8,69.42 136.63,164.07 140.11,280.59l-284.52 0c-0.55,-1.72 -1.41,-3.91 -1.63,-6.18 -7.81,-67.06 -39.83,-102.52 -106.46,-117.41 -45.34,-10.09 -90.59,-9.87 -135.19,4.34 -24.64,8.03 -45.92,21.29 -60.35,43.65 -27.44,42.42 -17.69,93.54 27.56,115.44 35.07,17.04 73.7,27.68 111.78,36.7 74.87,17.78 150.72,31.01 225.5,49.03 50.01,12.12 96.68,33.84 137.8,65.52 86.16,66.41 111.87,158.53 104.71,261.39 -10.95,160.6 -101.23,262.5 -248.6,314.48 -146.38,51.65 -294.92,53.06 -439.8,-5.32 -134.11,-54.04 -216.49,-153.34 -238.29,-298.74 -2.61,-17.59 -2.83,-35.5 -4.24,-55.46zm-1078.95 0.31l291.57 0c1.94,11.97 3.14,23.56 5.97,34.73 10.86,44.6 38.42,75.98 80.19,93.11 58.69,23.87 119.25,27.04 178.84,4.46 20.49,-7.81 40.91,-21.38 56.07,-37.22 38.97,-41.25 29.53,-99.85 -18.42,-129.9 -37.43,-23.44 -80.19,-30.7 -122.3,-40.05 -77.48,-17.26 -155.4,-32.67 -232.11,-53.06 -48.38,-12.8 -92.25,-38.2 -129.99,-72.04 -71.95,-64.47 -95.29,-148.2 -89.54,-240.88 9.14,-150.08 93.54,-246.41 228.76,-298.52 141.71,-54.69 286.68,-55.43 428.51,-0.52 136.3,52.72 216.05,153.09 232.76,300.34 1.08,10.21 0.12,20.85 0.12,32.36l-283.33 0c-2.06,-12.15 -3.17,-23.99 -6.09,-35.16 -10.52,-40.05 -35.93,-67.06 -74.53,-80.84 -53.95,-19.32 -108.95,-21.07 -163.42,-3.26 -39.4,13.01 -67.61,37.74 -72.72,82.13 -4,34.85 9.32,62.84 40.26,76.19 36.45,15.84 74.99,27.87 113.59,37.1 74.9,17.81 150.84,30.61 225.5,49.15 56.01,13.96 108.09,38.73 151.83,77.67 74.65,66.32 96.34,153.34 89.73,248.29 -11.84,169.39 -110.15,271.61 -265.52,321.07 -140.32,44.82 -282.46,45.15 -420.6,-10.3 -135.1,-54.26 -218.21,-153 -240.57,-299.04 -2.71,-17.59 -2.92,-35.59 -4.55,-55.8zm8488.41 -2205.39c1.29,-173.73 -132.73,-308.39 -305.13,-306.86 -171.36,1.41 -300.15,130.85 -301.14,302.64 -0.98,174.9 130.45,307.19 304.4,306.21 171.55,-1.08 300.46,-129.99 301.87,-302zm44.26 -457.49c-0.43,-96.68 54.26,-102.12 128.7,-102.12 37.99,0 117.1,0.68 117.1,0.68l0 1108.88 -227.25 0c-9.1,-24.3 -19.62,-52.41 -33.31,-88.99 -160.16,125.65 -337.46,153.77 -526.17,104.06 -127.28,-33.62 -230.05,-107.32 -307.41,-215.16 -161.36,-225.28 -139.86,-557.33 47.65,-761.67 151.46,-164.72 486.03,-276.47 800.7,-45.68zm-1458.31 -252.81l0 -184.16 0 -88 294.61 0 0 272.16 -294.61 0zm-1976.69 -259.73c-43.74,-21.07 -99.29,-32.14 -156.17,-33.65l0 -0.09 -0.31 0.09 -0.46 -0.09 0 0.09c-56.97,1.51 -112.4,12.58 -156.13,33.65 -96.68,46.75 -150.72,181.42 -226.02,280.83 162.96,32.97 296.98,13.32 382.62,-124.36 85.48,137.68 219.5,157.33 382.49,124.36 -75.3,-99.41 -129.34,-234.08 -226.02,-280.83zm1979.22 414.94l294.4 0 0 1104.11 -294.4 0 0 -1104.11zm-2838.61 0.46c-167.09,283.85 -325.74,553.52 -490.15,832.72l464.99 0 0 272.16 -934.16 0c165.39,-280.83 324.11,-550.59 488.92,-830.57l-421.31 0 0 -274.31 891.72 0zm1522.84 -0.86c111.13,-3.35 235.92,-46.32 251.21,135.53 92.89,-87.45 186.53,-139.86 300.15,-157.43 252.93,-39.06 466.07,110.33 480.92,364.9 14.76,251.77 3.26,504.92 3.26,762.53l-297.01 0 0 -75.21c-0.31,-182.93 2.4,-366.01 -1.51,-548.96 -3.81,-173.27 -61.09,-242.72 -189.48,-243.37 -143.65,-0.77 -244.26,97.45 -248.04,252.38 -4.34,178.07 -1.54,356.35 -1.85,534.54 -0.12,25.93 -0.12,51.77 -0.12,81.48l-297.54 0 0 -1106.39zm-525.86 552.75c-0.43,-175.91 -126.64,-305.26 -297.23,-304.49 -171.02,0.74 -296.12,130.42 -295.69,306.33 0.34,176.74 125.13,303.93 297.44,303.29 172.75,-0.77 295.91,-127.96 295.48,-305.13zm-301.44 589.11c-347.8,-2.06 -598.89,-253.92 -596.18,-597.9 2.61,-334.45 261.52,-579.69 609.28,-577.08 343.12,2.4 595.32,254.78 593.04,593.78 -2.18,334.88 -261.21,583.14 -606.15,581.2zm-2115.27 -586.37c1.32,-173.73 -132.6,-308.39 -305.01,-306.86 -171.45,1.41 -300.27,130.85 -301.14,302.64 -1.08,174.9 130.42,307.19 304.27,306.21 171.55,-1.08 300.58,-129.99 301.87,-302zm44.39 -457.49c-0.43,-96.68 54.26,-102.12 128.61,-102.12 38.08,0 117.07,0.68 117.07,0.68l0 1108.88 -227.13 0c-9.1,-24.3 -19.62,-52.41 -33.31,-88.99 -160.26,125.65 -337.58,153.77 -526.26,104.06 -127.28,-33.62 -230.05,-107.32 -307.44,-215.16 -161.24,-225.28 -139.86,-557.33 47.77,-761.67 151.37,-164.72 485.91,-276.47 800.7,-45.68zm-1882.72 44.94c73.12,-85.05 155.92,-142.69 262.72,-162.44 232.63,-42.76 433.15,95.17 461.39,331.4 15.93,133.25 11.29,268.99 13.23,403.66 1.85,127.53 0.43,255.12 0.43,388.71l-302.3 0c0,-153.12 1.29,-306.46 -0.55,-459.76 -0.98,-88.89 -2.92,-178.07 -11.81,-266.28 -7.07,-69.36 -42.88,-124.15 -118.3,-136.08 -81.39,-12.92 -163.09,0.52 -199.54,79.76 -30.94,67.36 -47.31,146.17 -50.05,220.61 -6.83,185.11 -2.28,370.65 -2.28,561.98l-294.92 0c0,-96.58 0.09,-192.19 -0.12,-287.88 -0.22,-132.51 1.54,-264.99 -1.85,-397.47 -2.49,-99.51 -53.06,-165.49 -127.28,-177.97 -103.29,-17.13 -190.55,28.42 -224.3,125.99 -16.15,46.66 -23.22,98.52 -23.87,148.11 -2.58,194.77 -1.08,389.57 -1.08,589.87l-298.86 0 0 -1108.57c55.24,0 111.9,-1.08 168.44,0.22 82.99,2.28 85.82,71.09 96.77,123.62 256.75,-207.6 468.04,-202.7 654.13,22.55zm-2528.73 953.17c72.16,-177.21 145.52,-353.98 216.18,-531.83 110.76,-278.77 197.14,-495.47 304.46,-775.66 18.46,-48.38 44.08,-125.1 117.19,-125.1 74.47,0 149,1.2 226.7,1.2 194.03,480.28 387.29,958.16 584.34,1445.69 -108.52,0 -208.46,1.85 -308.18,-1.85 -16.61,-0.65 -39.37,-22.55 -46.97,-40.02 -26.61,-61.64 -44.6,-127.07 -72.93,-187.72 -9.1,-19.78 -39.62,-41.37 -60.78,-41.89 -161.12,-3.38 -322.48,-3.17 -483.72,-0.12 -19.22,0.43 -47,21.16 -55.24,39.4 -27.56,61.09 -44.94,126.85 -72.93,187.6 -9.1,19.87 -38.42,41.68 -59.46,42.76 -96.03,4.55 -192.4,1.97 -288.65,1.97l0 -14.43z"/>
   <path class="fil1" d="M577.08 5119.05c0,-204.52 149.18,-354.16 351.37,-354.16 161.79,0 291.35,100.71 327.16,254.69l-113.5 0c-32.79,-91.17 -112.43,-146.17 -213.66,-146.17 -136.85,0 -237.34,103.07 -237.34,245.64 0,142.6 100.49,245.15 237.34,245.15 104.49,0 185.11,-58.94 215.93,-155.95l113.84 0c-35.5,160.81 -165.18,264.56 -329.77,264.56 -202.18,0 -351.37,-149.86 -351.37,-353.76zm10134.87 26.61l318.79 0c-19.41,-79.97 -79.85,-127.37 -160.04,-127.37 -81.6,0 -140.97,49.15 -158.75,127.37zm425.37 88.13l-428.08 0c13.56,85.39 75.08,137.93 161.46,137.93 62.93,0 113.93,-29.19 141.83,-77.27l114.03 0c-41.86,111.32 -138.11,178.93 -255.86,178.93 -154.2,0 -270.96,-119.04 -270.96,-276.37 0,-157.8 116.42,-276.62 270.96,-276.62 161.24,0 268.68,124.27 268.68,277.82 0,11.93 -0.89,23.75 -2.06,35.59zm-738.84 -36.82c0,-98.77 -73.36,-173.08 -172.87,-173.08 -99.38,0 -172.1,73.67 -172.1,173.08 0,99.29 72.72,172.96 172.1,172.96 99.51,0 172.87,-75.08 172.87,-172.96zm100.8 -452.72l0 716.39 -82.04 0 -13.87 -59.8c-47.52,45.71 -112.21,72.84 -186.22,72.84 -159.52,0 -274.1,-118.73 -274.1,-276.71 0,-158.87 114.58,-276.62 274.1,-276.62 67.61,0 127.62,22.7 173.73,61.43l0 -237.52 108.4 0zm-881.04 -19.81l115.22 0 -92.22 148.45 -83.57 0 60.57 -148.45zm-5.54 748.84c-144.63,0 -239.71,-93.54 -239.71,-235.46l0 -304.49 108.4 0 0 289.51c0,91.48 49.92,147.03 131.31,147.03 82.25,0 131.19,-56.54 131.19,-147.03l0 -289.51 108.4 0 0 304.49c0,141.92 -93.97,235.46 -239.46,235.46l-0.12 0zm-476 -276.65c0,-99.38 -72.47,-173.08 -171.98,-173.08 -99.41,0 -172.75,74.44 -172.75,173.08 0,98.65 73.33,172.96 172.75,172.96 99.51,0 171.98,-73.55 171.98,-172.96zm108.73 -263.67l0 527.37 -87.45 0 -10.43 -64.13c-47.86,48.29 -114.49,77.14 -191.29,77.14 -157.03,0 -274.56,-118.7 -274.56,-276.71 0,-158.53 117.53,-276.28 274.56,-276.28 77.7,0 144.97,29.41 192.83,78.59l12.58 -65.98 83.76 0zm-1141.73 312.33l113.96 0c0,76.38 62.72,118.7 142.91,118.7 72.68,0 134.88,-38.3 134.88,-101.14 0,-68.04 -73.15,-85.17 -155.52,-104.49 -104.58,-25.41 -224.73,-54.38 -224.73,-195.45 0,-123.25 93.54,-196.06 239.28,-196.06 148.35,0 235.92,80.71 235.92,209.63l-110.7 0c0,-68.04 -56.54,-105.04 -127.84,-105.04 -68.13,0 -124.33,31.16 -124.33,86.83 0,63.15 70.19,80.28 151.37,99.51 106.34,26.45 231.46,56.97 231.46,203.78 0,136.82 -110.49,209.53 -248.72,209.53 -153.43,0 -257.95,-86.16 -257.95,-225.81zm-496.24 -324.05c111.13,0 186.22,84.53 186.22,204l0 335.4 -108.4 0 0 -308.82c0,-84.74 -37,-133.34 -102.68,-133.34 -69.89,0 -123.59,63.89 -123.59,153.74l0 288.43 -105.9 0 0 -308.82c0,-84.74 -36.67,-133.34 -102.64,-133.34 -70.22,0 -124.36,63.89 -124.36,153.74l0 288.43 -108.3 0 0 -527.37 76.84 0 18.67 68.04c39.59,-49.49 99.72,-80.07 163.86,-80.07 71.48,0 128.14,35.16 158.1,92.34 38.39,-56.75 102.52,-92.34 172.1,-92.34l0.09 0zm-1115.58 224.42l318.79 0c-19.41,-79.97 -79.85,-127.37 -160.16,-127.37 -81.57,0 -140.85,49.15 -158.63,127.37zm425.25 88.13l-427.96 0c13.56,85.39 75.08,137.93 161.33,137.93 62.96,0 114.06,-29.19 141.83,-77.27l114.15 0c-41.99,111.32 -138.23,178.93 -255.98,178.93 -154.07,0 -270.93,-119.04 -270.93,-276.37 0,-157.8 116.52,-276.62 270.93,-276.62 161.36,0 268.81,124.27 268.81,277.82 0,11.93 -0.86,23.75 -2.18,35.59zm-959.76 -37.16c0,-99.38 -72.59,-173.08 -172.1,-173.08 -99.29,0 -172.62,74.44 -172.62,173.08 0,98.65 73.33,172.96 172.62,172.96 99.51,0 172.1,-73.55 172.1,-172.96zm108.61 -263.67l0 527.37 -87.45 0 -10.43 -64.13c-47.83,48.29 -114.49,77.14 -191.29,77.14 -157.03,0 -274.5,-118.7 -274.5,-276.71 0,-158.53 117.47,-276.28 274.5,-276.28 77.7,0 145.06,29.41 192.92,78.59l12.58 -65.98 83.67 0zm-770.59 0.31l108.4 0 0 527.25 -108.4 0 0 -527.25zm-1.85 -193.6l112.09 0 0 111.87 -112.09 0 0 -111.87zm-65.95 190.68l0 102.31 -57.21 0c-89.73,0 -134.54,51.12 -134.54,146.72l0 281.26 -108.4 0 0 -527.37 73.36 0 18.42 71.95c37.65,-50.05 89.42,-74.87 161.36,-74.87l47 0zm-509.1 266.62c0,-101.04 -71.7,-173.08 -171.55,-173.08 -99.85,0 -171.67,72.04 -171.67,173.08 0,100.92 71.82,172.96 171.67,172.96 99.85,0 171.55,-72.04 171.55,-172.96zm-453.58 0c0,-159.52 120.67,-276.62 282.03,-276.62 160.93,0 281.91,117.75 281.91,276.62 0,158.41 -120.98,276.37 -281.91,276.37 -161.36,0 -282.03,-117.96 -282.03,-276.37zm-38.85 165.18l0 98.43 -80.53 0c-115.44,0 -186.74,-71.3 -186.74,-187.82l0 -246.66 -94.4 0 0 -20.95 183.39 -194.98 18.55 0 0 123.16 156.9 0 0 92.77 -156.04 0 0 238.17c0,62.84 34.94,97.88 98.77,97.88l60.1 0zm-538.51 -617.93l108.4 0 0 716.42 -108.4 0 0 -716.42zm-367.76 729.09c-144.63,0 -239.68,-93.54 -239.68,-235.46l0 -304.58 108.27 0 0 289.51c0,91.48 50.05,147.12 131.4,147.12 82.16,0 131.19,-56.63 131.19,-147.12l0 -289.51 108.43 0 0 304.58c0,141.92 -93.97,235.46 -239.49,235.46l-0.12 0zm-761.48 -180.13l105.9 0c2.71,55.77 49.58,84.74 113.07,84.74 58.38,0 103.07,-24.52 103.07,-68.69 0,-49.92 -56.63,-61.43 -121.19,-72.38 -87.79,-14.86 -191.42,-34.94 -191.42,-157.12 0,-94.65 81.82,-159.43 204.43,-159.43 122.73,0 202.06,66.75 204.21,169.08l-102.74 0c-2.06,-50.26 -40.26,-77.18 -103.97,-77.18 -59.89,0 -97.02,25.5 -97.02,64.04 0,46.54 53.83,55.77 117.32,66.07 89.2,15.1 197.48,32.24 197.48,162.23 0,102.43 -85.39,168.75 -213.99,168.75 -128.02,0 -212.46,-70.87 -215.16,-180.13zm-294.8 -371.85c123.16,0 200.31,91.91 200.31,221.68l0 317.62 -108.4 0 0 -295.6c0,-95.82 -41.8,-146.48 -121.01,-146.48 -82.9,0 -141.71,66.5 -141.71,159.61l0 282.46 -108.4 0 0 -527.37 75.61 0 20.95 73.58c40.05,-53.18 105.17,-85.63 182.65,-85.63l0 0.12zm-488.21 275.64c0,-101.04 -71.73,-173.08 -171.55,-173.08 -99.85,0 -171.67,72.04 -171.67,173.08 0,100.92 71.82,172.96 171.67,172.96 99.81,0 171.55,-72.04 171.55,-172.96zm-453.58 0c0,-159.52 120.67,-276.62 282.03,-276.62 160.9,0 281.91,117.75 281.91,276.62 0,158.41 -121.01,276.37 -281.91,276.37 -161.36,0 -282.03,-117.96 -282.03,-276.37z"/>
  </g>
 </g>
</svg>
