<svg xmlns="http://www.w3.org/2000/svg" viewBox="0 0 7.21 9.85"><defs><style>.cls-1{fill:#93c01f;fill-rule:evenodd;}</style></defs><title>Ativo 7</title><g id="Camada_2" data-name="Camada 2"><g id="Layer_2" data-name="Layer 2"><path class="cls-1" d="M3.61,9.85a24.26,24.26,0,0,1-2.25-3,19.13,19.13,0,0,1-1.08-2A3.44,3.44,0,0,1,1.16,1,3.42,3.42,0,0,1,4.8.23,3.52,3.52,0,0,1,7.16,3.12a3.23,3.23,0,0,1-.31,2A17.86,17.86,0,0,1,4.51,8.73C4.23,9.1,3.93,9.46,3.61,9.85Zm0-8.3A1.82,1.82,0,0,0,1.8,3.39,1.83,1.83,0,0,0,3.6,5.24,1.83,1.83,0,0,0,5.41,3.39,1.81,1.81,0,0,0,3.61,1.55Z"/></g></g></svg>