<svg xmlns="http://www.w3.org/2000/svg" xmlns:xlink="http://www.w3.org/1999/xlink" viewBox="0 0 109.54 132.27"><defs><style>.cls-1{mask:url(#mask);filter:url(#luminosity-noclip-2);}.cls-12,.cls-2,.cls-5,.cls-8{mix-blend-mode:multiply;}.cls-2{fill:url(#radial-gradient);}.cls-3{isolation:isolate;}.cls-4{mask:url(#mask-2);}.cls-5{fill:url(#radial-gradient-2);}.cls-6{fill:#d9d9d9;}.cls-12,.cls-7,.cls-8{fill:#f5ccb8;}.cls-9{fill:#fff;}.cls-10{fill:#eaeaea;}.cls-11{fill:#69c0b8;}.cls-12{opacity:0.8;}.cls-13{fill:#4f3c30;}.cls-14{fill:#42404d;}.cls-15{filter:url(#luminosity-noclip);}</style><filter id="luminosity-noclip" x="0" y="-7884.35" width="109.54" height="32766" filterUnits="userSpaceOnUse" color-interpolation-filters="sRGB"><feFlood flood-color="#fff" result="bg"/><feBlend in="SourceGraphic" in2="bg"/></filter><mask id="mask" x="0" y="-7884.35" width="109.54" height="32766" maskUnits="userSpaceOnUse"><g class="cls-15"/></mask><radialGradient id="radial-gradient" cx="54.77" cy="4958.77" r="54.76" gradientTransform="translate(0 -554.08) scale(1 0.14)" gradientUnits="userSpaceOnUse"><stop offset="0" stop-color="#fff"/><stop offset="0.12" stop-color="#fbfbfb"/><stop offset="0.25" stop-color="#eee"/><stop offset="0.37" stop-color="#dadada"/><stop offset="0.5" stop-color="#bcbcbc"/><stop offset="0.63" stop-color="#979797"/><stop offset="0.76" stop-color="#696969"/><stop offset="0.89" stop-color="#343434"/><stop offset="1"/></radialGradient><filter id="luminosity-noclip-2" x="0" y="117.27" width="109.54" height="14.99" filterUnits="userSpaceOnUse" color-interpolation-filters="sRGB"><feFlood flood-color="#fff" result="bg"/><feBlend in="SourceGraphic" in2="bg"/></filter><mask id="mask-2" x="0" y="117.27" width="109.54" height="14.99" maskUnits="userSpaceOnUse"><g class="cls-1"><ellipse id="shadow" class="cls-2" cx="54.77" cy="124.77" rx="54.77" ry="7.5"/></g></mask><radialGradient id="radial-gradient-2" cx="54.77" cy="4958.77" r="54.76" gradientTransform="translate(0 -554.08) scale(1 0.14)" gradientUnits="userSpaceOnUse"><stop offset="0" stop-color="#a6a6a6"/><stop offset="0.21" stop-color="#aaa"/><stop offset="0.42" stop-color="#b7b7b7"/><stop offset="0.64" stop-color="#cbcbcb"/><stop offset="0.86" stop-color="#e8e8e8"/><stop offset="1" stop-color="#fff"/></radialGradient></defs><title>Ativo 10</title><g class="cls-3"><g id="Camada_2" data-name="Camada 2"><g id="Layer_2" data-name="Layer 2"><g id="pharmacist"><g class="cls-4"><ellipse id="shadow-2" data-name="shadow" class="cls-5" cx="54.77" cy="124.77" rx="54.77" ry="7.5"/></g><rect class="cls-6" x="43.43" y="74.26" width="22.68" height="9.11"/><polygon class="cls-7" points="67.76 77.34 64.67 75.92 64.67 66.12 44.88 66.12 44.88 75.92 41.79 77.26 42.61 105.06 44.88 105.06 44.88 109.32 64.67 109.32 64.67 105.06 66.93 105.06 67.76 77.34"/><polygon class="cls-8" points="44.88 66.12 44.88 70.89 64.67 75.28 64.67 66.12 44.88 66.12"/><path class="cls-9" d="M80.13,125.46c.37-14.61-.44-43.56-12.39-48L67,80.17C65.73,83.81,62.47,89,54.73,89c-8.74,0-12.08-6.76-13.11-10l-.4-1.49c-11.95,4.49-12.3,33.44-11.69,48.05Z"/><path class="cls-10" d="M105.75,125.46,101.22,94a15,15,0,0,0-11.57-12.5L66.14,76.21,55.83,125.46Z"/><path class="cls-10" d="M53.72,125.46,43.41,76.21,19.9,81.45A15,15,0,0,0,8.33,94L3.8,125.46Z"/><polygon class="cls-6" points="39.4 91.89 35.72 96.91 51.97 125.46 53.71 125.46 43.43 74.26 34.35 78.55 34.68 88 39.4 91.89"/><polygon class="cls-6" points="57.58 125.46 73.82 96.91 70.14 91.89 74.87 88 75.19 78.55 66.11 74.26 55.83 125.46 57.58 125.46"/><polygon class="cls-11" points="84.02 110.2 81.71 110.2 81.71 107.9 78.83 107.9 78.83 110.2 76.52 110.2 76.52 113.09 78.83 113.09 78.83 115.39 81.71 115.39 81.71 113.09 84.02 113.09 84.02 110.2"/><rect class="cls-11" x="72.77" y="117.5" width="14.99" height="3"/><path class="cls-7" d="M76.37,38.2,77,29.49C77,18.1,66.15,8.87,54.77,8.87S32.51,18.1,32.51,29.49l.67,8.7a4,4,0,0,0-1.69.85A4.11,4.11,0,0,0,30,42.19v4.28a4.11,4.11,0,0,0,4.09,4.12c0,10.76,12.92,21,20.64,21S75.41,61.35,75.41,50.6a4.13,4.13,0,0,0,4.1-4.12V42.19A4.11,4.11,0,0,0,76.37,38.2Z"/><path class="cls-12" d="M76.37,38.2,77,29.49C77,18.1,66.15,8.87,54.77,8.87h0V38.15c-3,6.39-5,15.66-5,15.66h5V71.54h0c7.72,0,20.63-10.19,20.63-20.94a4.13,4.13,0,0,0,4.1-4.12V42.19A4.11,4.11,0,0,0,76.37,38.2Z"/><path class="cls-13" d="M80.31,9.48a1.3,1.3,0,0,0-1.44-1.13c-5,.58-5.28-.5-14-5.61a18.92,18.92,0,0,0-21.34,1.2C22.19,8.87,30.08,34.59,32.63,41.53a.37.37,0,0,0,.72-.12c.22-4.67,1.38-16.9,7.52-21.22,12.81,8.74,25.91,9.22,33.37,4C76.29,29,76.4,36.63,76.29,40.62a.38.38,0,0,0,.74.12c1.28-4.2,3.36-13,1.39-21A16,16,0,0,0,80.31,9.48Z"/><path class="cls-14" d="M77.64,34.87H73.22a13.12,13.12,0,0,0-6.09-1.2c-4.55,0-7.64.87-9.22,2.57a6,6,0,0,0-6.25,0c-1.59-1.69-4.67-2.56-9.21-2.56a13.09,13.09,0,0,0-6.09,1.2H31.91v3.18l1.46.51a7.41,7.41,0,0,0-.21,1.79c0,3.95,1,9.21,9.29,9.21,7.43,0,9.38-4.57,10.31-9.05a5.26,5.26,0,0,0,.06-1.93,3.6,3.6,0,0,1,2-.43,3.52,3.52,0,0,1,2,.45,5.4,5.4,0,0,0,.07,1.91c.92,4.48,2.87,9.05,10.31,9.05,8.32,0,9.29-5.26,9.29-9.21a7.45,7.45,0,0,0-.22-1.8l1.44-.5ZM51.16,40.18c-1,4.65-2.81,7.75-8.71,7.75-6.73,0-7.66-3.64-7.66-7.58,0-1.25,0-5.05,7.66-5.05,5.28,0,7.36,1.2,8.18,2.2A3.1,3.1,0,0,1,51.16,40.18Zm16,7.75c-5.9,0-7.75-3.1-8.72-7.75A3.07,3.07,0,0,1,59,37.5c.82-1,2.9-2.2,8.18-2.2,7.65,0,7.65,3.8,7.65,5.05C74.78,44.29,73.86,47.93,67.13,47.93Z"/></g></g></g></g></svg>