<svg xmlns="http://www.w3.org/2000/svg" xmlns:xlink="http://www.w3.org/1999/xlink" viewBox="0 0 462.77 307.84"><defs><style>.cls-1{isolation:isolate;}.cls-2{fill:#d7d6d6;opacity:0.3;mix-blend-mode:multiply;}.cls-3{fill:#f2f2f2;}.cls-4{fill:#fff;}.cls-5{fill:url(#linear-gradient);}.cls-6{fill:url(#linear-gradient-2);}.cls-7{fill:url(#linear-gradient-3);}.cls-18,.cls-8{fill:#f4f4f4;}.cls-9{fill:#406529;}.cls-10{fill:url(#linear-gradient-4);}.cls-11{fill:url(#linear-gradient-5);}.cls-12{fill:url(#linear-gradient-6);}.cls-13{fill:url(#linear-gradient-7);}.cls-14{fill:url(#linear-gradient-8);}.cls-15{fill:#dfdfdf;}.cls-16{fill:url(#linear-gradient-9);}.cls-17{fill:url(#linear-gradient-10);}.cls-18{mix-blend-mode:hard-light;}.cls-19{fill:url(#linear-gradient-11);}.cls-20{fill:#93c01f;}.cls-21{fill:url(#linear-gradient-12);}.cls-22{fill:#b2b6c3;}.cls-23{fill:#eda886;}.cls-24{fill:#facba2;}.cls-25{fill:#dadeee;}.cls-26{fill:#1c3b54;}.cls-27{fill:#eda785;}.cls-28{fill:#3b3b40;}.cls-29{fill:#e8744d;}.cls-30{fill:#d5c4bd;}.cls-31{fill:#fae5dd;}.cls-32{fill:#a67860;}.cls-33{fill:#616261;}.cls-34{fill:#dfcdc6;}.cls-35{fill:#da9b7c;}.cls-36{fill:url(#linear-gradient-13);}.cls-37{fill:url(#linear-gradient-14);}.cls-38{fill:#2d2d30;}.cls-39{fill:#2e3234;}.cls-40{fill:#e45353;}.cls-41{fill:#353a3d;}.cls-42{fill:#248b9d;}.cls-43{fill:#28a2b7;}.cls-44{fill:#1b6470;}.cls-45{fill:#1e707e;}.cls-46{fill:url(#linear-gradient-15);}.cls-47{fill:url(#linear-gradient-16);}</style><linearGradient id="linear-gradient" x1="751.75" y1="-10917.87" x2="831.71" y2="-10917.87" gradientTransform="translate(-10416.91 2490.91) rotate(73.11)" gradientUnits="userSpaceOnUse"><stop offset="0" stop-color="#74b62b"/><stop offset="1" stop-color="#659032"/></linearGradient><linearGradient id="linear-gradient-2" x1="742.61" y1="-10966.85" x2="877.96" y2="-10966.85" xlink:href="#linear-gradient"/><linearGradient id="linear-gradient-3" x1="800.65" y1="-10972.7" x2="861.91" y2="-10972.7" xlink:href="#linear-gradient"/><linearGradient id="linear-gradient-4" x1="229.52" y1="68.59" x2="274.42" y2="68.59" gradientTransform="matrix(1, 0, 0, 1, 0, 0)" xlink:href="#linear-gradient"/><linearGradient id="linear-gradient-5" x1="229.52" y1="92.39" x2="270.74" y2="92.39" gradientTransform="matrix(1, 0, 0, 1, 0, 0)" xlink:href="#linear-gradient"/><linearGradient id="linear-gradient-6" x1="229.52" y1="80.49" x2="265.18" y2="80.49" gradientTransform="matrix(1, 0, 0, 1, 0, 0)" xlink:href="#linear-gradient"/><linearGradient id="linear-gradient-7" x1="181.34" y1="114.99" x2="181.34" y2="65.68" gradientUnits="userSpaceOnUse"><stop offset="0" stop-color="#7db2df"/><stop offset="1" stop-color="#fff"/></linearGradient><linearGradient id="linear-gradient-8" x1="145.97" y1="118.94" x2="197.57" y2="118.94" gradientTransform="matrix(1, 0, 0, 1, 0, 0)" xlink:href="#linear-gradient"/><linearGradient id="linear-gradient-9" x1="208.1" y1="118.94" x2="216.71" y2="118.94" gradientTransform="matrix(1, 0, 0, 1, 0, 0)" xlink:href="#linear-gradient"/><linearGradient id="linear-gradient-10" x1="69.32" y1="177.39" x2="462.77" y2="177.39" gradientTransform="matrix(1, 0, 0, 1, 0, 0)" xlink:href="#linear-gradient"/><linearGradient id="linear-gradient-11" x1="288.03" y1="129.95" x2="303.76" y2="129.95" gradientTransform="matrix(1, 0, 0, 1, 0, 0)" xlink:href="#linear-gradient"/><linearGradient id="linear-gradient-12" x1="241.98" y1="130.57" x2="273.76" y2="130.57" gradientTransform="matrix(1, 0, 0, 1, 0, 0)" xlink:href="#linear-gradient"/><linearGradient id="linear-gradient-13" x1="46.26" y1="244.16" x2="44.45" y2="171.47" gradientTransform="matrix(1, 0, 0, 1, 0, 0)" xlink:href="#linear-gradient"/><linearGradient id="linear-gradient-14" x1="37.43" y1="244.38" x2="35.62" y2="171.69" gradientTransform="matrix(1, 0, 0, 1, 0, 0)" xlink:href="#linear-gradient"/><linearGradient id="linear-gradient-15" x1="179.7" y1="41.75" x2="183.63" y2="101.77" gradientTransform="matrix(1, 0, 0, 1, 0, 0)" xlink:href="#linear-gradient"/><linearGradient id="linear-gradient-16" x1="179.7" y1="41.75" x2="183.63" y2="101.77" gradientTransform="translate(114.54 248.14) rotate(-90)" xlink:href="#linear-gradient"/></defs><title>Ativo 9</title><g class="cls-1"><g id="Camada_2" data-name="Camada 2"><g id="Layer_2" data-name="Layer 2"><ellipse class="cls-2" cx="72.99" cy="301.11" rx="72.99" ry="6.72"/><ellipse class="cls-2" cx="182.96" cy="301.11" rx="31.31" ry="5.46"/><ellipse class="cls-2" cx="348.96" cy="301.11" rx="32.63" ry="5.97"/><rect class="cls-3" x="206.01" y="107.61" width="1.38" height="145.06"/><rect class="cls-4" x="206.7" y="89.73" width="14.9" height="3.78"/><rect class="cls-4" x="206.7" y="96.72" width="11.93" height="3.78"/><rect class="cls-4" x="207.4" y="261.26" width="15.64" height="5.04"/><path class="cls-5" d="M263.9,34s36.78,43.62,13.45,71.87-29.76.55-29.76.55-14,2.59,10.23-32.74C269.22,57.06,263.9,34,263.9,34Z"/><path class="cls-6" d="M344.53,0s27.33,40.34-20.25,86.8-44,74.18-44,74.18S231.59,65.75,344.53,0Z"/><path class="cls-7" d="M271.35,143.45c-20,1.8,3.2-52.17,34.39-66.26s57.57-12.9,75.8-27.77C381.54,49.42,369.65,134.58,271.35,143.45Z"/><rect class="cls-3" x="166.94" y="107.61" width="1.38" height="145.06"/><rect class="cls-3" x="265.25" y="107.61" width="1.38" height="145.06"/><rect class="cls-4" x="166.57" y="89.73" width="27.65" height="3.78"/><rect class="cls-4" x="166.57" y="96.72" width="17.68" height="3.78"/><rect class="cls-4" x="266.63" y="89.73" width="17.13" height="3.78"/><rect class="cls-4" x="266.63" y="96.72" width="19.97" height="3.78"/><rect class="cls-4" x="167.63" y="261.26" width="15.64" height="5.04"/><rect class="cls-4" x="266.63" y="261.26" width="15.64" height="5.04"/><path class="cls-8" d="M244.43,207.93c-22.63,0-40.58-15.23-58.16-30.13C173,166.51,159.12,155,143.16,149.26c-48.7-17.39-73.62,14.36-73.84,14.64v-9.66c.26-.33,4.71-6.1,17.56-11.61,11.71-5,31.35-9,58.45.4,17.16,6,31.42,18.06,45.2,29.75,28,23.71,52.12,44.18,94.07,12.11,31.77-24.29,61.71-47.44,91.18-55.9,28.82-8.27,58.86-2.22,87,25.91v8.82c-59.74-60-110.82-22-174.17,26.4C271.82,203,257.36,207.92,244.43,207.93Z"/><rect class="cls-9" x="126.1" y="45.21" width="172.73" height="228.53" rx="59.95" transform="translate(424.94 318.94) rotate(180)"/><path class="cls-8" d="M176.58,18.19h112a0,0,0,0,1,0,0v244a0,0,0,0,1,0,0H136.32a0,0,0,0,1,0,0V58.45a40.25,40.25,0,0,1,40.25-40.25Z"/><rect class="cls-10" x="229.52" y="65.75" width="44.9" height="5.68"/><rect class="cls-11" x="229.52" y="89.55" width="41.22" height="5.68"/><rect class="cls-12" x="229.52" y="77.65" width="35.66" height="5.68"/><path class="cls-13" d="M181.34,102.17A35,35,0,0,1,166.72,99,35.37,35.37,0,1,1,196,99,35,35,0,0,1,181.34,102.17Zm0-68.87a33.5,33.5,0,0,0-13.84,64,33.55,33.55,0,0,0,27.69,0,33.5,33.5,0,0,0-13.85-64Z"/><rect class="cls-14" x="145.97" y="116.4" width="51.59" height="5.06"/><rect class="cls-15" x="145.97" y="130.03" width="51.59" height="5.06"/><rect class="cls-15" x="145.97" y="143.65" width="51.59" height="5.06"/><rect class="cls-16" x="208.1" y="116.4" width="8.61" height="5.06"/><rect class="cls-15" x="208.1" y="130.03" width="8.61" height="5.06"/><rect class="cls-15" x="208.1" y="143.65" width="8.61" height="5.06"/><path class="cls-17" d="M428.49,209.57c-30.66,0-57.32-13.26-85.11-27.08-34.3-17.06-69.78-34.7-117-29.87-30.18,3.09-49.13,15.38-65.84,26.22-15.13,9.82-29.44,18.46-48.82,19.19-31.32,1.2-42.18-12.16-42.36-13v-8.57h0c0,.15,6.87,15.14,42.33,15,17.46-.08,30.34-8.44,45.26-18.12,17.34-11.25,37-24,68.76-27.25,49.16-5,85.5,13.05,120.65,30.52,36.77,18.29,71.87,35.44,116.45,20.5v7A100.8,100.8,0,0,1,428.49,209.57Z"/><rect class="cls-18" x="229" y="111.3" width="103.08" height="156.53" rx="42.11"/><path class="cls-15" d="M320,134.58A16.88,16.88,0,0,0,288.25,146q.19.54.42,1.05a16.7,16.7,0,0,0,2.62,4.2A16.87,16.87,0,0,0,320,134.58Zm-11.63,17.6a12.66,12.66,0,0,1-15.86-6.86c-.11-.26-.21-.53-.31-.79a12.67,12.67,0,0,1,7.65-16.18,12.91,12.91,0,0,1,3.88-.73,12.65,12.65,0,0,1,4.64,24.56Z"/><path class="cls-19" d="M292.07,136.5l-4-1.26a16.89,16.89,0,0,1,15.61-11.84l.12,4.22a12.91,12.91,0,0,0-3.88.73A12.63,12.63,0,0,0,292.07,136.5Z"/><path class="cls-20" d="M292.54,145.32,288.67,147q-.23-.51-.42-1.05a16.88,16.88,0,0,1-.22-10.71l4,1.26a12.57,12.57,0,0,0,.16,8C292.33,144.79,292.43,145.06,292.54,145.32Z"/><path class="cls-9" d="M291.29,151.2a16.7,16.7,0,0,1-2.62-4.2l3.87-1.68a12.59,12.59,0,0,0,2,3.14Z"/><rect class="cls-9" x="294.9" y="232.5" width="9.1" height="29.82"/><rect class="cls-20" x="281.38" y="240.86" width="9.1" height="21.46"/><rect class="cls-20" x="308.02" y="218.67" width="9.1" height="43.64"/><polygon class="cls-20" points="242.77 229.42 241.98 228.81 256.8 209.53 275.1 210.52 288.89 188.56 303.75 187.02 312.68 169.36 313.57 169.81 304.39 187.96 289.48 189.5 275.63 211.55 257.27 210.55 242.77 229.42"/><path class="cls-21" d="M270.8,133.53H244.94a3,3,0,0,1-3-3h0a3,3,0,0,1,3-3H270.8a3,3,0,0,1,3,3h0A3,3,0,0,1,270.8,133.53Z"/><path class="cls-15" d="M270.8,143.84H244.94a3,3,0,0,1-3-3h0a3,3,0,0,1,3-2.95H270.8a3,3,0,0,1,3,2.95h0A3,3,0,0,1,270.8,143.84Z"/><path class="cls-15" d="M270.8,154.16H244.94a3,3,0,0,1-3-3h0a3,3,0,0,1,3-3H270.8a3,3,0,0,1,3,3h0A3,3,0,0,1,270.8,154.16Z"/><path class="cls-22" d="M186.8,232.54a50.36,50.36,0,0,0-22.76,0l6-30.75S185,217.68,186.8,232.54Z"/><path class="cls-23" d="M219.26,179.52s2.3,1.64,3,1.44a13.53,13.53,0,0,1,2.47.06c.65-.07,2.33-.88,3-.71a18.74,18.74,0,0,0,2.4,1.25c.58.09,1.77.11,1.69.6s-1.15.76-1.15.76a.77.77,0,0,1,.59.57,1.19,1.19,0,0,1-.34,1.19s.46.46.42.84a2.37,2.37,0,0,0-.53,2.11,1.31,1.31,0,0,1-1,.8s-.09.94-.61,1.06a4.57,4.57,0,0,1-1.4-.06,17.69,17.69,0,0,1-6.3-3.2,21.17,21.17,0,0,0-4.72-3Z"/><path class="cls-24" d="M172.09,116.59s-3.43-2.21-6.53,1.71-2,7.68-1.33,11.2,3.76,11.46,2.43,15,.37,5.35.37,5.35,10.65,2.72,9.41-13.3S172.09,116.59,172.09,116.59Z"/><path class="cls-25" d="M176.66,146.83s4.05-.55,6.77,1.49,4.59,5.86,5.42,7.06,10.55,11.92,11,12.12,6.53,3.53,10.61,6.23S221,179.67,221,179.67l-3.48,4.27s-17.15-6.14-20.72-9.46c-3.81-3.55-21.44-21.15-21.44-21.15S170.91,149.76,176.66,146.83Z"/><path class="cls-26" d="M206.16,296s4.38,5.91,3.78,6.84-5.21,1.07-8,0-2.87-8-4.14-11c-.54-1.24.6-4.92,2.2-5.19a6.81,6.81,0,0,1,3.34.52S201.66,291.42,206.16,296Z"/><path class="cls-27" d="M203.35,287.18a27.31,27.31,0,0,1,1.26,4.92c.28,2,3.13,6.22,3,6.75s-3.74,1-5.21-.36-2.42-5.38-2.74-7.78a19.14,19.14,0,0,0-.68-3.34S202,285.71,203.35,287.18Z"/><polygon class="cls-26" points="197.66 291.38 197.66 297.56 198.46 297.56 198.46 292.79 197.66 291.38"/><path class="cls-26" d="M168,296.12s4.23,5.81,3.63,6.74-5.22,1.07-8,0-2.88-8-4.15-11c-.53-1.24.61-4.92,2.21-5.19a7.2,7.2,0,0,1,3.47.58S163.49,291.52,168,296.12Z"/><path class="cls-27" d="M165.12,287.29A40.88,40.88,0,0,0,166,292c.54,1.94,3.41,6.35,3.28,6.88s-3.75,1-5.22-.36-2.6-5.37-2.74-7.78a12.92,12.92,0,0,1,.34-4A3.26,3.26,0,0,1,165.12,287.29Z"/><polygon class="cls-26" points="159.32 291.38 159.32 297.56 160.13 297.56 160.13 292.79 159.32 291.38"/><path class="cls-28" d="M186.25,191.16s3.76,17.51,4.63,21.91,3.28,25.76,3.54,29.39,3.93,17.31,3.76,18.61,5.64,27,5.64,27-6,1.62-7,.53c-.86-.93-9.46-24.46-9.46-30.94,0-9-6.76-20.38-7.62-22.38-7.94-18.63-6.24-24.61-7.28-25.82s-1.13.75-1.73,3.43-1.9,25.84-2.68,28.78-.17,12.88-.61,17.9-.93,27.47-.93,27.47-4.33,1-6.39,0c-.6-.28-2.1-25-2.18-31s-.18-14.19-.35-16.77c-1.6-24.71-4-28.22.66-45.74C167.13,160,186.25,191.16,186.25,191.16Z"/><path class="cls-29" d="M176.51,144.5a40.8,40.8,0,0,0,5.29,2.13c1.37.28,6.66,7.15,7.59,9.66s0,6.28-1.91,10.69-.11,5.9-1,10.32,0,14.78.12,17.23-20.07,5.58-27.85-2.26c0,0,4.22-7.93,4.87-9s.11-7-.49-8.56-4.59-14.52-4.59-14.52-3.27-10-.32-12.27c2.56-2,9.55-2.7,10.81-3.14A21.37,21.37,0,0,1,176.51,144.5Z"/><path class="cls-30" d="M177.76,153.26l2.39-2.79-2.07-7.36A48.45,48.45,0,0,0,177.76,153.26Z"/><path class="cls-27" d="M178.38,140a94.89,94.89,0,0,0-.62,9.55s-4.08,4.1-8.72-4.77a12.17,12.17,0,0,0,.48-8.63C168.05,131.14,178.38,140,178.38,140Z"/><polygon class="cls-27" points="177.76 149.53 177.76 153.26 173.06 149.75 177.76 149.53"/><polygon class="cls-30" points="177.76 153.26 175.81 150.85 169.24 144.3 167.12 146.35 177.76 153.26"/><polygon class="cls-31" points="180.15 150.47 183.16 151.3 178.08 143.11 180.15 150.47"/><polygon class="cls-31" points="175.81 150.85 173.06 154.45 167.45 144.87 169.41 143.87 175.81 150.85"/><path class="cls-32" d="M178.22,141.56l-.13,1.44s-3.25.61-7.49-4.57C170.6,138.43,173.61,142.1,178.22,141.56Z"/><path class="cls-23" d="M177.4,141.66c1.28,0,4.84-.46,6.6-8.68,2.16-10-2.6-15.25-6.67-16.22s-7.82.45-9.9,5.7c0,0-1.52,4.09.95,11.38S176,141.71,177.4,141.66Z"/><path class="cls-24" d="M174.13,123.28s5.47.34,10.55,8c0,0,2.37-9.18-3.84-13.37s-10.56-.59-12.08,1.24c0,0-2.18.5-2.24,4.62s-2.85,10.35,3.24,13.3c0,0-.58-4.71,0-5.78S172.11,130.91,174.13,123.28Z"/><path class="cls-23" d="M170,129.43c-.28-.72-1-1-1.44-.24s.08,3.74,1.18,4.06S170.57,130.88,170,129.43Z"/><path class="cls-25" d="M167.45,144.87s6.17,7.38,6.82,22.9-4.86,65.09-4.52,71.13l-16-7.74s.09-25,5.45-40.75c6.29-18.46-.86-24.09-1.52-35.45,0,0,.3-8.31,4.93-9.07C167,145.18,167.45,144.87,167.45,144.87Z"/><path class="cls-25" d="M179.85,146s2.52.29,3.31,1.23,5.75,6.66,6.11,8.34,1.52,2.94-.86,10.78c-2.13,7-1.59,14.89-1.15,18s8.1,45.71,7.68,46.8-3.61,3.69-3.61,3.69-6.86-42-6.79-49S187.36,158,179.85,146Z"/><polygon class="cls-33" points="232.35 168.13 227 195.69 209.32 192.25 213.98 164.56 232.35 168.13"/><polygon class="cls-34" points="231.03 169.47 226.27 193.94 210.57 190.89 214.71 166.3 231.03 169.47"/><polygon class="cls-33" points="226.05 169.14 226.38 167.42 220.03 166.19 219.45 167.86 226.05 169.14"/><path class="cls-35" d="M230.36,182.7s-3.16-1-4.1-.44.18,1,.18,1-1.1-.45-1.54.38.91,1.26.91,1.26a.91.91,0,0,0-1,.85c-.12,1,1.07,1.09,1.07,1.09s-1.38.54-.51,1.43a5.42,5.42,0,0,0,3.92,1.27s.61-.15.65-1.09a1.31,1.31,0,0,0,1-1.82s1.18-1.29,0-2C230.91,184.68,232.15,183.21,230.36,182.7Z"/><path class="cls-27" d="M153.7,198.52s-.64,3,.67,5c.49.77,0,6.6,0,7.33s-.59,1.13-.81,1-.28-3.35-.62-4.39c-.29-.87-.55-1.2-.7-.92a41.67,41.67,0,0,0,.68,6.51c.31,1.55-.08,4.82-.88,4.29s-3.5-7.78-3.3-10.2a31.51,31.51,0,0,1,1.12-5.45Z"/><path class="cls-25" d="M166.51,145.3s-6.39-.39-9.6,3.34-3,8.16-3.85,10.08-2.68,10.2-3.08,11.54-.81,8.88-1.39,14.94-.47,17.38-.47,17.38l6.12-1.11s.24-10.79.4-17,5.24-17.31,7.17-22.15S171.39,148.34,166.51,145.3Z"/><polygon class="cls-36" points="41.87 216.18 52.28 216.18 49.09 209.57 38.68 209.57 41.87 216.18"/><polygon class="cls-37" points="36.99 216.18 39.48 216.18 36.29 209.57 33.81 209.57 36.99 216.18"/><path class="cls-22" d="M359.49,238a50.19,50.19,0,0,0-22.76,0l6-30.76S357.72,223.09,359.49,238Z"/><path class="cls-38" d="M331.87,290.63s-4.67,7.91-6.64,9.2c-2.67,1.76-1,3.53.27,3.53s7.76.47,9.19-1.15,2.14-6.49,3.47-7.76,2.55-6-.65-7.56C334,285.15,331.87,290.63,331.87,290.63Z"/><path class="cls-27" d="M333.62,286.48s-5.07,9.93-6,11.3,1.73,1.37,3.38.72,5.91-7.24,6.38-8.51a7.16,7.16,0,0,0,.12-3.1Z"/><polygon class="cls-38" points="339.31 292.13 338.07 301.63 337.42 301.66 337.62 294.83 339.31 292.13"/><path class="cls-38" d="M371.89,282.91S370.77,292,369.48,294c-1.75,2.68.5,3.64,1.66,3.13s7.3-2.67,8-4.73-.63-6.8.08-8.5,0-6.48-3.61-6.66C371.66,277,371.89,282.91,371.89,282.91Z"/><path class="cls-27" d="M371.84,278.41s-.69,11.14-1,12.76,2.13.56,3.38-.69,2.53-9,2.45-10.35a7.09,7.09,0,0,0-1.12-2.89Z"/><polygon class="cls-38" points="379.31 281.32 381.97 290.52 381.39 290.81 378.84 284.47 379.31 281.32"/><path class="cls-27" d="M327.72,199.46a28.64,28.64,0,0,0,0,3.56,48.84,48.84,0,0,1-1.67,6.89c-.2.56-.48.1-.55-.33-.05-.25.17-2.18.14-3.25,0-.9-.18-1.28-.41-1.07a18.88,18.88,0,0,0-1.68,5.07c-.14,1.54-1.49,4.77-2.11,4s-.51-7.29.34-9.52a31.61,31.61,0,0,1,2.55-4.81Z"/><path class="cls-25" d="M328.43,200.74c.25-.71,6.36-10.51,7.82-13.63s2.74-6,3.43-7.2l.22-.41c.48-.91,1.52-2.94,2.56-4.83.08-.13.15-.26.22-.39l.19-.76c.73-1.3.31-2.18.45-3.28a3.33,3.33,0,0,1,.33-1.07l0,0a24.78,24.78,0,0,0,1.82-4.22c.73-3,4.25-16.22,4.25-16.22s-5.68,2-6.56,4c-1.34,3.08-2.92,7.73-3.35,9.16s-4.44,13.34-5.26,15.76a32,32,0,0,1-2.6,6c-.92,1.55-7.56,15.56-8,16.84C323.94,200.48,328.18,201.45,328.43,200.74Z"/><path class="cls-28" d="M352.41,213.69c-.23,1.12-1.72,5.82-3.39,11h0c-1.52,4.76-3.18,10-4.18,13.27-.38,1.23-.66,2.21-.8,2.8-1,3.93.12,10.08.47,15.23s-1.62,31.22-1.62,31.22c-1.31.61-9.7-.48-9.7-.48,1-1.83,1.26-34.63.73-36.64s-.87-7.58-.34-9.76a9.74,9.74,0,0,0,.17-1.75c0-2.75-.53-7.3-.87-12.29-.44-6.28,2-21.89,2.35-23.28,0-.13.08-.31.15-.53.64-2.19,2.71-8.41,2.71-8.41,4.19-1.24,7.35-1.47,9.71-1a7.24,7.24,0,0,1,5.7,4.89C355.55,203.68,352.71,212.23,352.41,213.69Z"/><path class="cls-28" d="M376.7,277.23,370,282.68c-.72-3.49-16.17-31.07-17.22-33.77a39.49,39.49,0,0,1-2.17-9.85c0-.34,0-.92-.08-1.67A125.7,125.7,0,0,0,349,224.73c-.14-.8-.29-1.55-.45-2.24-.84-3.68-1-16.26-1-23.65,0-3.29,0-5.56,0-5.56l.21-.16c1.59-1.2,11.79-8.54,15.34-1.68a20.5,20.5,0,0,1,1.93,5.78c1.14,6.22,0,13.22-.9,19.59-.79,5.46-2.3,13.17-2.73,18.89-.24,3.15-.15,5.7.56,6.93,2,3.49,4,6.44,8,18.75C371.34,265.38,376.7,277.23,376.7,277.23Z"/><path class="cls-39" d="M345.08,129.8s-2.21-14.35,9.67-14.08,11.72,7.35,11.51,14.4-4.76,6.51.37,16.3-4.45,9.8-4.45,9.8L354.75,146Z"/><path class="cls-27" d="M353.45,117.09s-8.05,1.27-8.37,12.71,2.17,13.87,9.22,11.49,9.26-14.35,9.42-16.2S364.3,115.72,353.45,117.09Z"/><path class="cls-40" d="M367.58,156.87c0,3.94-4.49,13.35-5.19,16.26s-1.8,3.83-.87,7.56,3.81,16.3,3.69,17.41-17.6,6.65-29.83,4.42c0,0,4.76-17.77,5.11-19.8s-.43-9.67-.6-11.82-2.35-6.78-2.28-8.93,1.16-4.1,2.66-6.44c.47-.73,1-1.47,1.45-2.19a41.45,41.45,0,0,1,4-5.21,13.52,13.52,0,0,1,1.61-1.28h0A7.39,7.39,0,0,1,349,146l6.92-1.1s4.31,1.56,6.79,2.14C362.67,147,367.51,147.72,367.58,156.87Z"/><path class="cls-40" d="M347.31,146.85l-4,6.32L339.6,159a33.8,33.8,0,0,0,.67-3.47c.08-.49.17-1,.26-1.64a5.23,5.23,0,0,1,.12-.54h0c1.58-3.65,6.48-6.41,6.66-6.5Z"/><path class="cls-27" d="M358.82,136.14c-.69,1.31-1.43,9.49-1.43,9.49s-9.84,3.72-8.84,1.62a8.05,8.05,0,0,0,.6-3.27,15.26,15.26,0,0,0-.11-2c0-.22,0-.34,0-.34S359.52,134.82,358.82,136.14Z"/><path class="cls-39" d="M350.17,125.3s4.13,6.72,7.89,9.37,1.85,4.77,1.85,4.77,9.81-20.65.48-22.08-15-1.54-15.31,12.44C345.08,129.8,349.32,125.19,350.17,125.3Z"/><path class="cls-32" d="M354.66,141.16c-1.51,2.22-5.51,2.82-5.51,2.82h0a15.26,15.26,0,0,0-.11-2A11.33,11.33,0,0,0,354.66,141.16Z"/><path class="cls-25" d="M340.66,153.31h0a8.44,8.44,0,0,0-.39,2.22l1.45-2.19s2.59-3.71,3.48-4.68a15.18,15.18,0,0,1,2.11-1.81S342.21,149.3,340.66,153.31Z"/><path class="cls-27" d="M362.49,177a54,54,0,0,1-5.62,1.6c-2.7.57.09,3.81.09,3.81l6.94-.66C365,181.66,362.49,177,362.49,177Z"/><path class="cls-40" d="M360.25,158.84s6.32-2.48,8.19-2.62c0,0-1.27-10.15-7.48-9.07S360.25,158.84,360.25,158.84Z"/><path class="cls-27" d="M349,146s-4.64,7.13-3.07,7.76,10.07-.84,13.68-7.61C359.57,146.13,354.17,143.36,349,146Z"/><path class="cls-25" d="M357.42,145.34s-4.92,8.16-5.57,23.68,4.86,65.09,4.52,71.14l14.86-6.42s-5.6-40.54-7.46-48.27,4-17.89,4.67-29.25c0,0-.41-7.79-4.93-9.07S357.42,145.34,357.42,145.34Z"/><path class="cls-27" d="M367.35,153.55s-1.11-7.5-6.61-6.26c-5.27,1.18-.33,11,.06,12.17s4.3,10.67,4.64,11.92c1.07,3.93.06,4-1.55,5-4.76,2.74-14.55,2.56-15.68,3.31s-1.06,3.1.84,3.18c2.47.11,16.56-1.22,18.53-1.41s5.71-.35,4.71-7.13C371.62,169.73,367.35,153.55,367.35,153.55Z"/><path class="cls-25" d="M349,146a43.4,43.4,0,0,0-5.5,19c-.28,10.28-9.85,54.09-8.84,76.53l-2.23-2.16a3.42,3.42,0,0,1-1-2.67c.38-6.45,2.08-31.06,6.29-44.55,4.87-15.61.78-26,0-28.74s1.8-6.5,2.67-7.82S343.25,148.11,349,146Z"/><polygon class="cls-33" points="360.35 164.53 364.76 192.25 346.96 195.08 341.87 167.47 360.35 164.53"/><polygon class="cls-34" points="359.56 166.25 363.48 190.87 347.68 193.38 343.14 168.85 359.56 166.25"/><polygon class="cls-33" points="354.77 167.63 354.5 165.91 348.11 166.92 348.13 168.69 354.77 167.63"/><path class="cls-27" d="M356.87,178.61s-2.94.49-3.21.44-1.44-1.94-2.78-2.29a27.55,27.55,0,0,1-3.45-.86c-.41-.26-.52,1.06.77,1.6s1.62,1.26-.81,1.75c-1.34.27-6.34-.29-5.93.55.25.5,5.07.86,5.07.86s-5.2,0-5.38.29c-.35.62,4.87.84,5.09.82,0,0-4.47.25-4.51.65s4.48.29,4.44.37-3.56.25-3.52.55,3.18.45,3.78.38,6.74-.77,7.77-1a26.33,26.33,0,0,1,2.76-.32Z"/><path class="cls-25" d="M368.2,154.36s5.05,19.1,4.63,23.8-18.6,5.58-18.6,5.58v-5s9.52-2.11,11.3-4.29c.93-1.14-5.28-15.66-5.28-15.66s-5.55-9.08-.29-11.4S367.49,151.6,368.2,154.36Z"/><path class="cls-27" d="M64.55,206.12a19.83,19.83,0,0,1-5.83,1.77S56,204,54.47,201c-3.74-7-4.84-10.3-4.52-13C50.52,183.19,60,163.82,60,163.82l10.57,4.08-8.09,14.38c-.76,1.47-1.73,3.86-2.74,5.81-1.32,2.55.27,8.4,1.21,10.84A36.41,36.41,0,0,0,64.55,206.12Z"/><path class="cls-41" d="M31.52,285.9a7,7,0,0,0,.9,4.09c1.21,2.34,6.65,8.31,6.27,10.76S32,302.91,28.1,298.6s-9.8-8.79-9.59-9.83,6.13-6.42,8.19-7.13S31.52,285.9,31.52,285.9Z"/><polygon class="cls-27" points="33.69 283.59 31.47 285.99 26.47 281.73 28.77 279.07 33.69 283.59"/><path class="cls-42" d="M26.83,279.07c2.44-2.77,22.1-22.88,22.1-22.88,10-11.56,14-11.87,14-11.87a59.32,59.32,0,0,1,6,.53c.49.07,2.1.05,2.62.13,6.39,1,6.56.31,4.23,5.54-3.84,8.6-42.33,33.42-42.33,33.42Z"/><path class="cls-41" d="M116.65,289.55a26.27,26.27,0,0,0,5.93,1.75c2.78.38,9.47-.72,11.37,1.11s-2.2,7.11-8.36,7.89-14.06,2.09-14.83,1.27-1.41-8.21-.77-10.44S116.65,289.55,116.65,289.55Z"/><polygon class="cls-27" points="115.32 286.28 116.65 289.55 109.99 291.13 108.98 287.63 115.32 286.28"/><path class="cls-42" d="M105.33,245s-2.71-10.34,3.65,14c0,0,6.71,26,7.45,27.46.17.35-8.41,1.92-8.57,1.85-1.49-.59-14.86-33.88-18.18-40C86.76,242.86,105.33,245,105.33,245Z"/><path class="cls-42" d="M105.33,245,92,252.66s-5.25-6.45-8.73-9.09l-1.08-.82-1.55-1.19c-.37-.29-.75-.59-1.11-.89a51.65,51.65,0,0,1-6.24-5.6c-3.78-4.36,4.5-32,15-19.67C88.22,215.4,102.25,228.57,105.33,245Z"/><path class="cls-42" d="M87.39,212.13s-6.58,30.24-13.07,40.53c0,0-11-3.71-16.08-5.7,0,0-.49-21.86,0-27.57C58.69,214.06,87.39,212.13,87.39,212.13Z"/><path class="cls-43" d="M56.91,222.73s2.78-27.18.48-39.82c-1.53-8.41.68-22,5.72-29.41a18.23,18.23,0,0,1,1.9-2.37s10.18,2.7,11.2,3.41a20.77,20.77,0,0,1,2.63,2.78h0c2.89,3.55,7.17,10,7.58,16.22.3,4.54.55,8.71.84,13,.08,1.31.17,2.63.27,4,.22,3.23.48,6.62.81,10.36.18,2.07,1.58,8.67,2.5,14.75Z"/><path class="cls-44" d="M82.16,242.75l-1.55-1.19c-.37-.29-.75-.59-1.11-.89.53-1.7,3.43-9.47,4.57-15A47.53,47.53,0,0,1,82.16,242.75Z"/><path class="cls-45" d="M87.54,190.53s-5.93,9-7-13.23l6.71,9.25C87.35,187.86,87.44,189.18,87.54,190.53Z"/><path class="cls-27" d="M65,151.13s1.06-5.88-.17-9.3S75,147.59,75,147.59s0,.48,0,1.19c0,.56,0,1.26.1,2a14.85,14.85,0,0,0,.63,3.8C76.47,156.49,65,151.13,65,151.13Z"/><path class="cls-27" d="M81.44,130.53s2.39,4.51,1.19,5.2c-1,.57,1.13,5,1.41,5.72s-1.81,1.23-2.26,1.69-1.79,6.16-3.5,6.32-9.42-2.57-11.51-4.77S63,132.6,64.46,128.45,77.21,122.65,81.44,130.53Z"/><path class="cls-28" d="M81.92,131.51A6.92,6.92,0,0,0,80,123c-4.47-3.63-12.8,2.63-13.73,2.87s-6.49,2-3.7,10.26c2.52,7.49,2.85,8.33,2.85,8.33s1.53-5,2.51-5.68c1.52-1.09,4.85-.8,4.85-.8s-1.56-4.22.92-4.8S79.42,130.56,81.92,131.51Z"/><path class="cls-27" d="M70.11,135.59c-.22-.58-.91-3.06-3-1.62s1.29,6.14,1.66,6.21S71.91,140.46,70.11,135.59Z"/><path class="cls-32" d="M75.08,150.77c-3.53-1-6.54-4.77-6.54-4.77,1,.94,6.44,2.78,6.44,2.78C75,149.34,75,150,75.08,150.77Z"/><polygon class="cls-33" points="114.39 182.75 108.65 212.26 89.71 208.58 94.7 178.92 114.39 182.75"/><polygon class="cls-34" points="112.96 184.18 107.87 210.4 91.05 207.13 95.48 180.79 112.96 184.18"/><polygon class="cls-33" points="107.63 183.82 107.99 181.98 101.19 180.66 100.56 182.45 107.63 183.82"/><path class="cls-27" d="M112.17,203.47a4,4,0,0,1-1.27.32s-.8-.11-1.37-.15a3.49,3.49,0,0,0-.44,0,7.6,7.6,0,0,1-2.4,0,50.48,50.48,0,0,1-5.3-2.37l.5-2.62.13-2.53s6.19-2.11,7.19-2l.28,0a9,9,0,0,1,1.82.78c.16.05,1.69.66,1.84,1.13a1.59,1.59,0,0,1-.21,1.55,3.93,3.93,0,0,1,0,2.12,2.39,2.39,0,0,1-.39,2.07S112.77,203,112.17,203.47Z"/><path class="cls-27" d="M103.44,195.51a19.83,19.83,0,0,1-2,5.73s-4.75-.19-8-.68c-7.86-1.17-11.15-2.24-13.13-4.1-3.54-3.35-13.43-22.53-13.43-22.53l9.57-6.06,6.73,15.06c.74,1.49,2.08,3.7,3,5.67,1.27,2.58,6.91,4.78,9.43,5.48A36.14,36.14,0,0,0,103.44,195.51Z"/><path class="cls-43" d="M81.12,176.06l-10.88,5.66s-2.15-4.18-2.78-5.53c-1.82-3.9-4.62-9.78-1.09-12.26,7.6-5.36,10.87,3.54,12.74,8.41A25.38,25.38,0,0,0,81.12,176.06Z"/><rect class="cls-46" x="176.73" y="47.42" width="9.22" height="38.76"/><rect class="cls-47" x="176.73" y="47.42" width="9.22" height="38.76" transform="translate(248.14 -114.54) rotate(90)"/></g></g></g></svg>