<?xml version="1.0" encoding="UTF-8"?>
<!DOCTYPE svg PUBLIC "-//W3C//DTD SVG 1.1//EN" "http://www.w3.org/Graphics/SVG/1.1/DTD/svg11.dtd">
<!-- Creator: CorelDRAW 2019 (64 Bit) -->
<svg xmlns="http://www.w3.org/2000/svg" xml:space="preserve" width="38.6634mm" height="19.2254mm" version="1.1" style="shape-rendering:geometricPrecision; text-rendering:geometricPrecision; image-rendering:optimizeQuality; fill-rule:evenodd; clip-rule:evenodd"
viewBox="0 0 1452.65 722.33"
 xmlns:xlink="http://www.w3.org/1999/xlink">
 <defs>
  <style type="text/css">
   <![CDATA[
    .fil0 {fill:#21BF7F;fill-rule:nonzero}
    .fil1 {fill:#868686;fill-rule:nonzero}
    .fil2 {fill:white;fill-rule:nonzero}
   ]]>
  </style>
 </defs>
 <g id="Camada_x0020_1">
  <metadata id="CorelCorpID_0Corel-Layer"/>
  <g id="_2879750678000">
   <path class="fil0" d="M1358.81 722.33l-1313.28 0c-33.08,0 -55.1,-34.2 -41.39,-64.31l46.59 -102.31c7.38,-16.23 23.55,-26.64 41.38,-26.64l1315.02 0c33.34,0 55.35,34.73 41.11,64.88l-48.31 102.32c-7.51,15.91 -23.53,26.06 -41.13,26.06z"/>
   <path class="fil1" d="M153.14 60.74c-8.11,22.23 -15.35,42 -22.79,62.35l45.61 0c-7.51,-20.52 -14.74,-40.24 -22.82,-62.35zm5.77 246.41c-8.11,22.23 -15.35,42 -22.78,62.36l45.61 0c-7.52,-20.53 -14.74,-40.25 -22.82,-62.36zm-87.96 127.9c8.81,-21.65 17.77,-43.24 26.4,-64.96 13.53,-34.05 24.08,-60.52 37.19,-94.74 2.25,-5.91 5.38,-15.28 14.33,-15.28 9.08,0 18.18,0.15 27.68,0.15 23.72,58.66 47.31,117.03 71.38,176.58 -13.25,0 -25.46,0.23 -37.64,-0.22 -2.02,-0.08 -4.81,-2.76 -5.74,-4.89 -3.25,-7.53 -5.45,-15.51 -8.91,-22.93 -1.11,-2.41 -4.84,-5.05 -7.42,-5.1 -19.68,-0.42 -39.39,-0.4 -59.09,-0.02 -2.34,0.04 -5.74,2.57 -6.75,4.8 -3.37,7.46 -5.49,15.49 -8.9,22.93 -1.12,2.41 -4.69,5.08 -7.27,5.21 -11.73,0.56 -23.5,0.24 -35.25,0.24l0 -1.76zm455.92 -186.15l36.13 0 0 33.56 -36.13 0 0 -33.56zm36.44 187.28l-36.4 0 0 -135.42 36.4 0 0 135.42zm249.18 -32.53l0 32.38c-0.42,0.08 -0.84,0.24 -1.26,0.24 -9.21,0 -18.41,0.15 -27.62,-0.08 -9.01,-0.23 -17.63,-2.31 -25.36,-7.14 -11.88,-7.42 -17.83,-18.61 -19.38,-32.13 -0.81,-7.09 -0.61,-14.3 -0.65,-21.46 -0.08,-14.05 -0.03,-28.07 -0.03,-42.12l0 -2.9 -24.35 0c0,-2.74 -0.09,-5.29 0.05,-7.81 0.03,-0.62 0.72,-1.27 1.22,-1.8 17.02,-18.08 34.05,-36.16 51.12,-54.17 0.59,-0.62 1.65,-0.99 2.52,-1.07 1.76,-0.17 3.57,-0.05 5.59,-0.05l0 35.04 37.18 0 0 29.73 -36.64 0 0 2.62c0,16.32 -0.04,32.6 0.03,48.91 0.02,2.71 0.16,5.47 0.81,8.06 2.18,8.63 8.86,13.41 18.93,13.7 5.05,0.16 10.11,0.06 15.16,0.06 0.82,0.01 1.63,0 2.66,0zm-222.61 -11.7l35.59 0c0.24,1.45 0.39,2.86 0.72,4.23 1.24,5.08 4.23,8.87 8.96,10.99 7.77,3.51 15.77,3.84 23.69,0.58 2.22,-0.9 4.37,-2.48 5.98,-4.27 4.6,-5.06 3.46,-12.07 -2.31,-15.72 -4.56,-2.87 -9.78,-3.78 -14.92,-4.91 -9.46,-2.1 -19,-3.98 -28.35,-6.45 -5.99,-1.59 -11.41,-4.73 -16.07,-8.95 -8.69,-7.83 -11.5,-18.01 -10.83,-29.25 1.11,-18.43 11.49,-30.22 28.1,-36.58 17.07,-6.56 34.57,-6.68 51.72,-0.18 16.86,6.39 26.8,18.62 28.89,36.81 0.15,1.26 0.03,2.56 0.03,3.99l-34.6 0c-0.16,-0.97 -0.35,-1.92 -0.49,-2.89 -0.89,-5.57 -4.08,-9.33 -9.29,-11.23 -6.65,-2.43 -13.44,-2.56 -20.19,-0.38 -3.07,0.99 -5.68,2.75 -7.37,5.67 -2.96,5.13 -1.75,11 3.54,13.57 4.34,2.12 9.13,3.45 13.84,4.57 9.14,2.19 18.43,3.78 27.56,6 6.1,1.48 11.8,4.14 16.8,8.03 10.51,8.14 13.61,19.39 12.74,31.95 -1.38,19.62 -12.43,32.04 -30.44,38.36 -17.72,6.23 -35.71,6.43 -53.28,-0.56 -16.53,-6.56 -26.69,-18.62 -29.44,-36.48 -0.33,-2.21 -0.37,-4.45 -0.56,-6.91zm-203.76 0l35.59 0c0.23,1.38 0.36,2.8 0.69,4.15 1.31,5.44 4.61,9.32 9.72,11.44 7.32,3.04 14.84,3.34 22.25,0.53 2.39,-0.9 4.7,-2.52 6.47,-4.36 4.87,-5.09 3.75,-12.32 -2.22,-16.02 -4.57,-2.84 -9.77,-3.85 -14.95,-4.84 -10.27,-1.92 -20.68,-3.31 -30.47,-7.21 -9.7,-3.86 -17.92,-9.52 -21.87,-19.65 -6.59,-16.97 -2.49,-38.47 16.58,-50.08 12.51,-7.62 26.27,-9.7 40.62,-8.77 11.57,0.73 22.44,3.73 31.85,10.78 11.34,8.48 16.69,20.04 17.11,34.27l-34.75 0c-0.07,-0.21 -0.17,-0.48 -0.2,-0.76 -0.95,-8.19 -4.87,-12.52 -13,-14.34 -5.54,-1.23 -11.06,-1.21 -16.51,0.53 -3.01,0.98 -5.61,2.6 -7.37,5.33 -3.35,5.18 -2.16,11.43 3.37,14.1 4.28,2.08 9,3.38 13.65,4.48 9.14,2.17 18.41,3.79 27.54,5.99 6.11,1.48 11.81,4.13 16.83,8 10.52,8.11 13.66,19.36 12.79,31.93 -1.34,19.62 -12.36,32.06 -30.37,38.41 -17.88,6.31 -36.02,6.48 -53.72,-0.65 -16.38,-6.6 -26.44,-18.73 -29.11,-36.49 -0.32,-2.15 -0.35,-4.34 -0.52,-6.77zm-131.79 0.04l35.61 0c0.24,1.46 0.38,2.88 0.73,4.24 1.33,5.45 4.69,9.28 9.79,11.37 7.17,2.92 14.57,3.3 21.84,0.54 2.5,-0.95 5,-2.61 6.85,-4.55 4.76,-5.04 3.61,-12.2 -2.25,-15.87 -4.57,-2.86 -9.79,-3.75 -14.94,-4.89 -9.46,-2.11 -18.98,-3.99 -28.35,-6.48 -5.91,-1.56 -11.27,-4.67 -15.88,-8.8 -8.79,-7.88 -11.64,-18.1 -10.94,-29.42 1.12,-18.33 11.43,-30.1 27.94,-36.46 17.31,-6.68 35.02,-6.77 52.34,-0.06 16.65,6.44 26.39,18.7 28.43,36.69 0.13,1.25 0.02,2.55 0.02,3.95l-34.61 0c-0.25,-1.48 -0.39,-2.93 -0.74,-4.29 -1.28,-4.89 -4.39,-8.19 -9.1,-9.87 -6.59,-2.36 -13.31,-2.57 -19.96,-0.4 -4.81,1.59 -8.26,4.61 -8.88,10.03 -0.49,4.26 1.14,7.68 4.92,9.31 4.45,1.93 9.16,3.4 13.88,4.53 9.15,2.18 18.43,3.74 27.54,6 6.84,1.71 13.2,4.73 18.55,9.49 9.12,8.1 11.77,18.73 10.96,30.33 -1.45,20.69 -13.45,33.18 -32.43,39.22 -17.14,5.47 -34.5,5.52 -51.38,-1.26 -16.5,-6.63 -26.65,-18.69 -29.38,-36.53 -0.33,-2.15 -0.36,-4.35 -0.56,-6.82zm1036.83 -269.38c0.16,-21.22 -16.21,-37.67 -37.27,-37.48 -20.93,0.17 -36.66,15.98 -36.78,36.97 -0.12,21.36 15.93,37.52 37.18,37.4 20.95,-0.13 36.7,-15.88 36.87,-36.89zm5.41 -55.88c-0.05,-11.81 6.63,-12.47 15.72,-12.47 4.64,0 14.3,0.08 14.3,0.08l0 135.45 -27.76 0c-1.11,-2.97 -2.4,-6.4 -4.07,-10.87 -19.56,15.35 -41.22,18.78 -64.27,12.71 -15.55,-4.11 -28.1,-13.11 -37.55,-26.28 -19.71,-27.52 -17.08,-68.08 5.82,-93.04 18.5,-20.12 59.37,-33.77 97.8,-5.58zm-178.13 -30.88l0 -22.49 0 -10.75 35.99 0 0 33.24 -35.99 0zm-241.45 -31.73c-5.34,-2.57 -12.13,-3.93 -19.08,-4.11l0 -0.01 -0.04 0.01 -0.06 -0.01 0 0.01c-6.96,0.18 -13.73,1.54 -19.07,4.11 -11.81,5.71 -18.41,22.16 -27.61,34.3 19.91,4.03 36.28,1.63 46.74,-15.19 10.44,16.82 26.81,19.22 46.72,15.19 -9.2,-12.14 -15.8,-28.59 -27.61,-34.3zm241.76 50.68l35.96 0 0 134.86 -35.96 0 0 -134.86zm-346.73 0.06c-20.41,34.67 -39.79,67.61 -59.87,101.71l56.8 0 0 33.24 -114.11 0c20.2,-34.3 39.59,-67.25 59.72,-101.45l-51.46 0 0 -33.51 108.92 0zm186.01 -0.11c13.57,-0.41 28.82,-5.66 30.68,16.55 11.35,-10.68 22.78,-17.08 36.66,-19.23 30.9,-4.77 56.93,13.48 58.74,44.57 1.8,30.75 0.4,61.67 0.4,93.14l-36.28 0 0 -9.19c-0.04,-22.34 0.29,-44.71 -0.18,-67.05 -0.47,-21.16 -7.46,-29.65 -23.14,-29.73 -17.55,-0.09 -29.84,11.9 -30.3,30.83 -0.53,21.75 -0.19,43.53 -0.23,65.29 -0.02,3.17 -0.02,6.32 -0.02,9.95l-36.34 0 0 -135.14zm-64.23 67.52c-0.05,-21.49 -15.47,-37.29 -36.31,-37.19 -20.89,0.09 -36.17,15.93 -36.12,37.42 0.04,21.59 15.28,37.12 36.33,37.05 21.1,-0.09 36.14,-15.63 36.09,-37.27zm-36.82 71.96c-42.48,-0.25 -73.15,-31.02 -72.82,-73.03 0.32,-40.85 31.94,-70.81 74.42,-70.49 41.91,0.29 72.72,31.12 72.44,72.53 -0.27,40.9 -31.91,71.23 -74.04,70.99zm-258.37 -71.62c0.16,-21.22 -16.2,-37.67 -37.26,-37.48 -20.94,0.17 -36.68,15.98 -36.78,36.97 -0.13,21.36 15.93,37.52 37.17,37.4 20.95,-0.13 36.72,-15.88 36.87,-36.89zm5.42 -55.88c-0.05,-11.81 6.63,-12.47 15.71,-12.47 4.65,0 14.3,0.08 14.3,0.08l0 135.45 -27.74 0c-1.11,-2.97 -2.4,-6.4 -4.07,-10.87 -19.57,15.35 -41.24,18.78 -64.28,12.71 -15.55,-4.11 -28.1,-13.11 -37.55,-26.28 -19.7,-27.52 -17.08,-68.08 5.83,-93.04 18.49,-20.12 59.35,-33.77 97.8,-5.58zm-229.97 5.49c8.93,-10.39 19.05,-17.43 32.09,-19.84 28.42,-5.22 52.91,11.62 56.36,40.48 1.95,16.28 1.38,32.86 1.62,49.31 0.23,15.58 0.05,31.16 0.05,47.48l-36.93 0c0,-18.7 0.16,-37.43 -0.07,-56.16 -0.12,-10.86 -0.36,-21.75 -1.44,-32.53 -0.86,-8.47 -5.24,-15.16 -14.45,-16.62 -9.94,-1.58 -19.92,0.06 -24.37,9.74 -3.78,8.23 -5.78,17.85 -6.11,26.95 -0.83,22.61 -0.28,45.27 -0.28,68.64l-36.02 0c0,-11.8 0.01,-23.47 -0.02,-35.16 -0.03,-16.19 0.19,-32.37 -0.23,-48.55 -0.3,-12.15 -6.48,-20.21 -15.55,-21.74 -12.62,-2.09 -23.28,3.47 -27.4,15.39 -1.97,5.7 -2.84,12.03 -2.92,18.09 -0.32,23.79 -0.13,47.58 -0.13,72.05l-36.5 0 0 -135.41c6.75,0 13.67,-0.13 20.57,0.03 10.14,0.28 10.48,8.68 11.82,15.1 31.36,-25.36 57.17,-24.76 79.9,2.75zm-308.88 116.43c8.81,-21.65 17.78,-43.24 26.41,-64.96 13.53,-34.05 24.08,-60.52 37.19,-94.74 2.25,-5.91 5.38,-15.28 14.31,-15.28 9.1,0 18.2,0.15 27.69,0.15 23.7,58.66 47.31,117.04 71.38,176.59 -13.26,0 -25.46,0.23 -37.64,-0.23 -2.03,-0.08 -4.81,-2.75 -5.74,-4.89 -3.25,-7.53 -5.45,-15.52 -8.91,-22.93 -1.11,-2.42 -4.84,-5.05 -7.42,-5.12 -19.68,-0.41 -39.39,-0.39 -59.09,-0.02 -2.35,0.05 -5.74,2.58 -6.75,4.81 -3.37,7.46 -5.49,15.49 -8.91,22.92 -1.11,2.43 -4.69,5.09 -7.26,5.22 -11.73,0.56 -23.5,0.24 -35.26,0.24l0 -1.76z"/>
   <path class="fil2" d="M70.49 625.28c0,-24.98 18.22,-43.26 42.92,-43.26 19.76,0 35.59,12.3 39.96,31.11l-13.86 0c-4.01,-11.14 -13.73,-17.85 -26.1,-17.85 -16.72,0 -28.99,12.59 -28.99,30 0,17.42 12.27,29.94 28.99,29.94 12.76,0 22.61,-7.2 26.38,-19.05l13.91 0c-4.34,19.64 -20.18,32.32 -40.28,32.32 -24.7,0 -42.92,-18.3 -42.92,-43.21zm1237.95 3.25l38.94 0c-2.37,-9.77 -9.75,-15.56 -19.55,-15.56 -9.97,0 -17.22,6 -19.39,15.56zm51.96 10.76l-52.29 0c1.66,10.43 9.17,16.85 19.72,16.85 7.69,0 13.92,-3.57 17.32,-9.44l13.93 0c-5.11,13.6 -16.87,21.86 -31.25,21.86 -18.83,0 -33.1,-14.54 -33.1,-33.76 0,-19.27 14.22,-33.79 33.1,-33.79 19.7,0 32.82,15.18 32.82,33.93 0,1.46 -0.11,2.9 -0.25,4.35zm-90.25 -4.5c0,-12.06 -8.96,-21.14 -21.12,-21.14 -12.14,0 -21.02,9 -21.02,21.14 0,12.13 8.88,21.13 21.02,21.13 12.15,0 21.12,-9.17 21.12,-21.13zm12.31 -55.3l0 87.5 -10.02 0 -1.69 -7.3c-5.8,5.58 -13.71,8.9 -22.75,8.9 -19.48,0 -33.48,-14.5 -33.48,-33.8 0,-19.41 14,-33.79 33.48,-33.79 8.26,0 15.59,2.77 21.22,7.5l0 -29.01 13.24 0zm-107.62 -2.42l14.07 0 -11.26 18.13 -10.21 0 7.4 -18.13zm-0.68 91.47c-17.67,0 -29.28,-11.43 -29.28,-28.76l0 -37.19 13.24 0 0 35.36c0,11.17 6.1,17.96 16.04,17.96 10.05,0 16.02,-6.91 16.02,-17.96l0 -35.36 13.24 0 0 37.19c0,17.34 -11.48,28.76 -29.25,28.76l-0.02 0zm-58.14 -33.79c0,-12.14 -8.85,-21.14 -21.01,-21.14 -12.14,0 -21.1,9.09 -21.1,21.14 0,12.05 8.96,21.13 21.1,21.13 12.15,0 21.01,-8.98 21.01,-21.13zm13.28 -32.21l0 64.42 -10.68 0 -1.27 -7.83c-5.85,5.9 -13.98,9.42 -23.37,9.42 -19.18,0 -33.54,-14.5 -33.54,-33.8 0,-19.36 14.36,-33.75 33.54,-33.75 9.49,0 17.71,3.59 23.55,9.6l1.54 -8.06 10.23 0zm-139.46 38.15l13.92 0c0,9.33 7.66,14.5 17.46,14.5 8.88,0 16.48,-4.68 16.48,-12.35 0,-8.31 -8.93,-10.4 -19,-12.76 -12.77,-3.1 -27.45,-6.64 -27.45,-23.87 0,-15.06 11.43,-23.95 29.23,-23.95 18.12,0 28.82,9.86 28.82,25.61l-13.52 0c0,-8.31 -6.91,-12.83 -15.61,-12.83 -8.32,0 -15.19,3.81 -15.19,10.61 0,7.71 8.57,9.81 18.49,12.15 12.99,3.23 28.27,6.96 28.27,24.89 0,16.71 -13.5,25.59 -30.38,25.59 -18.74,0 -31.51,-10.52 -31.51,-27.58zm-60.61 -39.58c13.57,0 22.75,10.32 22.75,24.92l0 40.97 -13.24 0 0 -37.72c0,-10.35 -4.52,-16.29 -12.54,-16.29 -8.54,0 -15.1,7.8 -15.1,18.78l0 35.23 -12.94 0 0 -37.72c0,-10.35 -4.48,-16.29 -12.54,-16.29 -8.58,0 -15.19,7.8 -15.19,18.78l0 35.23 -13.23 0 0 -64.42 9.39 0 2.28 8.31c4.84,-6.05 12.18,-9.78 20.01,-9.78 8.73,0 15.65,4.29 19.31,11.28 4.69,-6.93 12.52,-11.28 21.02,-11.28l0.01 0zm-136.27 27.41l38.94 0c-2.37,-9.77 -9.75,-15.56 -19.56,-15.56 -9.96,0 -17.2,6 -19.38,15.56zm51.94 10.76l-52.27 0c1.66,10.43 9.17,16.85 19.71,16.85 7.69,0 13.93,-3.57 17.32,-9.44l13.94 0c-5.13,13.6 -16.88,21.86 -31.27,21.86 -18.82,0 -33.09,-14.54 -33.09,-33.76 0,-19.27 14.23,-33.79 33.09,-33.79 19.71,0 32.83,15.18 32.83,33.93 0,1.46 -0.11,2.9 -0.27,4.35zm-117.23 -4.54c0,-12.14 -8.87,-21.14 -21.02,-21.14 -12.13,0 -21.09,9.09 -21.09,21.14 0,12.05 8.96,21.13 21.09,21.13 12.15,0 21.02,-8.98 21.02,-21.13zm13.27 -32.21l0 64.42 -10.68 0 -1.27 -7.83c-5.84,5.9 -13.98,9.42 -23.37,9.42 -19.18,0 -33.53,-14.5 -33.53,-33.8 0,-19.36 14.35,-33.75 33.53,-33.75 9.49,0 17.72,3.59 23.57,9.6l1.54 -8.06 10.22 0zm-94.12 0.04l13.24 0 0 64.4 -13.24 0 0 -64.4zm-0.23 -23.65l13.69 0 0 13.66 -13.69 0 0 -13.66zm-8.06 23.29l0 12.5 -6.99 0c-10.96,0 -16.43,6.24 -16.43,17.92l0 34.36 -13.24 0 0 -64.42 8.96 0 2.25 8.79c4.6,-6.11 10.92,-9.14 19.71,-9.14l5.74 0zm-62.19 32.57c0,-12.34 -8.76,-21.14 -20.95,-21.14 -12.2,0 -20.97,8.8 -20.97,21.14 0,12.33 8.77,21.13 20.97,21.13 12.2,0 20.95,-8.8 20.95,-21.13zm-55.4 0c0,-19.48 14.74,-33.79 34.45,-33.79 19.66,0 34.43,14.38 34.43,33.79 0,19.35 -14.78,33.76 -34.43,33.76 -19.71,0 -34.45,-14.41 -34.45,-33.76zm-4.75 20.18l0 12.02 -9.84 0c-14.1,0 -22.81,-8.71 -22.81,-22.94l0 -30.13 -11.53 0 0 -2.56 22.4 -23.82 2.27 0 0 15.04 19.17 0 0 11.33 -19.06 0 0 29.09c0,7.68 4.27,11.96 12.06,11.96l7.34 0zm-65.78 -75.48l13.24 0 0 87.51 -13.24 0 0 -87.51zm-44.92 89.06c-17.67,0 -29.28,-11.43 -29.28,-28.76l0 -37.2 13.23 0 0 35.36c0,11.17 6.11,17.97 16.05,17.97 10.04,0 16.02,-6.92 16.02,-17.97l0 -35.36 13.24 0 0 37.2c0,17.34 -11.48,28.76 -29.25,28.76l-0.02 0zm-93.01 -22l12.94 0c0.33,6.81 6.06,10.35 13.81,10.35 7.13,0 12.59,-2.99 12.59,-8.39 0,-6.1 -6.92,-7.5 -14.8,-8.84 -10.72,-1.81 -23.38,-4.27 -23.38,-19.19 0,-11.56 9.99,-19.47 24.97,-19.47 14.99,0 24.68,8.15 24.94,20.65l-12.55 0c-0.25,-6.14 -4.92,-9.43 -12.7,-9.43 -7.32,0 -11.85,3.11 -11.85,7.82 0,5.68 6.58,6.81 14.33,8.07 10.9,1.84 24.12,3.94 24.12,19.82 0,12.51 -10.43,20.61 -26.14,20.61 -15.64,0 -25.95,-8.66 -26.28,-22zm-36.01 -45.42c15.04,0 24.47,11.23 24.47,27.08l0 38.8 -13.24 0 0 -36.11c0,-11.7 -5.11,-17.89 -14.78,-17.89 -10.13,0 -17.31,8.12 -17.31,19.5l0 34.5 -13.24 0 0 -64.42 9.24 0 2.56 8.99c4.89,-6.5 12.85,-10.46 22.31,-10.46l0 0.02zm-59.63 33.67c0,-12.34 -8.76,-21.14 -20.95,-21.14 -12.2,0 -20.97,8.8 -20.97,21.14 0,12.33 8.77,21.13 20.97,21.13 12.19,0 20.95,-8.8 20.95,-21.13zm-55.4 0c0,-19.48 14.74,-33.79 34.45,-33.79 19.65,0 34.43,14.38 34.43,33.79 0,19.35 -14.78,33.76 -34.43,33.76 -19.71,0 -34.45,-14.41 -34.45,-33.76z"/>
  </g>
 </g>
</svg>
