<?xml version="1.0" encoding="UTF-8"?>
<!DOCTYPE svg PUBLIC "-//W3C//DTD SVG 1.1//EN" "http://www.w3.org/Graphics/SVG/1.1/DTD/svg11.dtd">
<!-- Creator: CorelDRAW 2019 (64 Bit) -->
<svg xmlns="http://www.w3.org/2000/svg" xml:space="preserve" width="41.234mm" height="19.2254mm" version="1.1" style="shape-rendering:geometricPrecision; text-rendering:geometricPrecision; image-rendering:optimizeQuality; fill-rule:evenodd; clip-rule:evenodd"
viewBox="0 0 60215.43 28075.51"
 xmlns:xlink="http://www.w3.org/1999/xlink">
 <defs>
  <style type="text/css">
   <![CDATA[
    .fil1 {fill:#1DBBEE;fill-rule:nonzero}
    .fil0 {fill:white;fill-rule:nonzero}
   ]]>
  </style>
 </defs>
 <g id="Camada_x0020_1">
  <metadata id="CorelCorpID_0Corel-Layer"/>
  <g id="_2843805726320">
   <path class="fil0" d="M56568.09 28075.51l-54798.75 0c-1285.82,0 -2141.14,-1329.63 -1608.41,-2500.09l1810.38 -3976.64c286.96,-630.57 915.92,-1035.52 1608.85,-1035.52l54865.64 0c1296.78,0 2151.95,1349.79 1598.04,2522.29l-1877.7 3976.64c-291.63,618.74 -914.46,1013.33 -1598.04,1013.33z"/>
   <path class="fil0" d="M6905.92 2360.78c-315.29,863.5 -596.55,1632.65 -885.55,2423.42l1772.7 0c-292.07,-797.93 -572.89,-1564.6 -887.15,-2423.42zm224.31 9577.6c-315.29,863.93 -596.55,1632.51 -884.96,2423.13l1772.12 0c-292.07,-797.78 -572.31,-1563.87 -887.15,-2423.13zm-3418.64 4970.69c342.59,-840.71 690.88,-1679.97 1026.18,-2524.33 526.01,-1323.79 936.07,-2352.16 1445.58,-3682.82 87.62,-229.71 209.12,-593.48 556.97,-593.48 352.82,0 706.8,5.7 1075.68,5.7 921.62,2279.58 1838.56,4548.36 2774.2,6862.99 -515.21,0 -989.67,9.2 -1463.11,-8.76 -78.27,-2.63 -187.07,-107.19 -223.14,-189.55 -126.17,-293.24 -211.75,-603.26 -346.1,-891.83 -43.37,-93.75 -188.09,-196.27 -288.56,-198.31 -765.07,-16.5 -1531.01,-15.48 -2296.67,-0.58 -91.12,1.61 -222.99,100.03 -262.13,186.48 -130.85,290.17 -213.35,602.83 -346.25,891.24 -43.23,93.9 -182.4,197.88 -281.84,202.55 -455.92,21.61 -913.88,9.2 -1370.82,9.78l0 -69.07zm17720.43 -7235.23l1404.26 0 0 1304.52 -1404.26 0 0 -1304.52zm1416.09 7279.33l-1414.63 0 0 -5263.34 1414.63 0 0 5263.34zm9685.52 -1263.92l0 1258.08c-16.5,3.07 -32.42,9.35 -48.92,9.35 -358.07,0 -715.56,6.13 -1073.64,-3.07 -350.33,-8.32 -685.19,-89.66 -985.58,-277.76 -461.03,-288.42 -692.78,-723.3 -753.09,-1248.73 -31.4,-275.13 -23.66,-555.95 -25.26,-834.14 -3.07,-545.43 -1.02,-1090.87 -1.02,-1637.03l0 -112.3 -946.44 0c0,-107.19 -3.5,-205.62 2.04,-303.46 1.17,-24.68 27.89,-49.94 47.46,-70.53 661.53,-702.13 1323.5,-1404.84 1987.08,-2105.51 22.64,-23.66 63.82,-38.7 97.84,-41.77 68.49,-6.72 138.59,-2.04 217.44,-2.04l0 1362.05 1445.58 0 0 1155.56 -1424.56 0 0 102.52c0,633.64 -1.46,1267.42 1.02,1900.92 0.58,104.56 6.28,212.19 31.98,313.24 84.55,334.85 343.62,521.34 735.13,532.58 196.27,5.7 393.12,1.61 589.39,2.04l103.54 0zm-8652.48 -455.19l1383.67 0c9.35,56.08 14.46,111.28 27.31,164.29 48.48,197.29 164.43,344.64 348.29,427.59 301.85,135.96 613.05,149.39 921.18,22.64 86.01,-35.49 169.4,-96.82 231.76,-166.33 178.74,-196.85 134.5,-468.77 -89.66,-610.57 -177.14,-112.3 -380.13,-147.35 -580.04,-191.6 -367.86,-81.34 -738.2,-154.07 -1101.97,-250.89 -232.78,-61.77 -443.5,-183.42 -624.44,-347.27 -337.34,-304.77 -447.15,-700.38 -420.87,-1137.31 43.37,-716.15 446.72,-1174.55 1092.18,-1421.93 663.58,-254.97 1343.65,-259.06 2010.3,-6.72 655.25,247.82 1041.66,723.89 1123,1430.25 5.7,48.92 1.02,99.3 1.02,154.94l-1345.11 0c-6.13,-37.53 -13.44,-74.62 -18.98,-111.72 -34.61,-216.86 -158.74,-363.19 -361.14,-436.93 -258.63,-94.19 -522.51,-98.86 -784.64,-14.9 -119.6,38.7 -221.09,107.63 -285.93,220.51 -115.37,199.34 -68.49,428.02 136.98,527.47 168.52,82.51 355.01,134.06 537.84,177.72 355.59,85.14 716.15,147.35 1071.16,233.51 236.87,58.12 458.4,161.22 653.21,312.07 408.46,316.16 529.08,753.68 495.05,1242.01 -53.59,762.44 -483.22,1245.08 -1183.31,1490.86 -688.84,242.12 -1387.9,250.45 -2071.05,-21.61 -642.4,-254.54 -1037.57,-723.74 -1144.17,-1417.69 -12.85,-86.16 -14.46,-173.2 -21.61,-268.41zm-7919.83 0.44l1383.23 0c8.76,53.59 13.87,108.21 26.72,160.78 51.11,211.75 179.33,362.16 377.64,444.53 284.47,118.58 576.98,129.82 865.54,21.17 92.15,-35.49 182.4,-98.43 250.89,-169.54 189.11,-198.31 145.74,-479.57 -86.6,-623.27 -177.72,-109.82 -379.69,-149.39 -581.07,-187.51 -399.26,-75.21 -803.62,-128.8 -1184.33,-280.82 -377.2,-149.98 -696.58,-369.17 -850.06,-763.9 -256.14,-658.9 -96.97,-1494.51 644.45,-1946.33 486.29,-295.72 1021.07,-377.06 1579.5,-340.99 449.78,28.77 871.67,145.74 1237.49,419.41 440.44,329.6 648.53,778.36 665.04,1331.68l-1350.81 0c-2.48,-7.74 -6.72,-18.55 -7.74,-29.35 -37.09,-317.91 -188.97,-486.29 -505.28,-557.41 -215.4,-47.46 -430.21,-46.88 -641.96,21.03 -116.97,37.68 -217.88,100.47 -286.37,206.64 -130.41,201.38 -83.53,444.09 130.85,548.21 166.33,80.76 349.75,131.28 530.54,174.51 355.45,84.55 715.56,146.91 1070.57,232.92 237.45,57.68 458.98,160.2 654.23,310.61 409.04,315.14 531.12,752.51 497.68,1240.99 -52.57,762.44 -481.18,1246.1 -1180.83,1493.48 -694.97,245.19 -1400.17,251.32 -2087.99,-25.26 -636.71,-257.16 -1027.2,-728.41 -1131.32,-1418.86 -12.27,-83.39 -12.85,-168.38 -20.01,-262.71zm-5122.41 1.02l1384.25 0c9.35,56.66 14.9,112.3 28.33,165.31 51.55,211.31 182.4,360.12 381.29,441.61 278.19,113.76 565.59,128.22 848.45,21.61 97.4,-37.68 194.22,-101.49 266.36,-177.28 184.88,-195.68 140.05,-473.88 -87.62,-616.7 -177.72,-111.28 -380.71,-145.74 -580.63,-189.99 -367.71,-81.49 -737.61,-154.65 -1101.97,-251.47 -229.71,-61.33 -437.81,-181.81 -617.14,-342.59 -341.57,-305.79 -452.27,-703.59 -424.96,-1143.44 43.23,-712.5 444.09,-1169.58 1085.9,-1417.25 672.92,-259.65 1361.18,-263.3 2034.39,-2.19 646.93,250.45 1025.59,726.52 1105.03,1425.58 5.11,48.92 0.44,98.86 0.44,153.48l-1344.97 0c-9.78,-57.68 -14.9,-113.91 -28.77,-166.92 -50.09,-190.14 -170.57,-318.35 -353.99,-383.78 -256,-91.71 -517.25,-99.89 -775.88,-15.48 -186.92,61.77 -320.98,179.77 -345.22,390.06 -18.98,165.31 44.39,298.2 191.74,361.58 172.61,75.21 355.45,132.45 538.86,176.26 355.45,84.41 716.59,145.16 1070.57,233.8 265.63,66.01 512.87,184 720.53,368.3 354.42,315.29 457.52,727.83 425.98,1178.64 -56.08,804.21 -522.8,1289.48 -1260.41,1524.88 -666.06,212.33 -1341.03,213.79 -1996.86,-49.36 -641.38,-257.16 -1035.96,-726.37 -1142.13,-1419.88 -12.85,-83.39 -13.87,-168.96 -21.61,-264.76zm40299.09 -10470.31c6.28,-824.36 -629.4,-1464.13 -1448.07,-1456.98 -813.41,7.16 -1424.99,621.37 -1429.67,1436.82 -5.11,830.49 619.33,1459.02 1444.56,1453.76 814.57,-4.53 1427.04,-617.14 1433.17,-1433.61zm210.73 -2171.52c-2.04,-458.98 257.6,-485.27 610.57,-485.27 180.79,0 555.8,3.65 555.8,3.65l0 5263.92 -1078.16 0c-43.37,-114.78 -93.32,-248.26 -158.15,-422.33 -760.98,596.55 -1602.72,730.46 -2498.63,494.03 -604.29,-159.76 -1092.18,-509.51 -1459.46,-1021.65 -765.65,-1069.55 -664.16,-2645.98 226.64,-3615.5 718.63,-782.45 2307.47,-1313.13 3801.4,-216.86zm-6923.74 -1200.83l0 -873.72 0 -418.39 1398.71 0 0 1292.1 -1398.71 0zm-9384.4 -1232.52c-207.66,-100.47 -471.4,-153.04 -741.27,-160.34l-1.61 0 -2.04 0c-270.45,7.3 -533.75,59.87 -741.41,160.34 -458.98,221.53 -715.56,860.72 -1073.05,1332.7 773.83,157.13 1410.1,63.38 1816.51,-589.83 405.97,653.21 1042.24,746.96 1815.93,589.83 -357.49,-471.98 -614.07,-1111.17 -1073.05,-1332.7zm9396.81 1969.41l1397.69 0 0 5241.87 -1397.69 0 0 -5241.87zm-13476.7 2.19c-793.4,1347.74 -1546.64,2627.87 -2327.04,3953.42l2207.44 0 0 1292.1 -4435.04 0c785.08,-1333.29 1538.75,-2614 2321.79,-3942.61l-2000.95 0 0 -1302.91 4233.8 0zm7229.82 -4.09c527.47,-15.92 1119.93,-219.93 1192.51,644.01 441.61,-415.76 885.69,-664.6 1424.99,-747.98 1200.83,-185.46 2212.55,524.41 2283.67,1732.98 69.51,1194.7 14.9,2397.14 14.9,3619.58l-1409.81 0c0,-115.37 0,-236.43 0,-357.05 -1.02,-868.46 11.24,-1737.65 -7.3,-2605.67 -17.96,-823.19 -290.02,-1152.5 -899.42,-1156 -681.68,-3.21 -1159.21,463.07 -1177.76,1198.79 -20.59,844.8 -7.16,1691.21 -9.2,2537.18 0,123.11 0,245.77 0,387.43l-1412.58 0 0 -5253.26zm-2496.73 2624.22c-2.04,-835.17 -601.22,-1449.24 -1410.98,-1445 -811.95,3.5 -1406.01,618.6 -1403.97,1453.76 1.61,839.25 594.5,1442.96 1412.14,1439.89 820.12,-3.65 1404.84,-607.35 1402.8,-1448.65zm-1431.13 2796.83c-1651.05,-9.78 -2843.27,-1205.51 -2830.42,-2838.6 12.41,-1587.68 1241.58,-2751.56 2892.78,-2739.59 1629,11.24 2826.19,1210.03 2815.38,2819.03 -10.22,1589.72 -1239.97,2768.94 -2877.73,2759.16zm-10042.43 -2783.69c6.13,-824.36 -629.55,-1464.13 -1448.21,-1456.98 -813.41,7.16 -1425.43,621.37 -1429.67,1436.82 -5.11,830.49 619.33,1459.02 1444.56,1453.76 814.57,-4.53 1427.04,-617.14 1433.32,-1433.61zm210.73 -2171.52c-2.19,-458.98 257.46,-485.27 610.42,-485.27 180.79,0 555.8,3.65 555.8,3.65l0 5263.92 -1078.16 0c-43.37,-114.78 -93.32,-248.26 -158.15,-422.33 -760.98,596.55 -1602.72,730.46 -2498.63,494.03 -604.29,-159.76 -1092.18,-509.51 -1459.46,-1021.65 -765.51,-1069.55 -664.01,-2645.98 226.64,-3615.5 718.63,-782.45 2306.89,-1313.13 3801.54,-216.86zm-8938.56 212.92c347.27,-403.49 740.39,-677.45 1247.27,-770.76 1104.45,-203.42 2057.03,451.83 2190.5,1573.36 75.79,632.18 53.59,1277.06 62.79,1916.4 8.76,604.87 2.19,1210.76 2.19,1844.84l-1435.36 0c0,-726.81 6.13,-1454.79 -2.04,-2182.76 -5.11,-421.45 -14.46,-845.39 -56.66,-1264.21 -33.44,-329.16 -203.57,-589.39 -561.5,-646.05 -386.4,-61.33 -774.42,2.63 -947.46,378.66 -146.76,319.96 -224.6,693.95 -237.45,1047.94 -32.42,878.25 -10.81,1759.26 -10.81,2667.45l-1400.31 0c0,-457.96 0.58,-912.27 -0.44,-1366.73 -1.02,-628.97 7.16,-1258.08 -8.76,-1886.61 -11.83,-472.86 -251.76,-786.1 -604.14,-844.8 -490.53,-81.92 -904.68,134.5 -1064.88,597.57 -76.81,221.53 -110.26,467.75 -113.32,703.3 -12.41,925.12 -5.26,1849.95 -5.26,2800.48l-1418.71 0 0 -5263.04c262.13,0 531.12,-5.26 799.53,1.46 394.14,10.37 407.43,336.9 459.57,586.76 1218.8,-985.43 2221.75,-962.21 3105.25,106.75zm-12005.12 4525.14c342.59,-840.71 690.74,-1679.97 1026.18,-2524.92 526.01,-1323.5 936.07,-2351.72 1445.58,-3682.38 87.62,-229.86 209.12,-594.06 556.83,-594.06 352.96,0 706.95,5.7 1075.68,5.7 921.76,2280.17 1838.71,4548.94 2774.2,6863.72 -515.06,0 -989.52,9.2 -1462.96,-8.76 -78.42,-2.63 -187.07,-107.19 -223.14,-189.7 -126.17,-293.09 -211.75,-603.26 -346.25,-891.68 -43.23,-93.75 -187.95,-196.27 -288.42,-198.31 -765.07,-16.5 -1531.16,-15.48 -2296.67,-0.58 -91.12,1.61 -223.14,100.03 -262.28,186.48 -130.85,290.02 -213.21,602.24 -346.1,891.24 -43.37,93.75 -182.4,197.29 -282.43,202.55 -455.92,21.61 -913.29,9.2 -1370.23,9.78l0 -69.07z"/>
   <path class="fil1" d="M3917.2 24134.8c0,-970.54 708.41,-1681.57 1668.14,-1681.57 767.7,0 1383.23,478.7 1553.21,1209.16l-538.86 0c-155.53,-432.7 -533.61,-693.95 -1014.35,-693.95 -649.56,0 -1126.65,489.5 -1126.65,1166.37 0,677.01 477.09,1163.74 1126.65,1163.74 496.08,0 878.98,-279.65 1025.15,-740.24l540.47 0c-168.52,763.46 -784.05,1256.03 -1565.62,1256.03 -959.73,0 -1668.14,-711.47 -1668.14,-1679.53zm51240.36 826.55l502.79 0c13,264.9 235.55,402.91 536.82,402.91 276.73,0 489.5,-116.97 489.5,-326.53 0,-237.01 -268.99,-291.19 -575.52,-343.62 -416.78,-70.68 -908.77,-165.89 -908.77,-746.08 0,-448.61 388.45,-756.75 970.54,-756.75 582.24,0 959.29,316.89 969.66,802.6l-487.9 0c-10.37,-238.47 -191.16,-366.25 -494.03,-366.25 -283.89,0 -460.01,121.06 -460.01,303.9 0,221.09 255.41,264.9 556.83,313.83 423.5,71.56 937.68,153.04 937.68,770.18 0,486.29 -405.53,801.58 -1015.95,801.58 -608.38,0 -1008.8,-336.46 -1021.65,-855.76zm-998.87 -458.25c0,-471.83 -344.64,-821.73 -816.62,-821.73 -471.83,0 -820.12,353.4 -820.12,821.73 0,468.77 348.29,821.15 820.12,821.15 471.98,0 816.62,-348.73 816.62,-821.15zm516.23 -1251.8l0 2503.74 -415.32 0 -49.94 -304.48c-227.23,229.27 -542.95,366.69 -908.18,366.69 -745.5,0 -1303.49,-563.54 -1303.49,-1314.15 0,-752.66 557.99,-1311.67 1303.49,-1311.67 368.88,0 688.69,140.19 915.92,373.12l59.73 -313.24 397.8 0zm-3507.14 1253.26c0,-479.57 -340.55,-821.58 -814.43,-821.58 -474.02,0 -814.57,342.01 -814.57,821.58 0,479.14 340.55,821.29 814.57,821.29 473.88,0 814.43,-342.16 814.43,-821.29zm-2153.41 0c0,-757.18 573.33,-1313.13 1338.98,-1313.13 763.9,0 1338.4,559.02 1338.4,1313.13 0,752.66 -574.5,1312.69 -1338.4,1312.69 -765.65,0 -1338.98,-560.04 -1338.98,-1312.69zm-2343.11 456.79l502.79 0c13,264.9 235.55,402.91 536.82,402.91 276.73,0 489.5,-116.97 489.5,-326.53 0,-237.01 -268.99,-291.19 -575.52,-343.62 -416.78,-70.68 -908.77,-165.89 -908.77,-746.08 0,-448.61 388.45,-756.75 970.54,-756.75 582.24,0 959.29,316.89 969.66,802.6l-487.9 0c-10.37,-238.47 -191.16,-366.25 -494.03,-366.25 -283.89,0 -460.15,121.06 -460.15,303.9 0,221.09 255.56,264.9 556.97,313.83 423.5,71.56 937.68,153.04 937.68,770.18 0,486.29 -405.53,801.58 -1015.95,801.58 -608.52,0 -1008.8,-336.46 -1021.65,-855.76zm-2362.82 0l502.94 0c12.85,264.9 235.41,402.91 537.26,402.91 276.59,0 488.92,-116.97 488.92,-326.53 0,-237.01 -268.99,-291.19 -575.52,-343.62 -416.78,-70.68 -908.77,-165.89 -908.77,-746.08 0,-448.61 388.45,-756.75 970.68,-756.75 582.67,0 959.15,316.89 969.52,802.6l-487.9 0c-9.78,-238.47 -191.16,-366.25 -493.45,-366.25 -284.47,0 -460.59,121.06 -460.59,303.9 0,221.09 255.41,264.9 557.41,313.83 423.5,71.56 937.1,153.04 937.1,770.18 0,486.29 -405.53,801.58 -1015.95,801.58 -607.94,0 -1008.65,-336.46 -1021.65,-855.76zm-2319.6 -700.23l1513.49 0c-92.29,-379.69 -379.25,-604.87 -759.96,-604.87 -387.28,0 -668.98,233.36 -753.53,604.87zm2018.91 418.24l-2031.76 0c64.4,405.97 356.47,654.81 766.38,654.81 298.35,0 540.91,-138 673.36,-366.25l541.93 0c-199.34,528.06 -656.27,849.48 -1215.29,849.48 -731.92,0 -1286.7,-565.15 -1286.7,-1312.69 0,-749.01 553.32,-1313.13 1286.7,-1313.13 766.09,0 1276.19,590.41 1276.19,1318.83 0,56.66 -4.67,112.88 -10.81,168.96zm-3317.44 -1096.86c0,-326.09 -242.56,-566.76 -590.27,-566.76l-641.52 0 0 1133.95 641.52 0c347.71,0 590.27,-240.66 590.27,-567.19zm541.49 0c0,612.46 -473.88,1072.03 -1106.06,1072.03l-667.23 0 0 1101.97 -532.15 0 0 -3245.59 1199.37 0c628.97,0 1106.06,455.92 1106.06,1071.59zm-5866.46 678.62l1513.49 0c-92.73,-379.69 -379.1,-604.87 -760.4,-604.87 -387.43,0 -668.69,233.36 -753.09,604.87zm2018.91 418.24l-2031.91 0c64.4,405.97 356.61,654.81 766.09,654.81 298.78,0 541.49,-138 673.36,-366.25l541.93 0c-199.34,528.06 -656.27,849.48 -1215.29,849.48 -731.48,0 -1286.41,-565.15 -1286.41,-1312.69 0,-749.01 553.32,-1313.13 1286.41,-1313.13 766.09,0 1276.04,590.41 1276.04,1318.83 0,56.66 -4.09,112.88 -10.22,168.96zm-3507.58 -174.8c0,-468.77 -347.85,-821.58 -820.27,-821.58 -471.83,0 -817.06,349.75 -817.06,821.58 0,471.98 345.22,821.29 817.06,821.29 472.42,0 820.27,-356.03 820.27,-821.29zm478.55 -2149.32l0 3401.26 -389.47 0 -66.01 -283.89c-225.04,216.86 -532.58,346.25 -883.5,346.25 -757.33,0 -1301.74,-563.69 -1301.74,-1314.3 0,-754.12 544.41,-1313.13 1301.74,-1313.13 320.98,0 605.89,107.63 824.8,291.63l0 -1127.82 514.18 0zm-5985.33 2606.11l502.79 0c13,264.9 235.55,402.91 536.82,402.91 276.73,0 489.5,-116.97 489.5,-326.53 0,-237.01 -268.99,-291.19 -575.52,-343.62 -416.78,-70.68 -908.77,-165.89 -908.77,-746.08 0,-448.61 388.45,-756.75 970.68,-756.75 582.53,0 959.15,316.89 969.52,802.6l-487.9 0c-10.37,-238.47 -191.16,-366.25 -493.59,-366.25 -284.33,0 -460.44,121.06 -460.44,303.9 0,221.09 255.41,264.9 557.41,313.83 422.91,71.56 937.1,153.04 937.1,770.18 0,486.29 -405.53,801.58 -1015.95,801.58 -608.38,0 -1008.8,-336.46 -1021.65,-855.76zm-2320.33 -700.23l1513.64 0c-92.15,-379.69 -379.1,-604.87 -760.4,-604.87 -387.43,0 -668.69,233.36 -753.24,604.87zm2019.06 418.24l-2031.91 0c64.4,405.97 356.61,654.81 766.09,654.81 298.78,0 541.49,-138 673.8,-366.25l541.49 0c-198.9,528.06 -655.84,849.48 -1215.29,849.48 -731.48,0 -1286.41,-565.15 -1286.41,-1312.69 0,-749.01 553.32,-1313.13 1286.41,-1313.13 766.09,0 1276.04,590.41 1276.04,1318.83 0,56.66 -4.09,112.88 -10.22,168.96zm-2680.74 -1440.47l0 486.29 -271.48 0c-426.13,0 -638.31,242.12 -638.31,696l0 1335.33 -514.77 0 0 -2503.74 348.29 0 87.04 341.57c178.89,-237.6 424.52,-355.45 766.09,-355.45l223.14 0zm-2417.44 1265.67c0,-479.57 -340.55,-821.58 -814.43,-821.58 -474.02,0 -814.57,342.01 -814.57,821.58 0,479.14 340.55,821.29 814.57,821.29 473.88,0 814.43,-342.16 814.43,-821.29zm-2153.41 0c0,-757.18 573.33,-1313.13 1338.98,-1313.13 763.9,0 1338.4,559.02 1338.4,1313.13 0,752.66 -574.5,1312.69 -1338.4,1312.69 -765.65,0 -1338.98,-560.04 -1338.98,-1312.69zm-947.17 0c0,-468.77 -348.29,-821.58 -820.27,-821.58 -471.83,0 -817.06,349.75 -817.06,821.58 0,471.98 345.22,821.29 817.06,821.29 471.98,0 820.27,-356.03 820.27,-821.29zm478.55 -2149.32l0 3401.26 -389.47 0 -66.01 -283.89c-225.04,216.86 -532.58,346.25 -883.94,346.25 -756.89,0 -1301.3,-563.69 -1301.3,-1314.3 0,-754.12 544.41,-1313.13 1301.3,-1313.13 321.42,0 605.75,107.63 824.8,291.63l0 -1127.82 514.62 0zm-3635.21 2147.86c0,-471.83 -344.78,-821.73 -816.62,-821.73 -471.83,0 -820.12,353.4 -820.12,821.73 0,468.77 348.29,821.15 820.12,821.15 471.83,0 816.62,-348.73 816.62,-821.15zm516.08 -1251.8l0 2503.74 -415.17 0 -49.94 -304.48c-227.23,229.27 -542.95,366.69 -908.33,366.69 -745.35,0 -1303.35,-563.54 -1303.35,-1314.15 0,-752.66 557.99,-1311.67 1303.35,-1311.67 368.88,0 688.84,140.19 916.07,373.12l59.73 -313.24 397.65 0zm-3632.73 1253.26c0,-468.77 -347.71,-821.58 -820.12,-821.58 -471.83,0 -817.06,349.75 -817.06,821.58 0,471.98 345.22,821.29 817.06,821.29 472.42,0 820.12,-356.03 820.12,-821.29zm478.7 -2149.32l0 3401.26 -389.47 0 -65.42 -283.89c-225.77,216.86 -533.31,346.25 -884.09,346.25 -757.33,0 -1301.89,-563.69 -1301.89,-1314.3 0,-754.12 544.56,-1313.13 1301.89,-1313.13 320.98,0 605.31,107.63 824.8,291.63l0 -1127.82 514.18 0zm-3621.04 897.52l514.62 0 0 2503.16 -514.62 0 0 -2503.16zm-8.18 -919.13l532.15 0 0 531.12 -532.15 0 0 -531.12zm-1725.82 3483.48c-687.23,0 -1138.48,-444.53 -1138.48,-1118.32l0 -1446.17 514.62 0 0 1374.47c0,434.3 237.6,698.62 623.85,698.62 390.06,0 622.83,-268.99 622.83,-698.62l0 -1374.47 514.77 0 0 1446.17c0,673.8 -446.72,1118.32 -1137.02,1118.32l-0.58 0z"/>
  </g>
 </g>
</svg>
