<svg xmlns="http://www.w3.org/2000/svg" xmlns:xlink="http://www.w3.org/1999/xlink" viewBox="0 0 93.24 135.35"><defs><style>.cls-1{mask:url(#mask);filter:url(#luminosity-noclip-2);}.cls-2,.cls-5,.cls-7,.cls-9{mix-blend-mode:multiply;}.cls-2{fill:url(#radial-gradient);}.cls-3{isolation:isolate;}.cls-4{mask:url(#mask-2);}.cls-5{fill:url(#radial-gradient-2);}.cls-6,.cls-7,.cls-9{fill:#f5ccb8;}.cls-8{fill:#f198bf;}.cls-9{opacity:0.8;}.cls-10{fill:#c5672e;}.cls-11{fill:#fff;}.cls-12{filter:url(#luminosity-noclip);}</style><filter id="luminosity-noclip" x="0" y="-8014.47" width="93.24" height="32766" filterUnits="userSpaceOnUse" color-interpolation-filters="sRGB"><feFlood flood-color="#fff" result="bg"/><feBlend in="SourceGraphic" in2="bg"/></filter><mask id="mask" x="0" y="-8014.47" width="93.24" height="32766" maskUnits="userSpaceOnUse"><g class="cls-12"/></mask><radialGradient id="radial-gradient" cx="556.61" cy="4158.87" r="56.76" gradientTransform="translate(-410.47 -441.77) scale(0.82 0.14)" gradientUnits="userSpaceOnUse"><stop offset="0" stop-color="#fff"/><stop offset="0.12" stop-color="#fbfbfb"/><stop offset="0.25" stop-color="#eee"/><stop offset="0.37" stop-color="#dadada"/><stop offset="0.5" stop-color="#bcbcbc"/><stop offset="0.63" stop-color="#979797"/><stop offset="0.76" stop-color="#696969"/><stop offset="0.89" stop-color="#343434"/><stop offset="1"/></radialGradient><filter id="luminosity-noclip-2" x="0" y="119.8" width="93.24" height="15.54" filterUnits="userSpaceOnUse" color-interpolation-filters="sRGB"><feFlood flood-color="#fff" result="bg"/><feBlend in="SourceGraphic" in2="bg"/></filter><mask id="mask-2" x="0" y="119.8" width="93.24" height="15.54" maskUnits="userSpaceOnUse"><g class="cls-1"><ellipse id="shadow" class="cls-2" cx="46.62" cy="127.58" rx="46.62" ry="7.77"/></g></mask><radialGradient id="radial-gradient-2" cx="556.61" cy="4158.87" r="56.76" gradientTransform="translate(-410.47 -441.77) scale(0.82 0.14)" gradientUnits="userSpaceOnUse"><stop offset="0" stop-color="#a6a6a6"/><stop offset="0.21" stop-color="#aaa"/><stop offset="0.42" stop-color="#b7b7b7"/><stop offset="0.64" stop-color="#cbcbcb"/><stop offset="0.86" stop-color="#e8e8e8"/><stop offset="1" stop-color="#fff"/></radialGradient></defs><title>Ativo 10</title><g class="cls-3"><g id="Camada_2" data-name="Camada 2"><g id="Layer_2" data-name="Layer 2"><g id="nurse"><g class="cls-4"><ellipse id="shadow-2" data-name="shadow" class="cls-5" cx="46.62" cy="127.58" rx="46.62" ry="7.77"/></g><polygon class="cls-6" points="59.44 82.9 55.17 81.99 55.17 71.09 38.07 71.09 38.07 81.99 33.8 82.9 38.07 109.88 55.17 109.88 59.44 82.9"/><polygon class="cls-7" points="38.07 71.16 38.07 76.75 55.17 81.99 55.17 71.16 38.07 71.16"/><path class="cls-6" d="M90.1,128.29c-.34-2.21-.76-8.3-1.32-10.48L78,122.61c.09.55.18,5,.29,5.68Z"/><path class="cls-6" d="M15,128.29c.1-.64.2-5.13.29-5.67L4.46,117.81c-.56,2.18-1,8.27-1.32,10.48Z"/><path class="cls-8" d="M16.36,128.29H76.88l0-2.85,14.08-7.84-4.7-21A11.65,11.65,0,0,0,78,88L57,82.07,46.62,104.72,36.21,82.07,15.25,88A11.65,11.65,0,0,0,7,96.63l-4.7,21,14.08,7.84Z"/><path class="cls-6" d="M66.2,42.26V33.37C66.2,23.93,55.27,12,46.62,12S27,23.93,27,33.37v8.89a4.32,4.32,0,0,0-4.35,4.28V51A4.32,4.32,0,0,0,27,55.26C27,64.7,38,77,46.62,77S66.2,64.7,66.2,55.26A4.32,4.32,0,0,0,70.55,51V46.54A4.32,4.32,0,0,0,66.2,42.26Z"/><path class="cls-9" d="M46.62,61.15V77C55.27,77,66.2,64.7,66.2,55.26A4.32,4.32,0,0,0,70.55,51V46.54a4.32,4.32,0,0,0-4.35-4.28V33.37C66.2,23.93,55.27,12,46.62,12V46.62A58.32,58.32,0,0,0,42.27,60.3Z"/><circle class="cls-10" cx="59.77" cy="11.97" r="11.97" transform="matrix(0.39, -0.92, 0.92, 0.39, 25.52, 62.39)"/><path class="cls-11" d="M66.07,41.17C64.35,40,61.2,40,58.36,40c-4.78,0-8,.94-9.54,2.79a4.54,4.54,0,0,0-2.2-.4,4.54,4.54,0,0,0-2.2.4C42.87,41,39.66,40,34.88,40c-2.85,0-6,0-7.7,1.16h-3v3.25l1.3.72c0,5.07,2.5,10.94,9.41,10.94,5.68,0,9.2-3.08,10.46-9.16a5.71,5.71,0,0,0,.12-1.28,1.34,1.34,0,0,1,2.32,0,5.71,5.71,0,0,0,.12,1.28c1.26,6.08,4.78,9.16,10.46,9.16,6.91,0,9.38-5.87,9.41-10.94l1.3-.72V41.17ZM43.83,46.61c-1.1,5.34-4,7.93-8.95,7.93-7.5,0-7.88-7.9-7.88-9.49a3.27,3.27,0,0,1,.78-2.42c1-1,4.64-1.08,7.1-1.08,5.41,0,7.55,1.23,8.39,2.27A3.19,3.19,0,0,1,43.83,46.61Zm14.53,7.93c-4.92,0-7.85-2.59-9-7.93A3.19,3.19,0,0,1,50,43.82c.84-1,3-2.27,8.39-2.27,2.78,0,6,0,7.1,1.08a3.27,3.27,0,0,1,.78,2.42C66.24,46.64,65.86,54.54,58.36,54.54Z"/><path class="cls-10" d="M36.75,33.73c-.59,2.09-1.72,4.84-3.7,6.48a29,29,0,0,0,14.35-9,12.46,12.46,0,0,1-3.75,6.42A25.9,25.9,0,0,0,48.19,35c3.24-2.27,5.27-5.22,7.4-8.21,2.08,7.63,5.43,14.9,13.52,18.91C74.92,34,73.68,7,48.22,6.17c-31.55-1-30.46,32.76-28.28,41C26.54,45.07,35.4,35.72,36.75,33.73Z"/></g></g></g></g></svg>