<?xml version="1.0" encoding="utf-8"?>
<!-- Generator: Adobe Illustrator 19.0.0, SVG Export Plug-In . SVG Version: 6.00 Build 0)  -->
<svg version="1.1" id="Layer_1" xmlns="http://www.w3.org/2000/svg" xmlns:xlink="http://www.w3.org/1999/xlink" x="0px" y="0px"
	 viewBox="-621 310.2 356.8 281.8" style="enable-background:new -621 310.2 356.8 281.8;" xml:space="preserve">
<style type="text/css">
	.st0{opacity:0.5;}
	.st1{fill:#75E26F;}
	.st2{fill:#FFFFFF;}
	.st3{fill:url(#SVGID_1_);}
	.st4{fill:url(#SVGID_2_);}
	.st5{fill:url(#SVGID_3_);}
	.st6{fill:url(#SVGID_4_);}
	.st7{fill:url(#SVGID_5_);}
	.st8{fill:url(#SVGID_6_);}
	.st9{fill:url(#SVGID_7_);}
	.st10{fill:url(#SVGID_8_);}
	.st11{fill:url(#SVGID_9_);}
	.st12{fill:url(#SVGID_10_);}
</style>
<g>
	<g class="st0">
		<polygon class="st1" points="-521.3,443.4 -530.4,438.3 -535,439.6 -525.8,444.7 		"/>
		<polygon class="st1" points="-523.5,414.9 -522.2,419.6 -513,424.7 -514.3,420 		"/>
		<polygon class="st1" points="-571.7,419 -562.5,424.1 -563.8,419.6 -572.9,414.4 		"/>
		<polygon class="st1" points="-520.5,425.4 -517.9,434.8 -524.6,436.7 -515.4,441.8 -508.7,439.9 -511.4,430.6 		"/>
		<polygon class="st1" points="-565.4,413.7 -567.3,407 -536.8,398.5 -546,393.3 -576.5,401.9 -574.6,408.6 		"/>
		<polygon class="st1" points="-543.9,442.1 -556.5,445.6 -560,433 -569.2,427.9 -561.6,454.8 -534.7,447.2 		"/>
		<polygon class="st1" points="-540.1,391.7 -531,396.8 -528.1,398.4 -518.9,403.6 -523.6,387 		"/>
		<polygon class="st1" points="-526.5,404.3 -525.1,409 -516,414.2 -517.3,409.4 		"/>
	</g>
	<g>
		<path class="st2" d="M-484.8,443.9h-17.7l6.4-6.4h17.7L-484.8,443.9z M-499.2,442.6h13.9l3.7-3.7h-13.9L-499.2,442.6z"/>
		<path class="st2" d="M-481.3,408.3H-499l-6.6-6.6h17.7L-481.3,408.3z M-498.5,406.9h13.9l-3.9-3.9h-13.9L-498.5,406.9z"/>
		<path class="st2" d="M-546.7,443.9h-17.7l-6.4-6.4h17.7L-546.7,443.9z M-563.9,442.6h13.9l-3.7-3.7h-13.8L-563.9,442.6z"/>
		<path class="st2" d="M-473.3,432.5H-491l8.1-8.1l-11-11h17.7l11,11L-473.3,432.5z M-487.7,431.1h13.9l6.7-6.7l-9.6-9.6h-13.9
			l9.6,9.6L-487.7,431.1z"/>
		<path class="st2" d="M-558.2,432.5h-17.7l-8.1-8.1l34.4-34.4h17.7l-34.4,34.4L-558.2,432.5z M-575.3,431.1h13.8l-6.7-6.7l33-33
			h-13.9l-33,33L-575.3,431.1z"/>
		<path class="st2" d="M-524.6,483.8l-31.4-31.4h17.7l13.6,13.6l13.6-13.6h17.7L-524.6,483.8z M-552.7,453.8l28.1,28.1l28.1-28.1
			h-13.9l-14.2,14.2l-14.2-14.2H-552.7z"/>
		<path class="st2" d="M-504.7,384.9h-39.8l19.9-19.9L-504.7,384.9z M-541.2,383.5h33.3l-16.6-16.6L-541.2,383.5z"/>
		<path class="st2" d="M-493,396.6h-17.7l-6.6-6.6h17.7L-493,396.6z M-510.2,395.2h13.9l-3.9-3.9h-13.9L-510.2,395.2z"/>
	</g>
	<g class="st0">
		<path class="st2" d="M-301.5,403.7L-301.5,403.7L-301.5,403.7C-301.5,403.6-301.5,403.6-301.5,403.7c0-0.1-0.1-0.1-0.1-0.2
			c0,0,0,0,0-0.1c-0.4-0.9-0.9-1.6-1.6-2l-0.2-0.1l0,0l-23.8-13.7l-23.8-13.7l0,0l-0.2-0.1c-0.7-0.4-1.4-0.4-2-0.1l0,0l0,0l-3.1,1.8
			l1.8,0.8l-6.3,33.3c-0.2,0.9,0,1.8,0.3,2.7c0,0,0,0,0,0.1c0,0,0,0,0,0.1c0.4,0.9,0.9,1.6,1.6,2l47.4,27.4l-0.4,2.1l3-1.7l0,0
			c0.6-0.3,1-0.9,1.2-1.8l6.4-34.1C-301,405.4-301.2,404.5-301.5,403.7z"/>
		<g>
			
				<linearGradient id="SVGID_1_" gradientUnits="userSpaceOnUse" x1="-8442.6719" y1="1741.9012" x2="-8374.54" y2="1741.9012" gradientTransform="matrix(0.781 0.4511 -0.1965 1.0417 6575.2397 2388.4053)">
				<stop  offset="0" style="stop-color:#75E26F"/>
				<stop  offset="1" style="stop-color:#79BF26"/>
			</linearGradient>
			<path class="st3" d="M-314,443.9l-48-27.7c-1.5-0.8-2.3-3.1-2-5l6.3-33.6c0.4-1.9,1.8-2.8,3.3-2l48,27.7c1.5,0.8,2.3,3.1,2,5
				l-6.3,33.6C-311,443.8-312.5,444.7-314,443.9z"/>
			
				<linearGradient id="SVGID_2_" gradientUnits="userSpaceOnUse" x1="-8358.6475" y1="1778.0255" x2="-8395.7383" y2="1737.8041" gradientTransform="matrix(0.781 0.4511 -0.1965 1.0417 6575.2397 2388.4053)">
				<stop  offset="0.7677" style="stop-color:#79BF26"/>
				<stop  offset="0.8298" style="stop-color:#76BA25"/>
				<stop  offset="0.8992" style="stop-color:#6CAD21"/>
				<stop  offset="0.9719" style="stop-color:#5C971C"/>
				<stop  offset="1" style="stop-color:#548C19"/>
			</linearGradient>
			<path class="st4" d="M-306.5,403.1l-23.8-13.7l-7.5,39.5l23.6,14.8c1.6,0.9,3.1,0.2,3.4-1.6l6.4-34.1
				C-303.9,406.2-304.9,404-306.5,403.1z"/>
			
				<linearGradient id="SVGID_3_" gradientUnits="userSpaceOnUse" x1="-2250.8608" y1="1778.1154" x2="-2287.9512" y2="1737.8944" gradientTransform="matrix(-0.781 -0.4511 -0.1965 1.0417 -1788.8323 -2442.7749)">
				<stop  offset="0.7677" style="stop-color:#79BF26"/>
				<stop  offset="0.8298" style="stop-color:#76BA25"/>
				<stop  offset="0.8992" style="stop-color:#6CAD21"/>
				<stop  offset="0.9719" style="stop-color:#5C971C"/>
				<stop  offset="1" style="stop-color:#548C19"/>
			</linearGradient>
			<path class="st5" d="M-354.1,375.7l23.8,13.7l-7.4,39.3l-24-12.4c-1.6-0.9-2.5-3.1-2.2-4.9l6.4-34.1
				C-357.2,375.5-355.6,374.8-354.1,375.7z"/>
			
				<linearGradient id="SVGID_4_" gradientUnits="userSpaceOnUse" x1="-8408.5625" y1="1800.0505" x2="-8408.5625" y2="1742.6182" gradientTransform="matrix(0.781 0.4511 -0.1965 1.0417 6575.2397 2388.4053)">
				<stop  offset="0.7677" style="stop-color:#548C19"/>
				<stop  offset="0.8312" style="stop-color:#4F8819"/>
				<stop  offset="0.9021" style="stop-color:#427B19"/>
				<stop  offset="0.9765" style="stop-color:#2C6718"/>
				<stop  offset="1" style="stop-color:#235F18"/>
			</linearGradient>
			<path class="st6" d="M-363.6,413.9c0.4,1,1.1,1.8,1.9,2.3l47.6,27.5c0.8,0.5,1.7,0.5,2.3,0.1l-21.3-39.3L-363.6,413.9z"/>
			
				<linearGradient id="SVGID_5_" gradientUnits="userSpaceOnUse" x1="-8431.3809" y1="1714.1755" x2="-8372.7871" y2="1745.2327" gradientTransform="matrix(0.781 0.4511 -0.1965 1.0417 6575.2397 2388.4053)">
				<stop  offset="0" style="stop-color:#75E26F"/>
				<stop  offset="1" style="stop-color:#79BF26"/>
			</linearGradient>
			<path class="st7" d="M-304.6,405.5c-0.4-1-1.1-1.8-1.9-2.3l-47.6-27.5c-0.8-0.5-1.7-0.5-2.3-0.1l21.3,39.3L-304.6,405.5z"/>
		</g>
	</g>
	<g>
		<path class="st2" d="M-523.7,432.6L-523.7,432.6L-523.7,432.6c0-0.1,0.1-0.2,0.1-0.2c0-0.1,0-0.1,0.1-0.2c0-0.1,0-0.1,0.1-0.2
			c0.9-2.2,2.3-4,4.1-5l0.5-0.3l0,0l60.1-34.7l60.1-34.7l0,0l0.5-0.3c1.7-1,3.5-1,5-0.2c0,0,0.1,0,0.1,0.1c0,0,0.1,0,0.1,0.1
			l7.9,4.6l-4.6,1.9l15.9,84.1c0.4,2.2,0,4.6-0.9,6.7c0,0.1,0,0.1-0.1,0.2c0,0.1,0,0.1-0.1,0.2c-0.9,2.2-2.3,4-4.1,5l-119.8,69.2
			l1.1,5.3l-7.5-4.4c0,0-0.1,0-0.1-0.1c-1.5-0.8-2.6-2.3-3-4.5l-16.2-86.1C-524.8,437-524.5,434.7-523.7,432.6z"/>
		<g>
			
				<linearGradient id="SVGID_6_" gradientUnits="userSpaceOnUse" x1="-5377.5801" y1="428.5407" x2="-5205.3442" y2="428.5407" gradientTransform="matrix(-0.781 0.4511 0.1965 1.0417 -4658.1147 2388.4053)">
				<stop  offset="0" style="stop-color:#75E26F"/>
				<stop  offset="1" style="stop-color:#79BF26"/>
			</linearGradient>
			<path class="st8" d="M-492.2,534.1l121.2-70c3.7-2.1,5.9-7.8,5-12.7l-16-84.9c-0.9-4.9-4.6-7.1-8.3-5l-121.2,70
				c-3.7,2.1-5.9,7.8-5,12.7l16,84.9C-499.6,534-495.9,536.2-492.2,534.1z"/>
			
				<linearGradient id="SVGID_7_" gradientUnits="userSpaceOnUse" x1="-5165.1504" y1="519.9332" x2="-5258.8481" y2="418.3268" gradientTransform="matrix(-0.781 0.4511 0.1965 1.0417 -4658.1147 2388.4053)">
				<stop  offset="0.7677" style="stop-color:#79BF26"/>
				<stop  offset="0.8298" style="stop-color:#76BA25"/>
				<stop  offset="0.8992" style="stop-color:#6CAD21"/>
				<stop  offset="0.9719" style="stop-color:#5C971C"/>
				<stop  offset="1" style="stop-color:#548C19"/>
			</linearGradient>
			<path class="st9" d="M-511.1,431.2l60.1-34.7l18.8,99.8l-59.6,37.5c-3.9,2.3-7.8,0.4-8.7-4.1l-16.2-86.1
				C-517.5,439-515,433.5-511.1,431.2z"/>
			
				<linearGradient id="SVGID_8_" gradientUnits="userSpaceOnUse" x1="-5291.75" y1="519.9271" x2="-5385.4463" y2="418.3218" gradientTransform="matrix(0.781 -0.4511 0.1965 1.0417 3705.957 -2442.7749)">
				<stop  offset="0.7677" style="stop-color:#79BF26"/>
				<stop  offset="0.8298" style="stop-color:#76BA25"/>
				<stop  offset="0.8992" style="stop-color:#6CAD21"/>
				<stop  offset="0.9719" style="stop-color:#5C971C"/>
				<stop  offset="1" style="stop-color:#548C19"/>
			</linearGradient>
			<path class="st10" d="M-390.9,361.8l-60.1,34.7l18.7,99.2l60.7-31.3c3.9-2.3,6.4-7.8,5.6-12.4l-16.2-86.1
				C-383.1,361.4-387,359.5-390.9,361.8z"/>
			
				<linearGradient id="SVGID_9_" gradientUnits="userSpaceOnUse" x1="-5291.4063" y1="575.578" x2="-5291.4063" y2="430.4935" gradientTransform="matrix(-0.781 0.4511 0.1965 1.0417 -4658.1147 2388.4053)">
				<stop  offset="0.7677" style="stop-color:#548C19"/>
				<stop  offset="0.8478" style="stop-color:#4F8816"/>
				<stop  offset="0.9373" style="stop-color:#427B0C"/>
				<stop  offset="1" style="stop-color:#346D02"/>
			</linearGradient>
			<path class="st11" d="M-366.7,458.5c-1,2.5-2.7,4.6-4.8,5.9l-120.2,69.4c-2.1,1.2-4.2,1.2-5.9,0.3l53.8-99.2L-366.7,458.5z"/>
			
				<linearGradient id="SVGID_10_" gradientUnits="userSpaceOnUse" x1="-5348.8682" y1="358.5928" x2="-5200.8481" y2="437.0488" gradientTransform="matrix(-0.781 0.4511 0.1965 1.0417 -4658.1147 2388.4053)">
				<stop  offset="0" style="stop-color:#75E26F"/>
				<stop  offset="1" style="stop-color:#79BF26"/>
			</linearGradient>
			<path class="st12" d="M-515.9,437.1c1-2.5,2.7-4.6,4.8-5.9l120.2-69.4c2.1-1.2,4.2-1.2,5.9-0.3l-53.8,99.2L-515.9,437.1z"/>
		</g>
	</g>
</g>
</svg>
