<svg xmlns="http://www.w3.org/2000/svg" viewBox="0 0 7.87 8.85"><defs><style>.cls-1{fill:#93c01f;}</style></defs><title>Ativo 6</title><g id="Camada_2" data-name="Camada 2"><g id="Layer_2" data-name="Layer 2"><path class="cls-1" d="M6.45.34a2.51,2.51,0,0,1,1,1,3,3,0,0,1,.37,1.53A4.9,4.9,0,0,1,7.45,5a3.6,3.6,0,0,1-1.06,1.4,2.07,2.07,0,0,1-1.26.49.37.37,0,0,1-.29-.11.59.59,0,0,1-.11-.29c0-.12,0-.29,0-.52A4.79,4.79,0,0,1,4.84,5,4.86,4.86,0,0,1,4,6.31a1.3,1.3,0,0,1-.93.53,1,1,0,0,1-.61-.21A1.38,1.38,0,0,1,2,6a2.74,2.74,0,0,1-.18-1,3.69,3.69,0,0,1,.28-1.37A2.72,2.72,0,0,1,3,2.46a2.15,2.15,0,0,1,1.85-.37,1.5,1.5,0,0,1,.47.17L6,2.13c-.09.34-.18.81-.28,1.42s-.17,1.13-.21,1.58q0,.32,0,.54a1.72,1.72,0,0,0,0,.34c0,.12,0,.18.08.18a1,1,0,0,0,.73-.45,3.82,3.82,0,0,0,.6-1.16,4.35,4.35,0,0,0,.24-1.41,2.69,2.69,0,0,0-.38-1.5,2.1,2.1,0,0,0-1-.83A3.61,3.61,0,0,0,4.46.59a3.3,3.3,0,0,0-2,.64A4.13,4.13,0,0,0,1.14,2.91,5.6,5.6,0,0,0,.7,5.1a3.3,3.3,0,0,0,.73,2.39,2.8,2.8,0,0,0,2.1.74,6.1,6.1,0,0,0,.89-.08A3.3,3.3,0,0,0,5.14,8l.14.38a2.35,2.35,0,0,1-.81.38,3.62,3.62,0,0,1-1.06.14,4.12,4.12,0,0,1-1.83-.37A2.58,2.58,0,0,1,.41,7.34,4,4,0,0,1,0,5.44,5.94,5.94,0,0,1,.66,2.61,4.77,4.77,0,0,1,2.43.69,4.51,4.51,0,0,1,4.86,0,3.51,3.51,0,0,1,6.45.34ZM4,5.63a6.47,6.47,0,0,0,.71-1.34A5.15,5.15,0,0,0,5.05,3a.72.72,0,0,0-.36-.29,1.21,1.21,0,0,0-.47-.1,1.25,1.25,0,0,0-.92.35,1.9,1.9,0,0,0-.49.88,4.09,4.09,0,0,0-.14,1.12,2.52,2.52,0,0,0,.14.91.48.48,0,0,0,.46.34C3.47,6.19,3.69,6,4,5.63Z"/></g></g></svg>