<?xml version="1.0" encoding="UTF-8"?>
<!DOCTYPE svg PUBLIC "-//W3C//DTD SVG 1.1//EN" "http://www.w3.org/Graphics/SVG/1.1/DTD/svg11.dtd">
<!-- Creator: CorelDRAW 2019 (64 Bit) -->
<svg xmlns="http://www.w3.org/2000/svg" xml:space="preserve" width="41.234mm" height="19.2254mm" version="1.1" style="shape-rendering:geometricPrecision; text-rendering:geometricPrecision; image-rendering:optimizeQuality; fill-rule:evenodd; clip-rule:evenodd"
viewBox="0 0 1509.3 703.71"
 xmlns:xlink="http://www.w3.org/1999/xlink">
 <defs>
  <style type="text/css">
   <![CDATA[
    .fil0 {fill:#1DBBEE;fill-rule:nonzero}
    .fil1 {fill:#868686;fill-rule:nonzero}
    .fil2 {fill:white;fill-rule:nonzero}
   ]]>
  </style>
 </defs>
 <g id="Camada_x0020_1">
  <metadata id="CorelCorpID_0Corel-Layer"/>
  <g id="_2843805722096">
   <path class="fil0" d="M1417.88 703.71l-1373.53 0c-32.23,0 -53.67,-33.33 -40.31,-62.66l45.38 -99.67c7.19,-15.81 22.96,-25.96 40.33,-25.96l1375.2 0c32.5,0 53.94,33.83 40.05,63.22l-47.06 99.67c-7.31,15.51 -22.92,25.4 -40.05,25.4z"/>
   <path class="fil1" d="M173.1 59.17c-7.9,21.64 -14.95,40.92 -22.2,60.74l44.43 0c-7.32,-20 -14.36,-39.22 -22.24,-60.74zm5.62 240.06c-7.9,21.65 -14.95,40.92 -22.18,60.74l44.42 0c-7.32,-20 -14.34,-39.2 -22.24,-60.74zm-85.69 124.59c8.59,-21.07 17.32,-42.11 25.72,-63.27 13.18,-33.18 23.46,-58.96 36.23,-92.31 2.2,-5.76 5.24,-14.88 13.96,-14.88 8.84,0 17.72,0.14 26.96,0.14 23.1,57.14 46.08,114 69.54,172.02 -12.91,0 -24.81,0.23 -36.67,-0.22 -1.96,-0.07 -4.69,-2.69 -5.59,-4.75 -3.16,-7.35 -5.31,-15.12 -8.67,-22.35 -1.09,-2.35 -4.71,-4.92 -7.23,-4.97 -19.18,-0.41 -38.37,-0.39 -57.57,-0.01 -2.28,0.04 -5.59,2.51 -6.57,4.67 -3.28,7.27 -5.35,15.11 -8.68,22.34 -1.08,2.35 -4.57,4.96 -7.06,5.08 -11.43,0.54 -22.91,0.23 -34.36,0.25l0 -1.73zm444.16 -181.35l35.2 0 0 32.7 -35.2 0 0 -32.7zm35.49 182.46l-35.46 0 0 -131.93 35.46 0 0 131.93zm242.77 -31.68l0 31.53c-0.41,0.08 -0.81,0.23 -1.23,0.23 -8.98,0 -17.94,0.15 -26.91,-0.08 -8.78,-0.21 -17.17,-2.25 -24.7,-6.96 -11.56,-7.23 -17.36,-18.13 -18.88,-31.3 -0.79,-6.9 -0.59,-13.93 -0.63,-20.91 -0.08,-13.67 -0.03,-27.34 -0.03,-41.03l0 -2.81 -23.72 0c0,-2.69 -0.09,-5.15 0.05,-7.61 0.03,-0.62 0.7,-1.25 1.19,-1.77 16.58,-17.6 33.17,-35.21 49.81,-52.77 0.57,-0.59 1.6,-0.97 2.45,-1.05 1.72,-0.17 3.47,-0.05 5.45,-0.05l0 34.14 36.23 0 0 28.96 -35.71 0 0 2.57c0,15.88 -0.04,31.77 0.03,47.65 0.01,2.62 0.16,5.32 0.8,7.85 2.12,8.39 8.61,13.07 18.43,13.35 4.92,0.14 9.85,0.04 14.77,0.05l2.6 0zm-216.87 -11.41l34.68 0c0.23,1.41 0.36,2.79 0.68,4.12 1.22,4.95 4.12,8.64 8.73,10.72 7.57,3.41 15.37,3.74 23.09,0.57 2.16,-0.89 4.25,-2.43 5.81,-4.17 4.48,-4.93 3.37,-11.75 -2.25,-15.3 -4.44,-2.81 -9.53,-3.69 -14.54,-4.8 -9.22,-2.04 -18.5,-3.86 -27.62,-6.29 -5.83,-1.55 -11.12,-4.6 -15.65,-8.7 -8.46,-7.64 -11.21,-17.55 -10.55,-28.51 1.09,-17.95 11.2,-29.44 27.38,-35.64 16.63,-6.39 33.68,-6.49 50.39,-0.17 16.42,6.21 26.11,18.14 28.15,35.85 0.14,1.23 0.03,2.49 0.03,3.88l-33.72 0c-0.15,-0.94 -0.34,-1.87 -0.48,-2.8 -0.87,-5.44 -3.98,-9.1 -9.05,-10.95 -6.48,-2.36 -13.1,-2.48 -19.67,-0.37 -3,0.97 -5.54,2.7 -7.17,5.53 -2.89,5 -1.72,10.73 3.43,13.22 4.22,2.07 8.9,3.36 13.48,4.45 8.91,2.13 17.95,3.69 26.85,5.85 5.94,1.46 11.49,4.04 16.37,7.82 10.24,7.92 13.26,18.89 12.41,31.13 -1.34,19.11 -12.11,31.21 -29.66,37.37 -17.27,6.07 -34.79,6.28 -51.91,-0.54 -16.1,-6.38 -26.01,-18.14 -28.68,-35.53 -0.32,-2.16 -0.36,-4.34 -0.54,-6.73zm-198.51 0.01l34.67 0c0.22,1.34 0.35,2.71 0.67,4.03 1.28,5.31 4.49,9.08 9.47,11.14 7.13,2.97 14.46,3.25 21.69,0.53 2.31,-0.89 4.57,-2.47 6.29,-4.25 4.74,-4.97 3.65,-12.02 -2.17,-15.62 -4.45,-2.75 -9.52,-3.74 -14.56,-4.7 -10.01,-1.89 -20.14,-3.23 -29.69,-7.04 -9.45,-3.76 -17.46,-9.25 -21.31,-19.15 -6.42,-16.52 -2.43,-37.46 16.15,-48.78 12.19,-7.41 25.59,-9.45 39.59,-8.55 11.27,0.72 21.85,3.65 31.02,10.51 11.04,8.26 16.26,19.51 16.67,33.38l-33.86 0c-0.06,-0.19 -0.17,-0.46 -0.19,-0.74 -0.93,-7.97 -4.74,-12.19 -12.66,-13.97 -5.4,-1.19 -10.78,-1.17 -16.09,0.53 -2.93,0.94 -5.46,2.52 -7.18,5.18 -3.27,5.05 -2.09,11.13 3.28,13.74 4.17,2.02 8.77,3.29 13.3,4.37 8.91,2.12 17.94,3.68 26.83,5.84 5.95,1.45 11.5,4.02 16.4,7.79 10.25,7.9 13.31,18.86 12.47,31.11 -1.32,19.11 -12.06,31.23 -29.6,37.43 -17.42,6.15 -35.1,6.3 -52.34,-0.63 -15.96,-6.45 -25.75,-18.26 -28.36,-35.56 -0.31,-2.09 -0.32,-4.22 -0.5,-6.58zm-128.39 0.03l34.7 0c0.23,1.42 0.37,2.81 0.71,4.14 1.29,5.3 4.57,9.03 9.56,11.07 6.97,2.85 14.18,3.21 21.27,0.54 2.44,-0.94 4.87,-2.54 6.68,-4.44 4.63,-4.9 3.51,-11.88 -2.2,-15.46 -4.45,-2.79 -9.54,-3.65 -14.55,-4.76 -9.22,-2.04 -18.49,-3.88 -27.62,-6.3 -5.76,-1.54 -10.97,-4.56 -15.47,-8.59 -8.56,-7.66 -11.34,-17.64 -10.65,-28.66 1.08,-17.86 11.13,-29.32 27.22,-35.52 16.87,-6.51 34.12,-6.6 50.99,-0.05 16.22,6.28 25.71,18.21 27.7,35.73 0.13,1.23 0.01,2.48 0.01,3.85l-33.71 0c-0.25,-1.45 -0.37,-2.86 -0.72,-4.18 -1.26,-4.77 -4.28,-7.98 -8.87,-9.62 -6.42,-2.3 -12.96,-2.5 -19.45,-0.39 -4.69,1.55 -8.05,4.51 -8.65,9.78 -0.48,4.14 1.11,7.47 4.81,9.06 4.33,1.89 8.91,3.32 13.51,4.42 8.91,2.12 17.96,3.64 26.83,5.86 6.66,1.65 12.86,4.61 18.06,9.23 8.88,7.9 11.47,18.24 10.68,29.54 -1.41,20.16 -13.1,32.32 -31.59,38.22 -16.69,5.32 -33.61,5.36 -50.05,-1.24 -16.08,-6.45 -25.97,-18.21 -28.63,-35.59 -0.32,-2.09 -0.35,-4.23 -0.54,-6.64zm1010.09 -262.44c0.16,-20.66 -15.78,-36.7 -36.3,-36.52 -20.39,0.18 -35.72,15.57 -35.83,36.01 -0.13,20.82 15.52,36.57 36.21,36.44 20.42,-0.11 35.77,-15.47 35.92,-35.93zm5.28 -54.43c-0.05,-11.5 6.46,-12.16 15.3,-12.16 4.53,0 13.93,0.09 13.93,0.09l0 131.94 -27.02 0c-1.09,-2.88 -2.34,-6.22 -3.96,-10.59 -19.07,14.95 -40.17,18.31 -62.63,12.38 -15.15,-4 -27.38,-12.77 -36.58,-25.61 -19.19,-26.81 -16.65,-66.32 5.68,-90.62 18.01,-19.61 57.84,-32.91 95.28,-5.44zm-173.54 -30.1l0 -21.9 0 -10.49 35.06 0 0 32.39 -35.06 0zm-235.22 -30.89c-5.2,-2.52 -11.82,-3.84 -18.58,-4.02l-0.04 0 -0.05 0c-6.78,0.18 -13.38,1.5 -18.58,4.02 -11.5,5.55 -17.94,21.57 -26.9,33.4 19.4,3.94 35.34,1.59 45.53,-14.78 10.18,16.37 26.12,18.72 45.52,14.78 -8.96,-11.83 -15.39,-27.85 -26.9,-33.4zm235.53 49.36l35.03 0 0 131.39 -35.03 0 0 -131.39zm-337.79 0.05c-19.89,33.78 -38.77,65.87 -58.33,99.09l55.33 0 0 32.39 -111.16 0c19.68,-33.42 38.57,-65.52 58.2,-98.82l-50.15 0 0 -32.66 106.12 0zm181.22 -0.1c13.22,-0.4 28.07,-5.51 29.89,16.14 11.07,-10.42 22.2,-16.66 35.72,-18.75 30.1,-4.65 55.46,13.14 57.24,43.44 1.74,29.95 0.37,60.08 0.37,90.72l-35.34 0c0,-2.89 0,-5.93 0,-8.95 -0.03,-21.77 0.28,-43.55 -0.18,-65.31 -0.45,-20.63 -7.27,-28.89 -22.54,-28.98 -17.09,-0.08 -29.06,11.61 -29.52,30.05 -0.52,21.17 -0.18,42.39 -0.23,63.59 0,3.09 0,6.16 0,9.71l-35.41 0 0 -131.67zm-62.58 65.78c-0.05,-20.93 -15.07,-36.33 -35.37,-36.22 -20.35,0.09 -35.24,15.51 -35.19,36.44 0.04,21.04 14.9,36.17 35.4,36.09 20.56,-0.09 35.21,-15.22 35.16,-36.31zm-35.87 70.1c-41.38,-0.25 -71.27,-30.22 -70.94,-71.15 0.31,-39.79 31.12,-68.97 72.51,-68.67 40.83,0.28 70.84,30.33 70.57,70.66 -0.26,39.85 -31.08,69.4 -72.13,69.16zm-251.71 -69.77c0.15,-20.66 -15.78,-36.7 -36.3,-36.52 -20.39,0.18 -35.73,15.57 -35.83,36.01 -0.13,20.82 15.52,36.57 36.21,36.44 20.42,-0.11 35.77,-15.47 35.93,-35.93zm5.28 -54.43c-0.05,-11.5 6.45,-12.16 15.3,-12.16 4.53,0 13.93,0.09 13.93,0.09l0 131.94 -27.02 0c-1.09,-2.88 -2.34,-6.22 -3.96,-10.59 -19.07,14.95 -40.17,18.31 -62.63,12.38 -15.15,-4 -27.38,-12.77 -36.58,-25.61 -19.19,-26.81 -16.64,-66.32 5.68,-90.62 18.01,-19.61 57.82,-32.91 95.29,-5.44zm-224.04 5.34c8.7,-10.11 18.56,-16.98 31.26,-19.32 27.68,-5.1 51.56,11.33 54.9,39.44 1.9,15.85 1.34,32.01 1.57,48.03 0.22,15.16 0.05,30.35 0.05,46.24l-35.98 0c0,-18.22 0.15,-36.46 -0.05,-54.71 -0.13,-10.56 -0.36,-21.19 -1.42,-31.69 -0.84,-8.25 -5.1,-14.77 -14.07,-16.19 -9.69,-1.54 -19.41,0.07 -23.75,9.49 -3.68,8.02 -5.63,17.39 -5.95,26.27 -0.81,22.01 -0.27,44.1 -0.27,66.86l-35.1 0c0,-11.48 0.01,-22.87 -0.01,-34.26 -0.03,-15.76 0.18,-31.53 -0.22,-47.29 -0.3,-11.85 -6.31,-19.7 -15.14,-21.17 -12.3,-2.05 -22.68,3.37 -26.69,14.98 -1.93,5.55 -2.76,11.72 -2.84,17.63 -0.31,23.19 -0.13,46.37 -0.13,70.19l-35.56 0 0 -131.92c6.57,0 13.31,-0.13 20.04,0.04 9.88,0.26 10.21,8.44 11.52,14.71 30.55,-24.7 55.69,-24.12 77.83,2.68zm-300.91 113.42c8.59,-21.07 17.31,-42.11 25.72,-63.29 13.18,-33.17 23.46,-58.95 36.23,-92.3 2.2,-5.76 5.24,-14.89 13.96,-14.89 8.85,0 17.72,0.14 26.96,0.14 23.1,57.15 46.09,114.02 69.54,172.04 -12.91,0 -24.8,0.23 -36.67,-0.22 -1.97,-0.07 -4.69,-2.69 -5.59,-4.75 -3.16,-7.35 -5.31,-15.12 -8.68,-22.35 -1.08,-2.35 -4.71,-4.92 -7.23,-4.97 -19.18,-0.41 -38.38,-0.39 -57.57,-0.01 -2.28,0.04 -5.59,2.51 -6.57,4.67 -3.28,7.27 -5.34,15.1 -8.67,22.34 -1.09,2.35 -4.57,4.95 -7.08,5.08 -11.43,0.54 -22.89,0.23 -34.34,0.25l0 -1.73z"/>
   <path class="fil2" d="M98.18 604.94c0,-24.33 17.76,-42.15 41.81,-42.15 19.24,0 34.67,12 38.93,30.31l-13.51 0c-3.9,-10.85 -13.37,-17.39 -25.42,-17.39 -16.28,0 -28.24,12.27 -28.24,29.23 0,16.97 11.96,29.17 28.24,29.17 12.43,0 22.03,-7.01 25.7,-18.55l13.55 0c-4.22,19.14 -19.65,31.48 -39.24,31.48 -24.06,0 -41.81,-17.83 -41.81,-42.1zm1284.34 20.72l12.6 0c0.33,6.64 5.9,10.1 13.46,10.1 6.94,0 12.27,-2.93 12.27,-8.18 0,-5.94 -6.74,-7.3 -14.43,-8.61 -10.45,-1.77 -22.78,-4.16 -22.78,-18.7 0,-11.24 9.74,-18.97 24.33,-18.97 14.59,0 24.04,7.94 24.3,20.12l-12.23 0c-0.26,-5.98 -4.79,-9.18 -12.38,-9.18 -7.12,0 -11.53,3.03 -11.53,7.62 0,5.54 6.4,6.64 13.96,7.87 10.61,1.79 23.5,3.84 23.5,19.3 0,12.19 -10.16,20.09 -25.46,20.09 -15.25,0 -25.29,-8.43 -25.61,-21.45zm-25.04 -11.49c0,-11.83 -8.64,-20.6 -20.47,-20.6 -11.83,0 -20.56,8.86 -20.56,20.6 0,11.75 8.73,20.58 20.56,20.58 11.83,0 20.47,-8.74 20.47,-20.58zm12.94 -31.38l0 62.76 -10.41 0 -1.25 -7.63c-5.7,5.75 -13.61,9.19 -22.76,9.19 -18.69,0 -32.67,-14.13 -32.67,-32.94 0,-18.87 13.99,-32.88 32.67,-32.88 9.25,0 17.26,3.51 22.96,9.35l1.5 -7.85 9.97 0zm-87.91 31.41c0,-12.02 -8.54,-20.59 -20.41,-20.59 -11.88,0 -20.42,8.57 -20.42,20.59 0,12.01 8.54,20.59 20.42,20.59 11.88,0 20.41,-8.58 20.41,-20.59zm-53.98 0c0,-18.98 14.37,-32.91 33.56,-32.91 19.15,0 33.55,14.01 33.55,32.91 0,18.87 -14.4,32.9 -33.55,32.9 -19.19,0 -33.56,-14.04 -33.56,-32.9zm-58.73 11.45l12.6 0c0.33,6.64 5.9,10.1 13.46,10.1 6.94,0 12.27,-2.93 12.27,-8.18 0,-5.94 -6.74,-7.3 -14.43,-8.61 -10.45,-1.77 -22.78,-4.16 -22.78,-18.7 0,-11.24 9.74,-18.97 24.33,-18.97 14.59,0 24.04,7.94 24.3,20.12l-12.23 0c-0.26,-5.98 -4.79,-9.18 -12.38,-9.18 -7.12,0 -11.53,3.03 -11.53,7.62 0,5.54 6.41,6.64 13.96,7.87 10.61,1.79 23.5,3.84 23.5,19.3 0,12.19 -10.16,20.09 -25.46,20.09 -15.25,0 -25.29,-8.43 -25.61,-21.45zm-59.22 0l12.61 0c0.32,6.64 5.9,10.1 13.47,10.1 6.93,0 12.25,-2.93 12.25,-8.18 0,-5.94 -6.74,-7.3 -14.43,-8.61 -10.45,-1.77 -22.78,-4.16 -22.78,-18.7 0,-11.24 9.74,-18.97 24.33,-18.97 14.6,0 24.04,7.94 24.3,20.12l-12.23 0c-0.25,-5.98 -4.79,-9.18 -12.37,-9.18 -7.13,0 -11.54,3.03 -11.54,7.62 0,5.54 6.4,6.64 13.97,7.87 10.61,1.79 23.49,3.84 23.49,19.3 0,12.19 -10.16,20.09 -25.46,20.09 -15.24,0 -25.28,-8.43 -25.61,-21.45zm-58.14 -17.55l37.94 0c-2.31,-9.52 -9.51,-15.16 -19.05,-15.16 -9.71,0 -16.77,5.85 -18.89,15.16zm50.6 10.48l-50.93 0c1.61,10.18 8.93,16.41 19.21,16.41 7.48,0 13.56,-3.46 16.88,-9.18l13.58 0c-5,13.24 -16.45,21.29 -30.46,21.29 -18.35,0 -32.25,-14.17 -32.25,-32.9 0,-18.77 13.87,-32.91 32.25,-32.91 19.2,0 31.99,14.8 31.99,33.06 0,1.42 -0.12,2.83 -0.27,4.23zm-83.15 -27.49c0,-8.17 -6.08,-14.21 -14.8,-14.21l-16.08 0 0 28.42 16.08 0c8.72,0 14.8,-6.03 14.8,-14.22zm13.57 0c0,15.35 -11.88,26.87 -27.72,26.87l-16.72 0 0 27.62 -13.34 0 0 -81.35 30.06 0c15.76,0 27.72,11.43 27.72,26.86zm-147.04 17.01l37.94 0c-2.32,-9.52 -9.5,-15.16 -19.06,-15.16 -9.71,0 -16.76,5.85 -18.88,15.16zm50.6 10.48l-50.93 0c1.61,10.18 8.94,16.41 19.2,16.41 7.49,0 13.57,-3.46 16.88,-9.18l13.58 0c-5,13.24 -16.45,21.29 -30.46,21.29 -18.33,0 -32.24,-14.17 -32.24,-32.9 0,-18.77 13.87,-32.91 32.24,-32.91 19.2,0 31.98,14.8 31.98,33.06 0,1.42 -0.1,2.83 -0.26,4.23zm-87.92 -4.38c0,-11.75 -8.72,-20.59 -20.56,-20.59 -11.83,0 -20.48,8.77 -20.48,20.59 0,11.83 8.65,20.59 20.48,20.59 11.84,0 20.56,-8.92 20.56,-20.59zm11.99 -53.87l0 85.25 -9.76 0 -1.65 -7.12c-5.64,5.44 -13.35,8.68 -22.14,8.68 -18.98,0 -32.63,-14.13 -32.63,-32.94 0,-18.9 13.65,-32.91 32.63,-32.91 8.05,0 15.19,2.7 20.67,7.31l0 -28.27 12.89 0zm-150.02 65.32l12.6 0c0.33,6.64 5.9,10.1 13.46,10.1 6.94,0 12.27,-2.93 12.27,-8.18 0,-5.94 -6.74,-7.3 -14.43,-8.61 -10.45,-1.77 -22.78,-4.16 -22.78,-18.7 0,-11.24 9.74,-18.97 24.33,-18.97 14.6,0 24.04,7.94 24.3,20.12l-12.23 0c-0.26,-5.98 -4.79,-9.18 -12.37,-9.18 -7.13,0 -11.54,3.03 -11.54,7.62 0,5.54 6.4,6.64 13.97,7.87 10.6,1.79 23.49,3.84 23.49,19.3 0,12.19 -10.16,20.09 -25.46,20.09 -15.25,0 -25.29,-8.43 -25.61,-21.45zm-58.16 -17.55l37.94 0c-2.31,-9.52 -9.5,-15.16 -19.06,-15.16 -9.71,0 -16.76,5.85 -18.88,15.16zm50.61 10.48l-50.93 0c1.61,10.18 8.94,16.41 19.2,16.41 7.49,0 13.57,-3.46 16.89,-9.18l13.57 0c-4.99,13.24 -16.44,21.29 -30.46,21.29 -18.33,0 -32.24,-14.17 -32.24,-32.9 0,-18.77 13.87,-32.91 32.24,-32.91 19.2,0 31.98,14.8 31.98,33.06 0,1.42 -0.1,2.83 -0.26,4.23zm-67.19 -36.11l0 12.19 -6.8 0c-10.68,0 -16,6.07 -16,17.45l0 33.47 -12.9 0 0 -62.76 8.73 0 2.18 8.56c4.48,-5.96 10.64,-8.91 19.2,-8.91l5.59 0zm-60.59 31.72c0,-12.02 -8.54,-20.59 -20.41,-20.59 -11.88,0 -20.42,8.57 -20.42,20.59 0,12.01 8.54,20.59 20.42,20.59 11.88,0 20.41,-8.58 20.41,-20.59zm-53.98 0c0,-18.98 14.37,-32.91 33.56,-32.91 19.15,0 33.55,14.01 33.55,32.91 0,18.87 -14.4,32.9 -33.55,32.9 -19.19,0 -33.56,-14.04 -33.56,-32.9zm-23.74 0c0,-11.75 -8.73,-20.59 -20.56,-20.59 -11.83,0 -20.48,8.77 -20.48,20.59 0,11.83 8.65,20.59 20.48,20.59 11.83,0 20.56,-8.92 20.56,-20.59zm11.99 -53.87l0 85.25 -9.76 0 -1.65 -7.12c-5.64,5.44 -13.35,8.68 -22.16,8.68 -18.97,0 -32.62,-14.13 -32.62,-32.94 0,-18.9 13.65,-32.91 32.62,-32.91 8.06,0 15.18,2.7 20.67,7.31l0 -28.27 12.9 0zm-91.12 53.84c0,-11.83 -8.64,-20.6 -20.47,-20.6 -11.83,0 -20.56,8.86 -20.56,20.6 0,11.75 8.73,20.58 20.56,20.58 11.83,0 20.47,-8.74 20.47,-20.58zm12.94 -31.38l0 62.76 -10.41 0 -1.25 -7.63c-5.7,5.75 -13.61,9.19 -22.77,9.19 -18.68,0 -32.67,-14.13 -32.67,-32.94 0,-18.87 13.99,-32.88 32.67,-32.88 9.25,0 17.27,3.51 22.96,9.35l1.5 -7.85 9.97 0zm-91.05 31.41c0,-11.75 -8.72,-20.59 -20.56,-20.59 -11.83,0 -20.48,8.77 -20.48,20.59 0,11.83 8.65,20.59 20.48,20.59 11.84,0 20.56,-8.92 20.56,-20.59zm12 -53.87l0 85.25 -9.76 0 -1.64 -7.12c-5.66,5.44 -13.37,8.68 -22.16,8.68 -18.98,0 -32.63,-14.13 -32.63,-32.94 0,-18.9 13.65,-32.91 32.63,-32.91 8.05,0 15.17,2.7 20.67,7.31l0 -28.27 12.89 0zm-90.76 22.5l12.9 0 0 62.74 -12.9 0 0 -62.74zm-0.2 -23.04l13.34 0 0 13.31 -13.34 0 0 -13.31zm-43.26 87.31c-17.23,0 -28.54,-11.14 -28.54,-28.03l0 -36.25 12.9 0 0 34.45c0,10.89 5.96,17.51 15.64,17.51 9.78,0 15.61,-6.74 15.61,-17.51l0 -34.45 12.9 0 0 36.25c0,16.89 -11.2,28.03 -28.5,28.03l-0.01 0z"/>
  </g>
 </g>
</svg>
