<?xml version="1.0" encoding="UTF-8"?>
<!DOCTYPE svg PUBLIC "-//W3C//DTD SVG 1.1//EN" "http://www.w3.org/Graphics/SVG/1.1/DTD/svg11.dtd">
<!-- Creator: CorelDRAW 2019 (64 Bit) -->
<svg xmlns="http://www.w3.org/2000/svg" xml:space="preserve" width="331.893mm" height="281.093mm" version="1.1" style="shape-rendering:geometricPrecision; text-rendering:geometricPrecision; image-rendering:optimizeQuality; fill-rule:evenodd; clip-rule:evenodd"
viewBox="0 0 17717.27 15005.44"
 xmlns:xlink="http://www.w3.org/1999/xlink">
 <defs>
  <style type="text/css">
   <![CDATA[
    .fil0 {fill:#406529}
    .fil1 {fill:#93C01F}
   ]]>
  </style>
 </defs>
 <g id="Camada_x0020_1">
  <metadata id="CorelCorpID_0Corel-Layer"/>
  <g id="_3084576104928">
   <rect class="fil0" x="0" width="17717.27" height="15005.44"/>
   <g id="Camada_2" data-name="Camada 2">
    <g id="Layer_2" data-name="Layer 2">
     <path class="fil1" d="M3253.55 10802.38c0,0 1624.22,-185.78 2176.24,-1443.75 902.34,-2064.77 1401.29,-2234.63 3243.13,-3487.29 918.27,-610.41 5790.93,-3975.62 5790.93,-3975.62l-955.42 2537.18 -5079.67 3476.68c0,0 -1353.52,886.42 -1029.74,1353.52 323.78,467.1 1533.98,-440.55 1533.98,-440.55l3911.93 -2653.95 -955.42 2537.18 -1406.59 971.35c0,0 -3678.37,2537.18 -7229.37,1125.27z"/>
     <path class="fil1" d="M3253.55 11449.95c4989.44,2192.16 8083.94,-1257.97 8083.94,-1257.97l-891.73 2335.48c-865.16,382.84 -1801.89,582.27 -2748.57,582.27 -1632.69,0 -3211.6,-590.02 -4443.77,-1660l0.12 0.22z"/>
    </g>
   </g>
  </g>
 </g>
</svg>
