<?xml version="1.0" encoding="UTF-8"?>
<!DOCTYPE svg PUBLIC "-//W3C//DTD SVG 1.1//EN" "http://www.w3.org/Graphics/SVG/1.1/DTD/svg11.dtd">
<!-- Creator: CorelDRAW 2019 (64 Bit) -->
<svg xmlns="http://www.w3.org/2000/svg" xml:space="preserve" width="36.1552mm" height="10.9182mm" version="1.1" style="shape-rendering:geometricPrecision; text-rendering:geometricPrecision; image-rendering:optimizeQuality; fill-rule:evenodd; clip-rule:evenodd"
viewBox="0 0 306.76 92.64"
 xmlns:xlink="http://www.w3.org/1999/xlink">
 <defs>
  <style type="text/css">
   <![CDATA[
    .fil1 {fill:#92BF1E;fill-rule:nonzero}
    .fil0 {fill:white;fill-rule:nonzero}
   ]]>
  </style>
 </defs>
 <g id="__x0023_Layer_x0020_2">
  <metadata id="CorelCorpID_0Corel-Layer"/>
  <g id="_3084671761280">
   <g>
    <g>
     <g>
      <g>
       <path class="fil0" d="M139.07 43.96c1.17,-2.88 2.36,-5.75 3.51,-8.64 1.8,-4.53 3.2,-8.05 4.94,-12.6 0.3,-0.78 0.72,-2.03 1.91,-2.03 1.21,0 2.42,0.02 3.68,0.02 3.15,7.8 6.29,15.56 9.49,23.48 -1.76,0 -3.39,0.03 -5.01,-0.03 -0.27,-0.01 -0.64,-0.37 -0.76,-0.65 -0.43,-1 -0.72,-2.06 -1.18,-3.05 -0.15,-0.32 -0.64,-0.67 -0.99,-0.68 -2.62,-0.06 -5.24,-0.05 -7.86,-0 -0.31,0.01 -0.76,0.34 -0.9,0.64 -0.45,0.99 -0.73,2.06 -1.18,3.05 -0.15,0.32 -0.62,0.68 -0.96,0.69 -1.56,0.07 -3.13,0.03 -4.69,0.03 0,-0.08 0,-0.16 0,-0.24zm11.69 -17l0 0c-1.08,2.95 -2.04,5.58 -3.03,8.29 2.05,0 3.99,0 6.06,0 -1,-2.73 -1.96,-5.35 -3.03,-8.29z"/>
       <path class="fil0" d="M180.13 28.48c1.19,-1.38 2.53,-2.32 4.27,-2.64 3.78,-0.7 7.03,1.55 7.49,5.38 0.26,2.16 0.18,4.37 0.21,6.56 0.03,2.07 0.01,4.14 0.01,6.31 -1.63,0 -3.2,0 -4.91,0 0,-2.49 0.02,-4.98 -0.01,-7.47 -0.02,-1.44 -0.05,-2.89 -0.19,-4.32 -0.11,-1.13 -0.7,-2.02 -1.92,-2.21 -1.32,-0.21 -2.65,0.01 -3.24,1.3 -0.5,1.09 -0.77,2.37 -0.81,3.58 -0.11,3.01 -0.04,6.02 -0.04,9.13 -1.6,0 -3.13,0 -4.79,0 0,-1.57 0,-3.12 -0,-4.67 -0,-2.15 0.02,-4.3 -0.03,-6.46 -0.04,-1.62 -0.86,-2.69 -2.07,-2.89 -1.68,-0.28 -3.1,0.46 -3.64,2.04 -0.26,0.76 -0.38,1.6 -0.39,2.4 -0.04,3.16 -0.02,6.33 -0.02,9.58 -1.64,0 -3.22,0 -4.85,0 0,-5.95 0,-11.88 0,-18 0.9,0 1.82,-0.02 2.74,0 1.35,0.03 1.39,1.15 1.57,2.01 4.17,-3.37 7.6,-3.29 10.62,0.37z"/>
       <path class="fil0" d="M210.7 27.75c-0.01,-1.57 0.88,-1.66 2.09,-1.66 0.62,0 1.9,0.01 1.9,0.01 0,0 0,11.99 0,18.01 -1.2,0 -2.4,0 -3.69,0 -0.15,-0.4 -0.32,-0.85 -0.54,-1.45 -2.6,2.04 -5.48,2.5 -8.54,1.69 -2.07,-0.55 -3.74,-1.74 -4.99,-3.49 -2.62,-3.66 -2.27,-9.05 0.77,-12.37 2.46,-2.68 7.89,-4.49 13,-0.74zm-0.72 7.43l0 0c0.02,-2.82 -2.15,-5.01 -4.95,-4.98 -2.78,0.02 -4.88,2.13 -4.89,4.92 -0.02,2.84 2.12,4.99 4.94,4.97 2.79,-0.02 4.88,-2.11 4.9,-4.9z"/>
       <path class="fil0" d="M244.33 44.7c-5.65,-0.03 -9.73,-4.12 -9.68,-9.71 0.04,-5.43 4.25,-9.41 9.89,-9.37 5.57,0.04 9.67,4.14 9.63,9.64 -0.04,5.44 -4.24,9.47 -9.84,9.44zm4.9 -9.57l0 0c-0.01,-2.86 -2.06,-4.96 -4.83,-4.94 -2.78,0.01 -4.81,2.12 -4.8,4.97 0.01,2.87 2.03,4.94 4.83,4.92 2.8,-0.01 4.8,-2.08 4.8,-4.95z"/>
       <path class="fil0" d="M257.77 26.16c1.81,-0.06 3.83,-0.75 4.08,2.2 1.51,-1.42 3.03,-2.27 4.87,-2.56 4.11,-0.64 7.57,1.79 7.81,5.93 0.24,4.09 0.05,8.2 0.05,12.38 -1.55,0 -3.09,0 -4.82,0 0,-0.4 0,-0.81 0,-1.22 -0,-2.97 0.04,-5.94 -0.03,-8.91 -0.06,-2.82 -0.99,-3.94 -3.08,-3.95 -2.33,-0.01 -3.96,1.58 -4.03,4.1 -0.07,2.89 -0.03,5.79 -0.03,8.68 -0,0.42 -0,0.84 -0,1.32 -1.66,0 -3.2,0 -4.83,0 0,-5.96 0,-11.91 0,-17.97z"/>
       <path class="fil0" d="M233.04 26.18c-2.71,4.61 -5.29,8.99 -7.96,13.52 2.63,0 5.04,0 7.55,0 0,1.5 0,2.92 0,4.42 -4.94,0 -9.88,0 -15.17,0 2.69,-4.56 5.26,-8.94 7.94,-13.49 -2.36,0 -4.56,0 -6.84,0 0,-1.55 0,-2.96 0,-4.46 4.69,0 9.37,0 14.48,0z"/>
       <path class="fil0" d="M279.14 26.17c1.63,0 3.18,0 4.78,0 0,5.99 0,11.91 0,17.93 -1.56,0 -3.13,0 -4.78,0 0,-5.93 0,-11.89 0,-17.93z"/>
       <path class="fil0" d="M247 19.43c-0.71,-0.34 -1.61,-0.52 -2.54,-0.55l-0.01 0 -0.01 0c-0.92,0.02 -1.83,0.2 -2.54,0.55 -1.57,0.76 -2.45,2.95 -3.67,4.56 2.65,0.54 4.82,0.22 6.21,-2.02 1.39,2.23 3.57,2.55 6.21,2.02 -1.22,-1.61 -2.1,-3.8 -3.67,-4.56z"/>
       <path class="fil0" d="M279.09 23.65c0,-1.03 0,-2.01 0,-2.99 0,-0.47 0,-0.95 0,-1.43 1.6,0 3.17,0 4.79,0 0,1.5 0,2.92 0,4.42 -1.61,0 -3.14,0 -4.79,0z"/>
       <path class="fil0" d="M302.78 27.75c-0.01,-1.57 0.88,-1.66 2.09,-1.66 0.62,0 1.9,0.01 1.9,0.01 0,0 0,11.99 0,18.01 -1.2,0 -2.4,0 -3.69,0 -0.15,-0.4 -0.32,-0.85 -0.54,-1.45 -2.6,2.04 -5.48,2.5 -8.54,1.69 -2.07,-0.55 -3.74,-1.74 -4.99,-3.49 -2.62,-3.66 -2.27,-9.05 0.77,-12.37 2.46,-2.68 7.89,-4.49 13,-0.74zm-0.72 7.43l0 0c0.02,-2.82 -2.15,-5.01 -4.95,-4.98 -2.78,0.02 -4.87,2.13 -4.89,4.92 -0.02,2.84 2.12,4.99 4.94,4.97 2.79,-0.02 4.88,-2.11 4.9,-4.9z"/>
      </g>
     </g>
     <g>
      <path class="fil0" d="M163.45 70.99c1.6,0 3.16,0 4.73,0 0.03,0.19 0.05,0.38 0.1,0.57 0.18,0.72 0.62,1.23 1.3,1.51 0.95,0.39 1.94,0.44 2.9,0.07 0.33,-0.13 0.67,-0.35 0.91,-0.61 0.63,-0.67 0.48,-1.62 -0.3,-2.11 -0.61,-0.38 -1.3,-0.5 -1.98,-0.65 -1.26,-0.28 -2.53,-0.53 -3.77,-0.86 -0.79,-0.21 -1.5,-0.62 -2.11,-1.17 -1.17,-1.05 -1.55,-2.41 -1.45,-3.91 0.15,-2.44 1.52,-4 3.72,-4.85 2.3,-0.89 4.65,-0.9 6.96,-0.01 2.21,0.86 3.51,2.49 3.78,4.88 0.02,0.17 0,0.34 0,0.53 -1.54,0 -3.07,0 -4.6,0 -0.03,-0.2 -0.05,-0.39 -0.1,-0.57 -0.17,-0.65 -0.58,-1.09 -1.21,-1.31 -0.88,-0.31 -1.77,-0.34 -2.65,-0.05 -0.64,0.21 -1.1,0.61 -1.18,1.33 -0.06,0.56 0.15,1.02 0.66,1.24 0.59,0.26 1.22,0.45 1.84,0.6 1.22,0.29 2.45,0.5 3.66,0.8 0.91,0.23 1.75,0.63 2.47,1.26 1.21,1.08 1.56,2.49 1.46,4.03 -0.19,2.75 -1.79,4.41 -4.31,5.22 -2.28,0.73 -4.59,0.73 -6.83,-0.17 -2.19,-0.88 -3.54,-2.48 -3.91,-4.86 -0.04,-0.29 -0.05,-0.58 -0.07,-0.91z"/>
      <path class="fil0" d="M180.97 70.99c1.6,0 3.15,0 4.73,0 0.03,0.18 0.05,0.37 0.09,0.55 0.17,0.72 0.61,1.24 1.29,1.52 0.97,0.41 1.97,0.44 2.96,0.07 0.32,-0.12 0.62,-0.33 0.86,-0.58 0.65,-0.68 0.5,-1.64 -0.3,-2.13 -0.61,-0.38 -1.3,-0.51 -1.99,-0.64 -1.37,-0.26 -2.75,-0.44 -4.05,-0.96 -1.29,-0.51 -2.38,-1.26 -2.91,-2.61 -0.88,-2.25 -0.33,-5.11 2.2,-6.66 1.66,-1.01 3.49,-1.29 5.4,-1.17 1.54,0.1 2.98,0.5 4.23,1.43 1.51,1.13 2.22,2.66 2.27,4.56 -1.55,0 -3.08,0 -4.62,0 -0.01,-0.03 -0.02,-0.06 -0.03,-0.1 -0.13,-1.09 -0.65,-1.66 -1.73,-1.91 -0.74,-0.16 -1.47,-0.16 -2.2,0.07 -0.4,0.13 -0.75,0.34 -0.98,0.71 -0.44,0.69 -0.29,1.52 0.45,1.88 0.57,0.27 1.2,0.45 1.81,0.6 1.22,0.29 2.45,0.5 3.66,0.8 0.81,0.2 1.57,0.55 2.24,1.06 1.4,1.08 1.82,2.57 1.7,4.24 -0.18,2.61 -1.64,4.26 -4.04,5.11 -2.38,0.84 -4.79,0.86 -7.14,-0.09 -2.18,-0.88 -3.52,-2.49 -3.87,-4.85 -0.04,-0.29 -0.05,-0.58 -0.07,-0.9z"/>
      <path class="fil0" d="M208.06 70.99c1.61,0 3.16,0 4.73,0 0.03,0.19 0.05,0.38 0.1,0.56 0.16,0.67 0.56,1.18 1.19,1.46 1.03,0.46 2.1,0.51 3.15,0.08 0.3,-0.12 0.58,-0.33 0.8,-0.57 0.61,-0.67 0.46,-1.61 -0.31,-2.09 -0.61,-0.38 -1.3,-0.5 -1.98,-0.65 -1.26,-0.28 -2.53,-0.53 -3.77,-0.86 -0.8,-0.21 -1.52,-0.63 -2.14,-1.19 -1.16,-1.04 -1.53,-2.4 -1.44,-3.89 0.15,-2.45 1.53,-4.02 3.74,-4.87 2.27,-0.87 4.59,-0.89 6.87,-0.02 2.24,0.85 3.56,2.48 3.84,4.89 0.02,0.17 0,0.34 0,0.53 -1.53,0 -3.06,0 -4.6,0 -0.02,-0.13 -0.05,-0.26 -0.07,-0.38 -0.12,-0.74 -0.54,-1.24 -1.24,-1.49 -0.88,-0.32 -1.79,-0.34 -2.68,-0.05 -0.41,0.13 -0.76,0.37 -0.98,0.75 -0.39,0.68 -0.24,1.46 0.47,1.81 0.58,0.28 1.21,0.46 1.84,0.61 1.22,0.29 2.45,0.5 3.66,0.8 0.81,0.2 1.57,0.55 2.23,1.07 1.4,1.08 1.81,2.58 1.69,4.25 -0.18,2.61 -1.65,4.26 -4.05,5.1 -2.36,0.83 -4.74,0.85 -7.08,-0.07 -2.2,-0.87 -3.55,-2.48 -3.91,-4.85 -0.04,-0.29 -0.05,-0.59 -0.07,-0.92z"/>
      <path class="fil0" d="M237.65 72.55c0,1.46 0,2.87 0,4.3 -0.06,0.01 -0.11,0.03 -0.17,0.03 -1.22,-0 -2.45,0.02 -3.67,-0.01 -1.2,-0.03 -2.34,-0.31 -3.37,-0.95 -1.58,-0.99 -2.37,-2.47 -2.58,-4.27 -0.11,-0.94 -0.08,-1.9 -0.09,-2.85 -0.01,-1.87 -0,-3.73 -0,-5.6 0,-0.12 0,-0.24 0,-0.39 -1.08,0 -2.14,0 -3.24,0 0,-0.36 -0.01,-0.7 0.01,-1.04 0.01,-0.08 0.1,-0.17 0.16,-0.24 2.26,-2.4 4.53,-4.8 6.8,-7.2 0.08,-0.08 0.22,-0.13 0.33,-0.14 0.24,-0.02 0.48,-0.01 0.74,-0.01 0,1.56 0,3.09 0,4.66 1.66,0 3.29,0 4.94,0 0,1.33 0,2.63 0,3.95 -1.62,0 -3.23,0 -4.87,0 0,0.14 0,0.24 0,0.35 0,2.17 -0.01,4.33 0,6.5 0,0.36 0.02,0.73 0.11,1.07 0.29,1.15 1.18,1.78 2.52,1.82 0.67,0.02 1.34,0.01 2.02,0.01 0.11,0 0.22,0 0.35,0z"/>
      <path class="fil0" d="M204.52 76.87c-1.62,0 -3.22,0 -4.84,0 0,-6 0,-12 0,-18 1.61,0 3.21,0 4.84,0 0,6 0,11.99 0,18z"/>
      <path class="fil0" d="M199.68 56.43c0,-1.49 0,-2.97 0,-4.46 1.6,0 3.19,0 4.8,0 0,1.48 0,2.96 0,4.46 -1.6,0 -3.18,0 -4.8,0z"/>
      <path class="fil0" d="M139.07 76.72c1.17,-2.88 2.36,-5.75 3.51,-8.64 1.8,-4.53 3.2,-8.05 4.94,-12.6 0.3,-0.78 0.72,-2.03 1.91,-2.03 1.21,0 2.42,0.02 3.68,0.02 3.15,7.8 6.29,15.56 9.49,23.48 -1.76,0 -3.39,0.03 -5.01,-0.03 -0.27,-0.01 -0.64,-0.37 -0.76,-0.65 -0.43,-1 -0.72,-2.06 -1.18,-3.05 -0.15,-0.32 -0.64,-0.67 -0.99,-0.68 -2.62,-0.06 -5.24,-0.05 -7.86,-0 -0.31,0.01 -0.76,0.34 -0.9,0.64 -0.45,0.99 -0.73,2.06 -1.18,3.05 -0.15,0.32 -0.62,0.68 -0.96,0.69 -1.56,0.07 -3.13,0.03 -4.69,0.03 0,-0.08 0,-0.16 0,-0.24zm11.69 -17l0 0c-1.08,2.95 -2.04,5.58 -3.03,8.29 2.05,0 3.99,0 6.06,0 -1,-2.73 -1.96,-5.35 -3.03,-8.29z"/>
     </g>
    </g>
   </g>
   <g>
    <path class="fil1" d="M70.21 86.07c-3.12,-3.43 -5.04,-7.09 -7.3,-13.9 0.01,-0.03 0.02,-0.05 0.03,-0.07l-0.06 -0.02c-0.01,-0.03 -0.02,-0.05 -0.03,-0.08l-0.11 0.04 -0.14 -0.05c-0.01,0.04 -0.02,0.07 -0.04,0.11l-0.05 0.02c0.01,0.02 0.01,0.04 0.02,0.06 -2.26,6.8 -4.18,10.46 -7.3,13.89 -1.72,1.89 -2.75,3.03 -6.83,5.41 -0.17,0.1 -0.17,0.23 -0.16,0.29 0.03,0.18 0.24,0.3 0.65,0.39 0.33,0.07 0.8,0.12 1.36,0.12 2.87,0 8.35,-1.31 12.51,-7.42 4.16,6.12 9.61,7.42 12.45,7.42 0.55,0 1.01,-0.05 1.33,-0.12 0.41,-0.09 0.62,-0.21 0.65,-0.39 0.01,-0.05 0.01,-0.19 -0.16,-0.29 -4.07,-2.38 -5.11,-3.52 -6.83,-5.41z"/>
    <path class="fil1" d="M36.34 15.1c0.07,0.02 0.17,0.04 0.3,0.07 5.6,1.26 15.91,5.56 22.01,20.14l0.35 -0.05c2.33,-21.54 15.86,-32.42 18.55,-34.38 0.14,-0.1 0.19,-0.24 0.15,-0.37 -0.12,-0.37 -0.93,-0.5 -1.64,-0.5 -1.25,0 -4.61,0.38 -8.74,3.91 -4.34,3.71 -8.03,9.62 -10.97,17.57 -5.76,-7.02 -11.24,-8.5 -14.85,-8.5 -3.17,0 -5.33,1.16 -5.41,1.77 -0.02,0.13 0.04,0.29 0.26,0.34z"/>
    <path class="fil1" d="M120.58 90.94c-13.17,-4.3 -19.21,-8.39 -22.62,-11.09 -14.92,-11.83 -15.72,-23.21 -13.83,-28.07 0.96,-2.48 3.21,-4.14 5.59,-4.14 1.46,0 2.74,0.65 3.63,1.84 1.09,1.45 1.04,3.3 -0.13,4.6 -0.3,0.33 -0.63,0.59 -0.89,0.79 -0.44,0.34 -0.82,0.64 -0.54,1 0.24,0.31 0.63,0.47 1.13,0.47 1.52,0 3.84,-1.45 4.68,-3.4 1.04,-2.4 0.89,-5.25 -0.39,-7.61 -1.32,-2.42 -3.62,-4.02 -6.49,-4.5 -0.58,-0.1 -1.17,-0.15 -1.76,-0.15 -3.91,0 -8.75,2.32 -10.6,8.84 -3.7,13.06 6.08,27.1 17.42,35.21 9.44,6.76 16.86,7.77 20.45,7.77 2.78,0 4.6,-0.6 4.69,-1.15 0.01,-0.08 0.01,-0.3 -0.33,-0.41z"/>
    <path class="fil1" d="M51.51 33.48c-3.24,-5.52 -9.7,-11.97 -17.26,-11.97 -2.16,0 -4.28,0.54 -6.3,1.59 -3.9,2.04 -6.34,5.35 -6.68,9.07 -0.32,3.44 1.22,6.77 4.23,9.14 1.77,1.39 2.89,1.6 3.4,1.6 0.39,0 0.66,-0.12 0.76,-0.33 0.06,-0.14 0.03,-0.29 -0.08,-0.42 -1.03,-1.17 -1.13,-1.38 -1.25,-1.64l-0.05 -0.11c-1.22,-2.49 -1.14,-5.4 0.23,-7.59 1.21,-1.94 3.18,-3.01 5.56,-3.01 0.11,0 0.22,0 0.33,0.01 8.92,0.37 15.5,12.34 17.32,20.72 2.29,10.53 2.98,25.93 -17.31,38 -2.13,1.27 -4.33,2.11 -5.81,2.6 -0.42,0.14 -0.45,0.36 -0.43,0.48 0.09,0.57 1.79,1.02 3.86,1.02l0 0c2.47,0 7.4,-0.61 12.68,-4.69 18.42,-14.23 16.69,-37.61 6.8,-54.47z"/>
    <path class="fil1" d="M97 91.4c-12.91,-5.66 -31.48,-24.66 -26.32,-51.51 5.25,-27.34 19.74,-29.46 24.05,-29.46 2.98,0 5.15,0.84 6.19,1.62 3.74,2.82 4.88,6.61 3.4,11.27 -0.39,1.24 -1.01,2.03 -1.8,3.03 -0.16,0.2 -0.32,0.4 -0.48,0.62 -0.16,0.21 -0.2,0.39 -0.12,0.55 0.09,0.19 0.33,0.28 0.7,0.28 1.02,0 3.32,-0.74 5.04,-2.31 5.53,-5.08 6.59,-11.18 3.07,-17.63 -2.6,-4.76 -6.66,-7.3 -12.39,-7.75 -0.6,-0.05 -1.21,-0.07 -1.81,-0.07 -10.07,0 -17.24,6.59 -21.48,12.12 -5.22,6.8 -8.98,15.87 -10.34,24.87 -4.92,32.75 13.1,47.98 18.74,51.87 4.96,3.42 9.81,3.68 11.17,3.68 0.43,0 2.6,-0.03 2.73,-0.69 0.03,-0.13 -0.01,-0.33 -0.37,-0.48z"/>
    <path class="fil1" d="M46.45 61.79c-0.58,-6.15 -4.43,-10.39 -9.6,-10.55 -0.1,-0 -0.2,-0 -0.3,-0 -2.78,0 -5.36,1.24 -7.07,3.39 -1.59,2 -2.22,4.53 -1.7,6.77 0.5,2.17 2.45,4.46 3.79,4.46 0.25,0 0.46,-0.08 0.64,-0.23 0.32,-0.27 0.13,-0.74 -0.13,-1.39 -0.11,-0.29 -0.24,-0.61 -0.35,-0.97 -0.61,-2 -0.4,-3.32 0.66,-4.26 0.81,-0.72 1.77,-1.09 2.77,-1.09 2.43,0 4.62,2.12 5.11,4.93 0.8,4.65 -2.11,12 -12.68,18.68 -8.07,5.1 -17.27,7.8 -26.61,7.8 -0.21,0 -0.42,-0 -0.64,-0.01 -0.23,0 -0.33,0.15 -0.33,0.29 0,0.42 0.88,1.1 2.09,1.6 1.18,0.49 3.23,1.08 6.33,1.08 4.88,0 10.62,-1.42 17.05,-4.21 8.71,-3.79 22.11,-14.27 20.99,-26.3z"/>
   </g>
  </g>
 </g>
</svg>
