<svg xmlns="http://www.w3.org/2000/svg" viewBox="0 0 102.49 30.95"><defs><style>.cls-1{fill:#868686;}.cls-2{fill:#93c01f;}</style></defs><title>Ativo 2</title><g id="Camada_2" data-name="Camada 2"><g id="Layer_2" data-name="Layer 2"><path class="cls-1" d="M46.46,14.69c.39-1,.79-1.92,1.17-2.89.61-1.51,1.07-2.69,1.66-4.21.1-.26.24-.68.63-.68h1.23l3.17,7.84c-.59,0-1.13,0-1.67,0-.09,0-.21-.12-.25-.21-.15-.34-.25-.69-.4-1a.46.46,0,0,0-.33-.23c-.87,0-1.75,0-2.62,0a.41.41,0,0,0-.3.21c-.15.34-.25.69-.4,1a.44.44,0,0,1-.32.23c-.52,0-1.05,0-1.57,0ZM50.37,9l-1,2.77h2Z"/><path class="cls-1" d="M60.18,9.52a2.43,2.43,0,0,1,1.43-.89,2,2,0,0,1,2.5,1.8,20,20,0,0,1,.07,2.19c0,.69,0,1.39,0,2.11H62.54c0-.83,0-1.66,0-2.49,0-.49,0-1-.06-1.45a.77.77,0,0,0-.65-.74.92.92,0,0,0-1.08.44,3.23,3.23,0,0,0-.27,1.19c0,1,0,2,0,3.05h-1.6V13.17c0-.72,0-1.44,0-2.16a.9.9,0,0,0-.69-1,1,1,0,0,0-1.22.68,2.5,2.5,0,0,0-.13.81c0,1.05,0,2.11,0,3.2H55.19v-6h.92c.45,0,.46.39.52.67C58,8.27,59.17,8.29,60.18,9.52Z"/><path class="cls-1" d="M70.39,9.27c0-.52.3-.55.7-.55h.64v6H70.49l-.18-.49a3.08,3.08,0,0,1-2.85.57,2.92,2.92,0,0,1-1.67-1.17,3.37,3.37,0,0,1,.26-4.13A3.25,3.25,0,0,1,70.39,9.27Zm-.24,2.48a1.64,1.64,0,1,0-3.28,0,1.64,1.64,0,1,0,3.28,0Z"/><path class="cls-1" d="M81.63,14.93a3.12,3.12,0,0,1-3.23-3.24,3.26,3.26,0,1,1,3.23,3.24Zm1.63-3.19a1.61,1.61,0,1,0-3.21,0,1.61,1.61,0,1,0,3.21,0Z"/><path class="cls-1" d="M86.12,8.74c.6,0,1.28-.25,1.36.74a3,3,0,0,1,1.63-.86,2.13,2.13,0,0,1,2.61,2c.08,1.37,0,2.74,0,4.14H90.12v-.41c0-1,0-2,0-3s-.34-1.31-1-1.32a1.3,1.3,0,0,0-1.35,1.37c0,1,0,1.93,0,2.9v.44H86.12Z"/><path class="cls-1" d="M77.86,8.74,75.2,13.26h2.52v1.48H72.65l2.65-4.51H73V8.74Z"/><path class="cls-1" d="M93.26,8.74h1.59v6H93.26Z"/><path class="cls-1" d="M82.52,6.49a2.26,2.26,0,0,0-.85-.18h0a2.26,2.26,0,0,0-.85.18c-.52.25-.82,1-1.23,1.52a1.75,1.75,0,0,0,2.08-.67A1.74,1.74,0,0,0,83.74,8C83.34,7.48,83,6.74,82.52,6.49Z"/><path class="cls-1" d="M93.24,7.9V6.42h1.6V7.9Z"/><path class="cls-1" d="M101.15,9.27c0-.52.3-.55.7-.55h.64v6h-1.24l-.18-.49a3.08,3.08,0,0,1-2.85.57,2.92,2.92,0,0,1-1.67-1.17,3.37,3.37,0,0,1,.26-4.13A3.25,3.25,0,0,1,101.15,9.27Zm-.24,2.48a1.65,1.65,0,1,0-1.63,1.64A1.6,1.6,0,0,0,100.91,11.75Z"/><path class="cls-1" d="M54.61,23.72h1.58l0,.19a.69.69,0,0,0,.44.5,1.3,1.3,0,0,0,1,0,.9.9,0,0,0,.3-.21.44.44,0,0,0-.1-.7,1.91,1.91,0,0,0-.66-.22c-.42-.09-.85-.17-1.26-.29a1.56,1.56,0,0,1-.71-.39,1.52,1.52,0,0,1-.48-1.3A1.75,1.75,0,0,1,56,19.71a3.15,3.15,0,0,1,2.32,0,1.87,1.87,0,0,1,1.26,1.63,1.09,1.09,0,0,1,0,.18H58a1.06,1.06,0,0,0,0-.19.58.58,0,0,0-.4-.44,1.42,1.42,0,0,0-.89,0,.52.52,0,0,0-.39.45.36.36,0,0,0,.22.41,3.62,3.62,0,0,0,.61.2c.41.1.82.17,1.23.27a2,2,0,0,1,.82.42A1.56,1.56,0,0,1,59.66,24a1.88,1.88,0,0,1-1.44,1.74,3.31,3.31,0,0,1-2.28-.06A2,2,0,0,1,54.63,24,2.66,2.66,0,0,1,54.61,23.72Z"/><path class="cls-1" d="M60.46,23.72H62l0,.18a.74.74,0,0,0,.43.51,1.31,1.31,0,0,0,1,0,.81.81,0,0,0,.29-.19.45.45,0,0,0-.1-.71,1.91,1.91,0,0,0-.66-.22A6.4,6.4,0,0,1,61.66,23a1.58,1.58,0,0,1-1-.87,1.79,1.79,0,0,1,.74-2.22,2.9,2.9,0,0,1,1.8-.39,2.56,2.56,0,0,1,1.42.47,1.89,1.89,0,0,1,.76,1.53H63.86s0,0,0,0a.65.65,0,0,0-.57-.63,1.33,1.33,0,0,0-.74,0,.51.51,0,0,0-.32.24.4.4,0,0,0,.15.62,2.82,2.82,0,0,0,.6.2c.41.1.82.17,1.22.27a1.85,1.85,0,0,1,.75.35A1.53,1.53,0,0,1,65.51,24a1.85,1.85,0,0,1-1.35,1.71,3.26,3.26,0,0,1-2.38,0A2,2,0,0,1,60.48,24C60.47,23.92,60.47,23.82,60.46,23.72Z"/><path class="cls-1" d="M69.51,23.72h1.58l0,.18a.69.69,0,0,0,.4.49,1.28,1.28,0,0,0,1,0,.74.74,0,0,0,.27-.19.45.45,0,0,0-.1-.7,2,2,0,0,0-.67-.22c-.42-.09-.84-.17-1.26-.28a1.74,1.74,0,0,1-.71-.4,1.52,1.52,0,0,1-.48-1.3,1.78,1.78,0,0,1,1.25-1.63,3.12,3.12,0,0,1,2.29,0,1.87,1.87,0,0,1,1.29,1.63v.18H72.91c0-.05,0-.09,0-.13a.61.61,0,0,0-.41-.5,1.39,1.39,0,0,0-.9,0,.61.61,0,0,0-.33.26.41.41,0,0,0,.16.6,3.21,3.21,0,0,0,.62.2c.4.1.81.17,1.22.27a1.86,1.86,0,0,1,.75.36A1.53,1.53,0,0,1,74.56,24a1.84,1.84,0,0,1-1.35,1.71,3.28,3.28,0,0,1-2.37,0A2,2,0,0,1,69.53,24C69.52,23.93,69.52,23.83,69.51,23.72Z"/><path class="cls-1" d="M79.4,24.24v1.43l-.06,0H78.11A2.11,2.11,0,0,1,77,25.36a1.81,1.81,0,0,1-.86-1.42,7.7,7.7,0,0,1,0-1V21H75c0-.12,0-.23,0-.34s0-.06,0-.08l2.27-2.41a.27.27,0,0,1,.11,0h.25v1.56h1.66V21H77.73v2.29a1.47,1.47,0,0,0,0,.36.79.79,0,0,0,.84.6h.79Z"/><path class="cls-1" d="M68.33,25.68H66.71v-6h1.62Z"/><path class="cls-1" d="M66.71,18.85V17.36h1.61v1.49Z"/><path class="cls-1" d="M46.46,25.63c.39-1,.79-1.92,1.17-2.88.61-1.52,1.07-2.69,1.66-4.21.1-.26.24-.68.63-.68h1.23l3.17,7.84c-.59,0-1.13,0-1.67,0-.09,0-.21-.12-.25-.22-.15-.33-.25-.69-.4-1a.47.47,0,0,0-.33-.22c-.87,0-1.75,0-2.62,0a.39.39,0,0,0-.3.21c-.15.33-.25.69-.4,1a.5.5,0,0,1-.32.23c-.52,0-1.05,0-1.57,0ZM50.37,20l-1,2.77h2Z"/><path class="cls-2" d="M23.45,28.76A11.73,11.73,0,0,1,21,24.11v0h0v0h-.09v0h0v0a11.81,11.81,0,0,1-2.44,4.64,7.69,7.69,0,0,1-2.28,1.81.08.08,0,0,0-.05.1c0,.06.08.1.21.13a2.71,2.71,0,0,0,.46,0A5.2,5.2,0,0,0,21,28.35a5.16,5.16,0,0,0,4.16,2.48,1.78,1.78,0,0,0,.44,0c.14,0,.21-.07.22-.13a.12.12,0,0,0-.05-.1A7.61,7.61,0,0,1,23.45,28.76Z"/><path class="cls-2" d="M12.14,5l.1,0c1.87.42,5.32,1.85,7.35,6.73l.12,0A16.54,16.54,0,0,1,25.91.29.12.12,0,0,0,26,.17c0-.13-.31-.17-.55-.17a4.64,4.64,0,0,0-2.92,1.31,13.85,13.85,0,0,0-3.67,5.87c-1.92-2.35-3.75-2.84-5-2.84-1.06,0-1.78.39-1.81.59A.1.1,0,0,0,12.14,5Z"/><path class="cls-2" d="M40.28,30.38a22.93,22.93,0,0,1-7.55-3.7c-5-3.95-5.25-7.76-4.62-9.38A2.06,2.06,0,0,1,30,15.92a1.48,1.48,0,0,1,1.22.61,1.19,1.19,0,0,1,0,1.54,2.21,2.21,0,0,1-.3.26c-.15.12-.28.22-.18.34a.46.46,0,0,0,.38.15,2,2,0,0,0,1.56-1.13,2.93,2.93,0,0,0-.13-2.55,3,3,0,0,0-2.17-1.5,3.92,3.92,0,0,0-.59-.05,3.7,3.7,0,0,0-3.54,2.95c-1.24,4.37,2,9.06,5.82,11.77a11.91,11.91,0,0,0,6.83,2.59c.93,0,1.53-.2,1.56-.38S40.4,30.42,40.28,30.38Z"/><path class="cls-2" d="M17.21,11.18c-1.08-1.84-3.24-4-5.77-4a4.39,4.39,0,0,0-2.1.53,3.87,3.87,0,0,0-2.23,3A3.46,3.46,0,0,0,8.52,13.8a2,2,0,0,0,1.14.54c.13,0,.22,0,.25-.11a.14.14,0,0,0,0-.14,2.37,2.37,0,0,1-.42-.55l0,0A2.66,2.66,0,0,1,9.52,11a2.14,2.14,0,0,1,1.86-1h.11c3,.12,5.18,4.12,5.79,6.92.76,3.52,1,8.66-5.79,12.7a10.51,10.51,0,0,1-1.94.87c-.14,0-.14.12-.14.16,0,.19.6.34,1.29.34h0a7,7,0,0,0,4.24-1.57C21.09,24.63,20.51,16.82,17.21,11.18Z"/><path class="cls-2" d="M32.41,30.54a15.87,15.87,0,0,1-8.8-17.21c1.76-9.13,6.6-9.84,8-9.84A3.57,3.57,0,0,1,33.71,4a3.13,3.13,0,0,1,1.14,3.76,3.09,3.09,0,0,1-.6,1l-.16.2a.18.18,0,0,0,0,.19c0,.06.11.09.23.09h0A3,3,0,0,0,36,8.52a4.46,4.46,0,0,0,1-5.89A4.8,4.8,0,0,0,32.85,0c-.2,0-.4,0-.6,0-3.37,0-5.76,2.2-7.18,4a18.66,18.66,0,0,0-3.45,8.31C20,23.31,26,28.4,27.88,29.7a6.86,6.86,0,0,0,3.74,1.23c.14,0,.86,0,.91-.23C32.54,30.65,32.52,30.59,32.41,30.54Z"/><path class="cls-2" d="M15.52,20.64c-.19-2.05-1.48-3.47-3.21-3.52h-.1a3,3,0,0,0-2.36,1.13,2.72,2.72,0,0,0-.57,2.26c.17.73.82,1.49,1.27,1.49a.31.31,0,0,0,.21-.07c.11-.09,0-.25,0-.47s-.08-.2-.12-.32c-.2-.67-.14-1.11.22-1.42a1.39,1.39,0,0,1,.93-.37A1.87,1.87,0,0,1,13.45,21c.27,1.55-.7,4-4.23,6.24a16.71,16.71,0,0,1-8.9,2.6H.11a.1.1,0,0,0-.11.1c0,.14.29.37.7.54a5.55,5.55,0,0,0,2.11.36,14.79,14.79,0,0,0,5.7-1.41C11.42,28.16,15.89,24.66,15.52,20.64Z"/></g></g></svg>